<?xml version="1.0" encoding="UTF-8" standalone="no"?>
<svg
   xmlns:dc="http://purl.org/dc/elements/1.1/"
   xmlns:cc="http://creativecommons.org/ns#"
   xmlns:rdf="http://www.w3.org/1999/02/22-rdf-syntax-ns#"
   xmlns:svg="http://www.w3.org/2000/svg"
   xmlns="http://www.w3.org/2000/svg"
   xmlns:sodipodi="http://sodipodi.sourceforge.net/DTD/sodipodi-0.dtd"
   xmlns:inkscape="http://www.inkscape.org/namespaces/inkscape"
   data-name="Layer 1"
   id="Layer_1"
   viewBox="0 0 272 272"
   version="1.1"
   sodipodi:docname="mini.svg"
   inkscape:version="1.0.2-2 (e86c870879, 2021-01-15)">
  <metadata
     id="metadata989">
    <rdf:RDF>
      <cc:Work
         rdf:about="">
        <dc:format>image/svg+xml</dc:format>
        <dc:type
           rdf:resource="http://purl.org/dc/dcmitype/StillImage" />
      </cc:Work>
    </rdf:RDF>
  </metadata>
  <sodipodi:namedview
     pagecolor="#ffffff"
     bordercolor="#666666"
     borderopacity="1"
     objecttolerance="10"
     gridtolerance="10"
     guidetolerance="10"
     inkscape:pageopacity="0"
     inkscape:pageshadow="2"
     inkscape:window-width="1842"
     inkscape:window-height="1051"
     id="namedview987"
     showgrid="false"
     inkscape:zoom="3.1286765"
     inkscape:cx="133.619"
     inkscape:cy="147.24462"
     inkscape:window-x="69"
     inkscape:window-y="-9"
     inkscape:window-maximized="1"
     inkscape:current-layer="layer5" />
  <defs
     id="defs914">
    <style
       id="style912">.cls-1{fill:#574c4d;}.cls-2{fill:#ffeb3c;}.cls-3{fill:#efefef;}.cls-4{fill:#ffd54f;}</style>
  </defs>
  <title
     id="title916" />
  <g
     inkscape:groupmode="layer"
     id="layer4"
     inkscape:label="Layer 4">
    <path
       style="fill:none;stroke:#000000;stroke-width:1px;stroke-linecap:butt;stroke-linejoin:miter;stroke-opacity:1"
       d="m 51.779083,59.769683 1.278496,193.372507 8.629848,8.62984 94.289073,-1.91774 9.26909,-9.58872 -1.27849,-188.578143 z"
       id="path1337" />
    <path
       style="fill:#32516b;fill-opacity:0.13779527;stroke:none;stroke-width:0;stroke-linecap:round;stroke-linejoin:round;stroke-miterlimit:4;stroke-dasharray:none"
       d="m 60.987352,255.46197 c -1.793,-0.63993 -2.707328,-1.3372 -3.679181,-2.80576 l -0.878363,-1.32728 -0.08151,-93.59327 -0.08151,-93.593275 H 69.31475 82.362716 l 8.797902,32.841363 8.797899,32.841362 -17.052484,0.0827 -17.052486,0.0827 0.08249,57.50613 c 0.08245,57.48147 0.08277,57.50651 0.740449,58.4085 0.361878,0.49631 1.291297,1.22599 2.065375,1.62153 l 1.407416,0.71915 38.846493,-0.007 c 37.19254,-0.007 38.90227,-0.0324 40.15661,-0.602 0.72056,-0.32724 1.65546,-1.0792 2.07756,-1.67101 l 0.76744,-1.07601 0.0825,-57.45241 0.0825,-57.45241 h -6.07544 -6.07544 v -11.85805 -11.85805 l -1.06152,-1.06151 c -1.98598,-1.98598 -4.70878,-1.73632 -6.42375,0.589 -0.64065,0.86865 -0.66864,1.3307 -0.75993,12.54524 l -0.0948,11.64337 h -11.48265 -11.48266 l -0.47788,-1.67802 c -0.75886,-2.66461 -17.119291,-63.836139 -17.119291,-64.008883 0,-0.0856 15.461811,-0.155632 34.359581,-0.155632 h 34.35957 v 93.107635 93.10763 l -0.80964,1.62474 c -0.86481,1.73545 -2.48904,3.09413 -4.33005,3.62213 -0.68697,0.19702 -17.95656,0.30707 -46.79709,0.29822 -37.283868,-0.0114 -45.928717,-0.0927 -46.904028,-0.44077 z"
       id="path1339" />
  </g>
  <g
     inkscape:groupmode="layer"
     id="layer5"
     inkscape:label="Layer 5" />
  <g
     inkscape:groupmode="layer"
     id="layer1"
     inkscape:label="Layer 1"
     style="display:inline">
    <path
       style="fill:#ffcc00;stroke:#000000;stroke-width:1px;stroke-linecap:butt;stroke-linejoin:miter;stroke-opacity:1"
       d="m 168,61 v 34.2 c 0,0 12.90717,4.8423 15.78378,3.883431 2.87662,-0.958872 23.01293,-10.867215 23.01293,-10.867215 L 219.58167,67.440658 217.66392,39.633373 200.08461,19.497062 175.79318,13.104583 148.62515,20.775558 136.79906,36.437133 136,56 h 27 z"
       id="path992" />
    <path
       style="fill:#ffe96e;fill-opacity:1;stroke-width:0.550861;stroke-linecap:round;stroke-linejoin:round"
       d="m 179.16541,98.000909 c -1.05476,-0.259825 -3.8235,-1.070737 -6.15276,-1.802027 l -4.23502,-1.32962 V 77.896606 60.92395 l -2.80303,-2.790046 -2.80303,-2.790045 h -13.22472 -13.22471 l 0.21072,-6.152762 c 0.11589,-3.384018 0.29897,-7.60724 0.40684,-9.384936 l 0.19613,-3.232175 5.79247,-7.623886 5.79246,-7.623886 13.26439,-3.762123 13.2644,-3.762123 11.82609,3.079469 c 6.50434,1.693708 12.0284,3.237813 12.27567,3.431345 0.24728,0.193532 4.23181,4.68655 8.85453,9.984486 l 8.40493,9.632609 0.95485,13.646704 0.95484,13.646707 -6.2935,10.250405 -6.29351,10.250401 -5.59342,2.699915 c -17.87078,8.62613 -17.64177,8.545703 -21.57462,7.5769 z"
       id="path994" />
  </g>
  <g
     inkscape:groupmode="layer"
     id="layer2"
     inkscape:label="Layer 2"
     style="display:inline">
    <path
       class="cls-1"
       d="m 160.84,45.55 a 4.17,4.17 0 0 1 -3,7.12 h -8.35 a 4.18,4.18 0 0 1 -4,-5.38 31,31 0 0 1 2.79,-6.69 4.17,4.17 0 0 1 6.6,-0.94 z"
       id="path918"
       style="fill:#32516b;fill-opacity:1" />
    <path
       class="cls-1"
       d="m 165.55,40.84 -5.89,-5.9 a 4.17,4.17 0 0 1 0.94,-6.6 31,31 0 0 1 6.69,-2.79 4.18,4.18 0 0 1 5.38,4 v 8.35 a 4.17,4.17 0 0 1 -7.12,2.94 z"
       id="path920"
       style="fill:#32516b;fill-opacity:1" />
    <circle
       class="cls-1"
       cx="176"
       cy="56"
       r="6.6700001"
       id="circle922"
       style="fill:#32516b;fill-opacity:1" />
    <path
       class="cls-1"
       d="m 192.34,77.06 a 4.17,4.17 0 0 1 -0.94,6.6 31,31 0 0 1 -6.69,2.79 4.18,4.18 0 0 1 -5.38,-4 v -8.34 a 4.17,4.17 0 0 1 7.12,-3 z"
       id="path924"
       style="fill:#32516b;fill-opacity:1" />
    <path
       class="cls-1"
       d="M 179.33,40.3 V 29.55 a 4.18,4.18 0 0 1 5.35,-4 31.65,31.65 0 0 1 8.44,3.84 4.18,4.18 0 0 1 0.72,6.47 l -7.39,7.4 a 4.17,4.17 0 0 1 -7.12,-2.96 z"
       id="path926"
       style="fill:#32516b;fill-opacity:1" />
    <path
       class="cls-1"
       d="m 206.45,64.71 a 31,31 0 0 1 -2.79,6.69 4.17,4.17 0 0 1 -6.6,0.94 l -5.9,-5.89 a 4.17,4.17 0 0 1 3,-7.12 h 8.35 a 4.18,4.18 0 0 1 3.94,5.38 z"
       id="path928"
       style="fill:#32516b;fill-opacity:1" />
    <path
       class="cls-1"
       d="m 193.57,45.55 4.31,-4.31 a 4.18,4.18 0 0 1 6.73,1.19 31.43,31.43 0 0 1 1.86,4.93 4.18,4.18 0 0 1 -4,5.31 h -5.94 a 4.17,4.17 0 0 1 -2.96,-7.12 z"
       id="path930"
       style="fill:#32516b;fill-opacity:1" />
    <path
       class="cls-1"
       d="M 176,8 A 48,48 0 0 0 128.67,64 H 160 v 37.26 a 47.19,47.19 0 0 0 8,2.07 A 48,48 0 1 0 176,8 Z m 0,88 a 40.57,40.57 0 0 1 -8,-0.8 V 61 a 5,5 0 0 0 -5,-5 h -27 a 40,40 0 1 1 40,40 z"
       id="path932"
       style="fill:#32516b;fill-opacity:1" />
    <path
       class="cls-2"
       d="m 145.55,47.29 a 31,31 0 0 1 2.79,-6.69 4.17,4.17 0 0 1 6.6,-0.94 l 5.9,5.89 a 4.17,4.17 0 0 1 -3,7.12 h -8.35 a 4.18,4.18 0 0 1 -3.94,-5.38 z"
       id="path934"
       style="fill:#32516b;fill-opacity:1" />
    <path
       class="cls-2"
       d="m 168,61 v 34.2 a 39.46,39.46 0 0 1 -8,-2.54 V 64 H 136.8 A 40.57,40.57 0 0 1 136,56 h 27 a 5,5 0 0 1 5,5 z"
       id="path936"
       style="fill:#32516b;fill-opacity:1" />
    <path
       class="cls-2"
       d="m 165.55,40.84 -5.89,-5.9 a 4.17,4.17 0 0 1 0.94,-6.6 31,31 0 0 1 6.69,-2.79 4.18,4.18 0 0 1 5.38,4 v 8.35 a 4.17,4.17 0 0 1 -7.12,2.94 z"
       id="path938"
       style="fill:#32516b;fill-opacity:1" />
    <circle
       class="cls-2"
       cx="176"
       cy="56"
       r="6.6700001"
       id="circle940"
       style="fill:#32516b;fill-opacity:1" />
    <path
       class="cls-2"
       d="m 192.34,77.06 a 4.17,4.17 0 0 1 -0.94,6.6 31,31 0 0 1 -6.69,2.79 4.18,4.18 0 0 1 -5.38,-4 v -8.34 a 4.17,4.17 0 0 1 7.12,-3 z"
       id="path942"
       style="fill:#32516b;fill-opacity:1" />
    <path
       class="cls-2"
       d="M 179.33,40.3 V 29.55 a 4.18,4.18 0 0 1 5.35,-4 31.65,31.65 0 0 1 8.44,3.84 4.18,4.18 0 0 1 0.72,6.47 l -7.39,7.4 a 4.17,4.17 0 0 1 -7.12,-2.96 z"
       id="path944"
       style="fill:#32516b;fill-opacity:1" />
    <path
       class="cls-2"
       d="m 206.45,64.71 a 31,31 0 0 1 -2.79,6.69 4.17,4.17 0 0 1 -6.6,0.94 l -5.9,-5.89 a 4.17,4.17 0 0 1 3,-7.12 h 8.35 a 4.18,4.18 0 0 1 3.94,5.38 z"
       id="path946"
       style="fill:#32516b;fill-opacity:1" />
    <path
       class="cls-2"
       d="m 193.57,45.55 4.31,-4.31 a 4.18,4.18 0 0 1 6.73,1.19 31.43,31.43 0 0 1 1.86,4.93 4.18,4.18 0 0 1 -4,5.31 h -5.94 a 4.17,4.17 0 0 1 -2.96,-7.12 z"
       id="path948"
       style="fill:#32516b;fill-opacity:1" />
    <circle
       class="cls-1"
       cx="176"
       cy="56"
       r="6.6700001"
       id="circle950"
       style="fill:#32516b;fill-opacity:1" />
    <path
       class="cls-1"
       d="m 157.89,52.67 h -8.35 a 4.18,4.18 0 0 1 -4,-5.38 31,31 0 0 1 2.79,-6.69 4.17,4.17 0 0 1 6.6,-0.94 l 5.9,5.89 a 4.17,4.17 0 0 1 -2.94,7.12 z"
       id="path952"
       style="fill:#32516b;fill-opacity:1" />
    <path
       class="cls-1"
       d="m 172.67,29.54 v 8.35 a 4.17,4.17 0 0 1 -7.12,2.95 l -5.89,-5.9 a 4.17,4.17 0 0 1 0.94,-6.6 31,31 0 0 1 6.69,-2.79 4.18,4.18 0 0 1 5.38,3.99 z"
       id="path954"
       style="fill:#32516b;fill-opacity:1" />
    <path
       class="cls-1"
       d="m 191.4,83.66 a 31,31 0 0 1 -6.69,2.79 4.18,4.18 0 0 1 -5.38,-4 v -8.34 a 4.17,4.17 0 0 1 7.12,-3 l 5.89,5.9 a 4.17,4.17 0 0 1 -0.94,6.65 z"
       id="path956"
       style="fill:#32516b;fill-opacity:1" />
    <path
       class="cls-1"
       d="m 206.45,64.71 a 31,31 0 0 1 -2.79,6.69 4.17,4.17 0 0 1 -6.6,0.94 l -5.9,-5.89 a 4.17,4.17 0 0 1 3,-7.12 h 8.35 a 4.18,4.18 0 0 1 3.94,5.38 z"
       id="path958"
       style="fill:#32516b;fill-opacity:1" />
    <path
       class="cls-1"
       d="m 193.84,35.85 -7.39,7.4 a 4.17,4.17 0 0 1 -7.12,-3 v -10.7 a 4.18,4.18 0 0 1 5.35,-4 31.65,31.65 0 0 1 8.44,3.84 4.18,4.18 0 0 1 0.72,6.46 z"
       id="path960"
       style="fill:#32516b;fill-opacity:1" />
    <path
       class="cls-1"
       d="m 202.46,52.67 h -5.94 a 4.17,4.17 0 0 1 -3,-7.12 l 4.31,-4.31 a 4.18,4.18 0 0 1 6.73,1.19 31.43,31.43 0 0 1 1.86,4.93 4.18,4.18 0 0 1 -3.96,5.31 z"
       id="path962"
       style="fill:#32516b;fill-opacity:1" />
    <path
       class="cls-1"
       d="m 136,216 a 4,4 0 0 0 -3.76,2.66 L 135.81,232 H 136 a 4,4 0 0 0 4,-4 v -8 a 4,4 0 0 0 -4,-4 z m 4,-86 v -22 a 4,4 0 1 0 -8,0 v 22 h -23.52 l 2.15,8 H 132 v 66 a 4,4 0 0 0 8,0 v -66 h 4 V 240 H 74 V 138 h 28.34 l -2.14,-8 H 66 v 113 a 5,5 0 0 0 5,5 h 76 a 5,5 0 0 0 5,-5 V 130 Z m -4,86 a 4,4 0 0 0 -3.76,2.66 A 3.75,3.75 0 0 0 132,220 v 8 a 4,4 0 0 0 3.81,4 H 136 a 4,4 0 0 0 4,-4 v -8 a 4,4 0 0 0 -4,-4 z m 0,0 a 4,4 0 0 0 -3.76,2.66 A 3.75,3.75 0 0 0 132,220 v 8 a 4,4 0 0 0 3.81,4 H 136 a 4,4 0 0 0 4,-4 v -8 a 4,4 0 0 0 -4,-4 z m 4,-86 v -22 a 4,4 0 1 0 -8,0 v 22 h -23.52 l 2.15,8 H 132 v 66 a 4,4 0 0 0 8,0 v -66 h 4 V 240 H 74 V 138 h 28.34 l -2.14,-8 H 66 v 113 a 5,5 0 0 0 5,5 h 76 a 5,5 0 0 0 5,-5 V 130 Z M 163,56 H 53 a 5,5 0 0 0 -5,5 v 188 a 15,15 0 0 0 15,15 h 90 a 15,15 0 0 0 15,-15 V 61 a 5,5 0 0 0 -5,-5 z m -3,193 a 7,7 0 0 1 -7,7 H 63 a 7,7 0 0 1 -7,-7 V 64 h 26.51 l 17.69,66 H 66 v 113 a 5,5 0 0 0 5,5 h 76 a 5,5 0 0 0 5,-5 V 130 h -12 v -22 a 4,4 0 1 0 -8,0 v 22 H 108.48 L 90.8,64 H 160 Z m -24,-41 a 4,4 0 0 0 4,-4 v -66 h 4 V 240 H 74 V 138 h 58 v 66 a 4,4 0 0 0 4,4 z m -4,20 a 4,4 0 0 0 3.81,4 H 136 a 4,4 0 0 0 4,-4 v -8 A 4,4 0 0 0 132.24,218.66 3.75,3.75 0 0 0 132,220 Z m 4,-12 a 4,4 0 0 0 -3.76,2.66 L 135.81,232 H 136 a 4,4 0 0 0 4,-4 v -8 a 4,4 0 0 0 -4,-4 z m 4,-86 v -22 a 4,4 0 1 0 -8,0 v 22 h -23.52 l 2.15,8 H 132 v 66 a 4,4 0 0 0 8,0 v -66 h 4 V 240 H 74 V 138 h 28.34 l -2.14,-8 H 66 v 113 a 5,5 0 0 0 5,5 h 76 a 5,5 0 0 0 5,-5 V 130 Z"
       id="path964"
       style="fill:#32516b;fill-opacity:1" />
    <path
       class="cls-3"
       d="m 140,220 v 8 a 4,4 0 0 1 -4,4 h -0.19 A 4,4 0 0 1 132,228 v -8 a 3.75,3.75 0 0 1 0.24,-1.34 4,4 0 0 1 7.76,1.34 z"
       id="path966" />
    <path
       class="cls-3"
       d="m 140,130 v -22 a 4,4 0 1 0 -8,0 v 22 H 108.48 L 90.8,64 h -8.29 l 17.69,66 H 66 v 113 a 5,5 0 0 0 5,5 h 76 a 5,5 0 0 0 5,-5 V 130 Z m 4,110 H 74 V 138 h 58 v 66 a 4,4 0 0 0 8,0 v -66 h 4 z"
       id="path968" />
    <polygon
       class="cls-1"
       points="82.51,64 80.37,56 70.15,17.85 77.88,15.78 88.66,56 90.8,64 108.48,130 110.63,138 102.34,138 100.2,130 "
       id="polygon970"
       style="fill:#32516b;fill-opacity:1" />
    <path
       class="cls-1"
       d="M 135.81,232 A 4,4 0 0 1 132,228 v -8 a 3.75,3.75 0 0 1 0.24,-1.34 z"
       id="path972" />
    <path
       class="cls-1"
       d="m 140,220 v 8 a 4,4 0 0 1 -4,4 h -0.19 A 4,4 0 0 1 132,228 v -8 a 3.75,3.75 0 0 1 0.24,-1.34 4,4 0 0 1 7.76,1.34 z"
       id="path974" />
    <path
       class="cls-1"
       d="m 66,130 v 113 a 5,5 0 0 0 5,5 h 76 a 5,5 0 0 0 5,-5 V 130 Z m 78,110 H 74 V 138 h 58 v 66 a 4,4 0 0 0 8,0 v -66 h 4 z"
       id="path976"
       style="fill:#32516b;fill-opacity:1" />
    <path
       class="cls-4"
       d="m 140,138 v 66 a 4,4 0 0 1 -8,0 v -66 z"
       id="path978" />
    <path
       class="cls-4"
       d="m 140,220 v 8 a 4,4 0 0 1 -4,4 h -0.19 A 4,4 0 0 1 132,228 v -8 a 3.75,3.75 0 0 1 0.24,-1.34 4,4 0 0 1 7.76,1.34 z"
       id="path980" />
    <path
       class="cls-1"
       d="m 140,108 v 96 a 4,4 0 0 1 -8,0 v -96 a 4,4 0 0 1 8,0 z"
       id="path982"
       style="fill:#32516b;fill-opacity:1" />
    <path
       class="cls-1"
       d="m 140,220 v 8 a 4,4 0 0 1 -4,4 h -0.19 A 4,4 0 0 1 132,228 v -8 a 3.75,3.75 0 0 1 0.24,-1.34 4,4 0 0 1 7.76,1.34 z"
       id="path984"
       style="fill:#32516b;fill-opacity:1" />
  </g>
  <g
     inkscape:groupmode="layer"
     id="layer3"
     inkscape:label="Layer 3" />
</svg>
