<?xml version="1.0" ?><svg data-name="Layer 1" id="Layer_1" viewBox="0 0 272 272" xmlns="http://www.w3.org/2000/svg"><defs><style>.cls-1{fill:#574c4d;}.cls-2{fill:#ffeb3c;}.cls-3{fill:#efefef;}.cls-4{fill:#ffd54f;}</style></defs><title/><path class="cls-1" d="M160.84,45.55a4.17,4.17,0,0,1-3,7.12h-8.35a4.18,4.18,0,0,1-4-5.38,31,31,0,0,1,2.79-6.69,4.17,4.17,0,0,1,6.6-.94Z"/><path class="cls-1" d="M165.55,40.84l-5.89-5.9a4.17,4.17,0,0,1,.94-6.6,31,31,0,0,1,6.69-2.79,4.18,4.18,0,0,1,5.38,4v8.35A4.17,4.17,0,0,1,165.55,40.84Z"/><circle class="cls-1" cx="176" cy="56" r="6.67"/><path class="cls-1" d="M192.34,77.06a4.17,4.17,0,0,1-.94,6.6,31,31,0,0,1-6.69,2.79,4.18,4.18,0,0,1-5.38-4V74.11a4.17,4.17,0,0,1,7.12-3Z"/><path class="cls-1" d="M179.33,40.3V29.55a4.18,4.18,0,0,1,5.35-4,31.65,31.65,0,0,1,8.44,3.84,4.18,4.18,0,0,1,.72,6.47l-7.39,7.4A4.17,4.17,0,0,1,179.33,40.3Z"/><path class="cls-1" d="M206.45,64.71a31,31,0,0,1-2.79,6.69,4.17,4.17,0,0,1-6.6.94l-5.9-5.89a4.17,4.17,0,0,1,3-7.12h8.35A4.18,4.18,0,0,1,206.45,64.71Z"/><path class="cls-1" d="M193.57,45.55l4.31-4.31a4.18,4.18,0,0,1,6.73,1.19,31.43,31.43,0,0,1,1.86,4.93,4.18,4.18,0,0,1-4,5.31h-5.94A4.17,4.17,0,0,1,193.57,45.55Z"/><path class="cls-1" d="M176,8a48,48,0,0,0-47.33,56H160v37.26a47.19,47.19,0,0,0,8,2.07A48,48,0,1,0,176,8Zm0,88a40.57,40.57,0,0,1-8-.8V61a5,5,0,0,0-5-5H136a40,40,0,1,1,40,40Z"/><path class="cls-2" d="M145.55,47.29a31,31,0,0,1,2.79-6.69,4.17,4.17,0,0,1,6.6-.94l5.9,5.89a4.17,4.17,0,0,1-3,7.12h-8.35A4.18,4.18,0,0,1,145.55,47.29Z"/><path class="cls-2" d="M168,61V95.2a39.46,39.46,0,0,1-8-2.54V64H136.8a40.57,40.57,0,0,1-.8-8h27A5,5,0,0,1,168,61Z"/><path class="cls-2" d="M165.55,40.84l-5.89-5.9a4.17,4.17,0,0,1,.94-6.6,31,31,0,0,1,6.69-2.79,4.18,4.18,0,0,1,5.38,4v8.35A4.17,4.17,0,0,1,165.55,40.84Z"/><circle class="cls-2" cx="176" cy="56" r="6.67"/><path class="cls-2" d="M192.34,77.06a4.17,4.17,0,0,1-.94,6.6,31,31,0,0,1-6.69,2.79,4.18,4.18,0,0,1-5.38-4V74.11a4.17,4.17,0,0,1,7.12-3Z"/><path class="cls-2" d="M179.33,40.3V29.55a4.18,4.18,0,0,1,5.35-4,31.65,31.65,0,0,1,8.44,3.84,4.18,4.18,0,0,1,.72,6.47l-7.39,7.4A4.17,4.17,0,0,1,179.33,40.3Z"/><path class="cls-2" d="M206.45,64.71a31,31,0,0,1-2.79,6.69,4.17,4.17,0,0,1-6.6.94l-5.9-5.89a4.17,4.17,0,0,1,3-7.12h8.35A4.18,4.18,0,0,1,206.45,64.71Z"/><path class="cls-2" d="M193.57,45.55l4.31-4.31a4.18,4.18,0,0,1,6.73,1.19,31.43,31.43,0,0,1,1.86,4.93,4.18,4.18,0,0,1-4,5.31h-5.94A4.17,4.17,0,0,1,193.57,45.55Z"/><circle class="cls-1" cx="176" cy="56" r="6.67"/><path class="cls-1" d="M157.89,52.67h-8.35a4.18,4.18,0,0,1-4-5.38,31,31,0,0,1,2.79-6.69,4.17,4.17,0,0,1,6.6-.94l5.9,5.89A4.17,4.17,0,0,1,157.89,52.67Z"/><path class="cls-1" d="M172.67,29.54v8.35a4.17,4.17,0,0,1-7.12,2.95l-5.89-5.9a4.17,4.17,0,0,1,.94-6.6,31,31,0,0,1,6.69-2.79A4.18,4.18,0,0,1,172.67,29.54Z"/><path class="cls-1" d="M191.4,83.66a31,31,0,0,1-6.69,2.79,4.18,4.18,0,0,1-5.38-4V74.11a4.17,4.17,0,0,1,7.12-3l5.89,5.9A4.17,4.17,0,0,1,191.4,83.66Z"/><path class="cls-1" d="M206.45,64.71a31,31,0,0,1-2.79,6.69,4.17,4.17,0,0,1-6.6.94l-5.9-5.89a4.17,4.17,0,0,1,3-7.12h8.35A4.18,4.18,0,0,1,206.45,64.71Z"/><path class="cls-1" d="M193.84,35.85l-7.39,7.4a4.17,4.17,0,0,1-7.12-3V29.55a4.18,4.18,0,0,1,5.35-4,31.65,31.65,0,0,1,8.44,3.84A4.18,4.18,0,0,1,193.84,35.85Z"/><path class="cls-1" d="M202.46,52.67h-5.94a4.17,4.17,0,0,1-3-7.12l4.31-4.31a4.18,4.18,0,0,1,6.73,1.19,31.43,31.43,0,0,1,1.86,4.93A4.18,4.18,0,0,1,202.46,52.67Z"/><path class="cls-1" d="M136,216a4,4,0,0,0-3.76,2.66L135.81,232H136a4,4,0,0,0,4-4v-8A4,4,0,0,0,136,216Zm4-86V108a4,4,0,1,0-8,0v22H108.48l2.15,8H132v66a4,4,0,0,0,8,0V138h4V240H74V138h28.34l-2.14-8H66V243a5,5,0,0,0,5,5h76a5,5,0,0,0,5-5V130Zm-4,86a4,4,0,0,0-3.76,2.66A3.75,3.75,0,0,0,132,220v8a4,4,0,0,0,3.81,4H136a4,4,0,0,0,4-4v-8A4,4,0,0,0,136,216Zm0,0a4,4,0,0,0-3.76,2.66A3.75,3.75,0,0,0,132,220v8a4,4,0,0,0,3.81,4H136a4,4,0,0,0,4-4v-8A4,4,0,0,0,136,216Zm4-86V108a4,4,0,1,0-8,0v22H108.48l2.15,8H132v66a4,4,0,0,0,8,0V138h4V240H74V138h28.34l-2.14-8H66V243a5,5,0,0,0,5,5h76a5,5,0,0,0,5-5V130Zm23-74H53a5,5,0,0,0-5,5V249a15,15,0,0,0,15,15h90a15,15,0,0,0,15-15V61A5,5,0,0,0,163,56Zm-3,193a7,7,0,0,1-7,7H63a7,7,0,0,1-7-7V64H82.51l17.69,66H66V243a5,5,0,0,0,5,5h76a5,5,0,0,0,5-5V130H140V108a4,4,0,1,0-8,0v22H108.48L90.8,64H160Zm-24-41a4,4,0,0,0,4-4V138h4V240H74V138h58v66A4,4,0,0,0,136,208Zm-4,20a4,4,0,0,0,3.81,4H136a4,4,0,0,0,4-4v-8a4,4,0,0,0-7.76-1.34A3.75,3.75,0,0,0,132,220Zm4-12a4,4,0,0,0-3.76,2.66L135.81,232H136a4,4,0,0,0,4-4v-8A4,4,0,0,0,136,216Zm4-86V108a4,4,0,1,0-8,0v22H108.48l2.15,8H132v66a4,4,0,0,0,8,0V138h4V240H74V138h28.34l-2.14-8H66V243a5,5,0,0,0,5,5h76a5,5,0,0,0,5-5V130Z"/><path class="cls-3" d="M140,220v8a4,4,0,0,1-4,4h-.19a4,4,0,0,1-3.81-4v-8a3.75,3.75,0,0,1,.24-1.34A4,4,0,0,1,140,220Z"/><path class="cls-3" d="M140,130V108a4,4,0,1,0-8,0v22H108.48L90.8,64H82.51l17.69,66H66V243a5,5,0,0,0,5,5h76a5,5,0,0,0,5-5V130Zm4,110H74V138h58v66a4,4,0,0,0,8,0V138h4Z"/><polygon class="cls-1" points="108.48 130 110.63 138 102.34 138 100.2 130 82.51 64 80.37 56 70.15 17.85 77.88 15.78 88.66 56 90.8 64 108.48 130"/><path class="cls-1" d="M135.81,232a4,4,0,0,1-3.81-4v-8a3.75,3.75,0,0,1,.24-1.34Z"/><path class="cls-1" d="M140,220v8a4,4,0,0,1-4,4h-.19a4,4,0,0,1-3.81-4v-8a3.75,3.75,0,0,1,.24-1.34A4,4,0,0,1,140,220Z"/><path class="cls-1" d="M66,130V243a5,5,0,0,0,5,5h76a5,5,0,0,0,5-5V130Zm78,110H74V138h58v66a4,4,0,0,0,8,0V138h4Z"/><path class="cls-4" d="M140,138v66a4,4,0,0,1-8,0V138Z"/><path class="cls-4" d="M140,220v8a4,4,0,0,1-4,4h-.19a4,4,0,0,1-3.81-4v-8a3.75,3.75,0,0,1,.24-1.34A4,4,0,0,1,140,220Z"/><path class="cls-1" d="M140,108v96a4,4,0,0,1-8,0V108a4,4,0,0,1,8,0Z"/><path class="cls-1" d="M140,220v8a4,4,0,0,1-4,4h-.19a4,4,0,0,1-3.81-4v-8a3.75,3.75,0,0,1,.24-1.34A4,4,0,0,1,140,220Z"/></svg>