<?xml version="1.0" encoding="UTF-8" standalone="no"?>
<svg
   xmlns:dc="http://purl.org/dc/elements/1.1/"
   xmlns:cc="http://creativecommons.org/ns#"
   xmlns:rdf="http://www.w3.org/1999/02/22-rdf-syntax-ns#"
   xmlns:svg="http://www.w3.org/2000/svg"
   xmlns="http://www.w3.org/2000/svg"
   xmlns:sodipodi="http://sodipodi.sourceforge.net/DTD/sodipodi-0.dtd"
   xmlns:inkscape="http://www.inkscape.org/namespaces/inkscape"
   version="1.1"
   id="Capa_1"
   x="0px"
   y="0px"
   viewBox="0 0 463.001 463.001"
   style="enable-background:new 0 0 463.001 463.001;"
   xml:space="preserve"
   sodipodi:docname="seeds-svgrepo-com.svg"
   inkscape:version="1.0.2-2 (e86c870879, 2021-01-15)"><metadata
   id="metadata1434"><rdf:RDF><cc:Work
       rdf:about=""><dc:format>image/svg+xml</dc:format><dc:type
         rdf:resource="http://purl.org/dc/dcmitype/StillImage" /></cc:Work></rdf:RDF></metadata><defs
   id="defs1432" /><sodipodi:namedview
   pagecolor="#ffffff"
   bordercolor="#666666"
   borderopacity="1"
   objecttolerance="10"
   gridtolerance="10"
   guidetolerance="10"
   inkscape:pageopacity="0"
   inkscape:pageshadow="2"
   inkscape:window-width="1842"
   inkscape:window-height="1051"
   id="namedview1430"
   showgrid="false"
   inkscape:zoom="1.3439581"
   inkscape:cx="147.65433"
   inkscape:cy="259.21258"
   inkscape:window-x="69"
   inkscape:window-y="-9"
   inkscape:window-maximized="1"
   inkscape:current-layer="layer6" />

<g
   id="g1399">
</g>
<g
   id="g1401">
</g>
<g
   id="g1403">
</g>
<g
   id="g1405">
</g>
<g
   id="g1407">
</g>
<g
   id="g1409">
</g>
<g
   id="g1411">
</g>
<g
   id="g1413">
</g>
<g
   id="g1415">
</g>
<g
   id="g1417">
</g>
<g
   id="g1419">
</g>
<g
   id="g1421">
</g>
<g
   id="g1423">
</g>
<g
   id="g1425">
</g>
<g
   id="g1427">
</g>
<g
   inkscape:groupmode="layer"
   id="layer6"
   inkscape:label="Layer 1"
   style="display:inline"><g
     id="g1397">
	<path
   d="M 363.236,48.001 H 103.5 c -4.142,0 -7.5,3.358 -7.5,7.5 0,4.142 3.358,7.5 7.5,7.5 h 259.735 c 4.142,0 7.5,-3.358 7.5,-7.5 0,-4.142 -3.357,-7.5 -7.499,-7.5 z"
   id="path1389" />
	<path
   d="M 363.236,400.001 H 103.5 c -4.142,0 -7.5,3.358 -7.5,7.5 0,4.142 3.358,7.5 7.5,7.5 h 259.735 c 4.142,0 7.5,-3.358 7.5,-7.5 0,-4.142 -3.357,-7.5 -7.499,-7.5 z"
   id="path1391" />
	<path
   d="m 394.967,0.85 c -2.478,-1.293 -5.47,-1.099 -7.762,0.502 l -18.611,13 -18.611,-13 C 347.4,-0.453 343.967,-0.45 341.389,1.355 L 322.82,14.347 304.256,1.356 c -2.582,-1.808 -6.019,-1.807 -8.601,0 L 277.098,14.344 258.565,1.359 c -2.582,-1.81 -6.02,-1.811 -8.604,-0.002 L 231.401,14.347 212.84,1.356 c -2.582,-1.808 -6.019,-1.808 -8.602,10e-4 L 185.69,14.344 167.152,1.358 c -2.583,-1.81 -6.021,-1.81 -8.604,-0.001 L 139.997,14.344 121.468,1.359 c -2.583,-1.81 -6.022,-1.811 -8.606,-10e-4 L 94.321,14.342 75.807,1.36 C 73.515,-0.247 70.521,-0.445 68.04,0.847 65.558,2.138 64,4.703 64,7.501 v 448 c 0,2.795 1.555,5.358 4.033,6.65 2.478,1.293 5.47,1.099 7.762,-0.502 l 18.611,-13 18.611,13 c 2.582,1.804 6.015,1.801 8.594,-0.003 l 18.569,-12.992 18.563,12.991 c 2.582,1.808 6.019,1.807 8.601,0 l 18.557,-12.988 18.533,12.986 c 2.582,1.81 6.02,1.811 8.604,0.002 l 18.56,-12.99 18.561,12.99 c 2.582,1.808 6.019,1.808 8.602,-10e-4 l 18.548,-12.987 18.537,12.986 c 2.583,1.81 6.021,1.81 8.604,0.001 l 18.551,-12.987 18.529,12.985 c 2.583,1.81 6.022,1.812 8.606,10e-4 l 18.541,-12.985 18.514,12.982 c 1.286,0.902 2.793,1.359 4.307,1.359 1.184,0 2.372,-0.28 3.46,-0.846 2.482,-1.291 4.039,-3.856 4.039,-6.654 v -448 C 399,4.705 397.446,2.142 394.967,0.85 Z M 384,441.082 372.988,433.36 c -2.584,-1.812 -6.024,-1.813 -8.608,-0.002 l -18.542,12.986 -18.529,-12.985 c -2.582,-1.809 -6.021,-1.81 -8.605,-0.002 l -18.551,12.988 -18.538,-12.986 c -2.582,-1.809 -6.021,-1.81 -8.605,-10e-4 l -18.55,12.988 -18.56,-12.989 c -2.582,-1.807 -6.018,-1.808 -8.601,0 l -18.558,12.988 -18.533,-12.986 c -2.583,-1.81 -6.022,-1.811 -8.604,-0.002 l -18.56,12.99 -18.563,-12.99 c -2.582,-1.808 -6.019,-1.807 -8.6,-0.001 L 117.308,446.351 98.7,433.353 c -1.29,-0.901 -2.792,-1.352 -4.295,-1.352 -1.503,0 -3.005,0.451 -4.295,1.352 L 79,441.113 V 21.92 l 11.012,7.722 c 2.584,1.812 6.024,1.813 8.608,0.002 l 18.542,-12.986 18.529,12.985 c 2.583,1.81 6.023,1.811 8.605,0.002 l 18.551,-12.988 18.538,12.986 c 2.582,1.809 6.021,1.81 8.605,10e-4 l 18.55,-12.988 18.56,12.989 c 2.582,1.808 6.018,1.808 8.601,0 l 18.558,-12.988 18.533,12.986 c 2.583,1.81 6.021,1.811 8.604,0.002 l 18.56,-12.99 18.563,12.99 c 2.582,1.808 6.019,1.807 8.6,0.001 L 345.692,16.651 364.3,29.649 c 2.58,1.802 6.01,1.802 8.59,0 L 384,21.888 Z"
   id="path1393" />
	<path
   d="m 197.246,265.712 c -14.455,-14.455 -35.237,-20.734 -54.238,-16.385 -2.806,0.642 -4.996,2.833 -5.638,5.638 -4.348,19 1.931,39.783 16.386,54.238 11.425,11.425 26.8,17.742 42.127,17.742 2.631,0 5.26,-0.207 7.869,-0.586 L 224,346.607 v 12.894 c 0,4.142 3.358,7.5 7.5,7.5 4.142,0 7.5,-3.358 7.5,-7.5 v -12.894 l 20.248,-20.248 c 2.609,0.379 5.237,0.586 7.869,0.586 15.326,0 30.704,-6.317 42.127,-17.742 14.455,-14.455 20.734,-35.237 16.386,-54.238 -0.642,-2.806 -2.833,-4.996 -5.638,-5.638 -19.001,-4.349 -39.784,1.931 -54.238,16.385 -13.408,13.408 -19.775,32.26 -17.157,50.085 L 239,325.394 v -55.628 c 9.29,-3.138 16,-11.93 16,-22.266 0,-4.075 -1.27,-16.309 -3.466,-29.3 10.15,8.395 20.107,15.611 23.642,17.652 3.622,2.091 7.64,3.159 11.712,3.159 2.041,0 4.096,-0.269 6.121,-0.811 6.063,-1.625 11.131,-5.513 14.27,-10.95 6.479,-11.221 2.62,-25.622 -8.602,-32.101 -3.53,-2.038 -14.76,-7.055 -27.109,-11.648 12.349,-4.594 23.579,-9.611 27.109,-11.648 11.221,-6.479 15.08,-20.88 8.601,-32.102 -3.139,-5.436 -8.206,-9.325 -14.27,-10.949 -6.063,-1.625 -12.396,-0.792 -17.832,2.348 -3.535,2.041 -13.492,9.256 -23.642,17.651 2.196,-12.988 3.466,-25.218 3.466,-29.3 0,-12.958 -10.542,-23.5 -23.5,-23.5 -12.958,0 -23.5,10.542 -23.5,23.5 0,4.075 1.27,16.309 3.466,29.3 -10.15,-8.395 -20.107,-15.61 -23.642,-17.652 -5.437,-3.139 -11.769,-3.973 -17.833,-2.348 -6.063,1.625 -11.131,5.513 -14.27,10.95 -6.479,11.221 -2.62,25.622 8.602,32.101 3.53,2.038 14.76,7.055 27.109,11.648 -12.349,4.594 -23.579,9.611 -27.109,11.648 -11.221,6.479 -15.08,20.88 -8.601,32.102 3.139,5.436 8.206,9.325 14.27,10.949 2.024,0.542 4.079,0.811 6.121,0.811 4.072,0 8.091,-1.068 11.711,-3.159 3.535,-2.041 13.492,-9.256 23.642,-17.651 -2.196,12.988 -3.466,25.218 -3.466,29.3 0,10.336 6.71,19.128 16,22.266 v 55.628 l -9.597,-9.597 c 2.618,-17.825 -3.749,-36.677 -17.157,-50.085 z m -32.884,32.884 c -9.599,-9.599 -14.415,-22.807 -13.161,-35.438 12.632,-1.25 25.84,3.562 35.438,13.16 6.828,6.828 11.22,15.485 12.745,24.459 l -18.602,-18.602 c -2.929,-2.929 -7.678,-2.929 -10.606,0 -2.929,2.929 -2.929,7.678 0,10.606 l 18.543,18.543 c -8.938,-1.54 -17.555,-5.926 -24.357,-12.728 z m 112,-22.278 c 9.599,-9.599 22.81,-14.411 35.438,-13.16 1.254,12.631 -3.562,25.839 -13.161,35.438 -6.802,6.801 -15.419,11.186 -24.355,12.727 l 18.541,-18.541 c 2.929,-2.929 2.929,-7.678 0,-10.606 -2.929,-2.929 -7.678,-2.929 -10.606,0 l -18.602,18.602 c 1.524,-8.975 5.916,-17.631 12.745,-24.46 z M 223,183.501 c 0,-4.687 3.813,-8.5 8.5,-8.5 4.687,0 8.5,3.813 8.5,8.5 0,4.687 -3.813,8.5 -8.5,8.5 -4.687,0 -8.5,-3.813 -8.5,-8.5 z m 71.288,36.25 c -1.135,1.966 -2.968,3.373 -5.162,3.96 -2.193,0.588 -4.483,0.287 -6.45,-0.849 -3.839,-2.216 -20.103,-14.256 -32.221,-25.492 0.997,-1.359 1.85,-2.829 2.54,-4.387 15.788,4.877 34.35,12.945 38.181,15.156 4.059,2.344 5.455,7.553 3.112,11.612 z m -11.611,-75.612 c 1.966,-1.136 4.258,-1.437 6.449,-0.849 2.193,0.587 4.026,1.994 5.162,3.96 2.343,4.059 0.947,9.268 -3.111,11.612 -3.831,2.212 -22.393,10.279 -38.181,15.156 -0.69,-1.558 -1.543,-3.028 -2.54,-4.387 12.117,-11.236 28.382,-23.275 32.221,-25.492 z M 231.5,111.001 c 4.687,0 8.5,3.813 8.5,8.5 0,4.431 -2.293,24.529 -5.963,40.639 -0.834,-0.09 -1.679,-0.139 -2.537,-0.139 -0.857,0 -1.703,0.049 -2.536,0.139 -3.67,-16.112 -5.964,-36.216 -5.964,-40.639 0,-4.687 3.813,-8.5 8.5,-8.5 z m -62.787,36.25 c 1.135,-1.966 2.968,-3.373 5.162,-3.96 2.195,-0.587 4.484,-0.286 6.45,0.849 3.839,2.216 20.103,14.256 32.221,25.492 -0.997,1.359 -1.85,2.829 -2.54,4.387 -15.788,-4.877 -34.35,-12.945 -38.181,-15.156 -4.059,-2.345 -5.455,-7.554 -3.112,-11.612 z m 11.611,75.611 c -1.966,1.136 -4.256,1.437 -6.449,0.849 -2.193,-0.587 -4.026,-1.994 -5.162,-3.96 -2.343,-4.059 -0.947,-9.268 3.111,-11.612 3.831,-2.212 22.393,-10.279 38.181,-15.156 0.69,1.558 1.543,3.028 2.54,4.387 -12.117,11.236 -28.382,23.276 -32.221,25.492 z m 48.64,-16 c 0.834,0.09 1.679,0.139 2.537,0.139 0.857,0 1.703,-0.049 2.536,-0.139 3.67,16.112 5.964,36.216 5.964,40.639 0,4.687 -3.813,8.5 -8.5,8.5 -4.687,0 -8.5,-3.813 -8.5,-8.5 -0.001,-4.432 2.293,-24.529 5.963,-40.639 z"
   id="path1395" />
</g><path
     style="fill:#ffe96e;fill-opacity:1;stroke:#ff0000;stroke-width:0;stroke-linecap:round;stroke-linejoin:round;stroke-opacity:1"
     d="m 107.39084,438.83997 c -12.554875,-8.76682 -13.294547,-8.86602 -21.70029,-2.91058 -3.176884,2.25082 -5.936935,4.09239 -6.133446,4.09239 -0.196511,0 -0.357292,-93.92787 -0.357292,-208.7286 V 22.564574 l 6.129639,4.295151 c 8.830038,6.18737 9.465587,6.110316 21.942139,-2.660254 6.30327,-4.430968 10.18255,-6.710006 10.78903,-6.338448 0.52084,0.319088 4.88425,3.351406 9.69647,6.738485 4.81223,3.38708 9.57767,6.366184 10.58988,6.620232 2.84999,0.715301 5.29659,-0.486591 15.21702,-7.475345 l 9.20011,-6.48131 4.53627,3.130145 c 2.49494,1.721579 6.88838,4.772339 9.7632,6.779465 8.11254,5.663976 8.90622,5.611105 19.01921,-1.266979 4.67113,-3.176943 9.38483,-6.434328 10.47491,-7.238634 l 1.98195,-1.462374 9.92319,6.971838 c 13.1884,9.265918 12.6389,9.265507 25.8444,0.01931 l 9.93894,-6.959026 3.43948,2.427846 c 13.01528,9.187183 17.39852,11.862238 19.43699,11.862238 2.03848,0 6.42171,-2.675055 19.437,-11.862241 l 3.43948,-2.427846 9.93894,6.959026 c 13.20597,9.246535 12.65544,9.247004 25.84833,-0.02206 l 9.9271,-6.974591 3.46618,2.446658 c 15.46763,10.918118 17.42389,12.044467 20.15426,11.604113 1.46176,-0.235752 5.08084,-2.111459 8.04239,-4.168239 2.96156,-2.056777 5.5565,-3.739597 5.76655,-3.739597 0.21005,0 0.3819,93.764313 0.3819,208.365153 v 208.36517 l -6.04655,-4.11773 c -9.16396,-6.2407 -9.39682,-6.17915 -28.18666,7.44914 l -3.35428,2.43286 -10.01353,-6.99986 c -13.38814,-9.35885 -12.44468,-9.37815 -26.58736,0.54375 -4.58596,3.21731 -8.70236,5.84966 -9.14755,5.84966 -0.44519,0 -4.56159,-2.63235 -9.14756,-5.84966 -10.16955,-7.13453 -10.93558,-7.54362 -14.12561,-7.54362 -1.99844,0 -4.65467,1.48344 -12.51211,6.98768 l -9.97508,6.98767 -3.34831,-2.42067 C 238.72091,434.45657 234.38142,431.837 231.93906,431.837 c -3.16259,0 -3.89457,0.39298 -14.07838,7.55827 -4.56121,3.20926 -8.63336,5.83501 -9.04921,5.83501 -0.41586,0 -5.09538,-3.01349 -10.39896,-6.69664 -12.80518,-8.89277 -12.26806,-8.89867 -25.33451,0.27816 l -9.91969,6.9668 -10.08441,-6.9708 c -7.9342,-5.48447 -10.62876,-6.9708 -12.63737,-6.9708 -3.17825,0 -3.58059,0.21867 -14.31096,7.77801 l -8.77344,6.18073 z m 259.25523,-24.20368 c 2.80481,-1.43439 4.19545,-3.81922 4.21295,-7.22484 0.0132,-2.57893 -0.41623,-3.65231 -2.15843,-5.39451 l -2.17497,-2.17498 H 233.62556 c -146.317482,0 -135.313925,-0.35965 -137.322008,4.48829 -1.653683,3.99235 0.529235,9.16957 4.474308,10.61171 0.61386,0.2244 60.31965,0.43443 132.67954,0.46674 95.53761,0.0426 132.00847,-0.16885 133.18867,-0.77241 z M 237.00005,364.92786 c 2.12276,-2.12275 2.17498,-2.35924 2.17498,-9.8493 v -7.67433 l 10.22101,-10.24061 10.22101,-10.2406 h 7.8897 c 27.29668,0 51.13593,-18.78972 57.97294,-45.69336 1.62727,-6.40332 2.03829,-19.88399 0.77338,-25.3654 -1.44904,-6.2793 -6.54283,-8.30446 -20.18836,-8.02641 -26.76885,0.5455 -50.53782,20.12286 -56.95463,46.91083 -0.69948,2.92008 -1.21664,8.34517 -1.23777,12.98433 l -0.0363,7.96857 -4.33049,4.2853 -4.33049,4.28531 v -26.93017 -26.93017 l 2.41823,-1.22305 c 6.85517,-3.46711 11.12419,-8.81442 12.95282,-16.22454 1.21838,-4.9372 1.12489,-6.5115 -1.78612,-30.07828 l -0.39717,-3.21543 9.72656,7.34886 c 13.09794,9.89608 16.19443,11.51394 22.85512,11.9414 7.48348,0.48027 12.53913,-1.12079 17.43297,-5.52078 5.18069,-4.65788 7.62158,-9.60898 8.06422,-16.35746 0.40623,-6.19311 -0.95908,-11.17706 -4.3406,-15.84512 -3.6671,-5.0623 -8.31681,-7.58672 -31.58267,-17.14691 -1.3661,-0.56135 -1.30508,-0.68238 0.74407,-1.47589 21.70618,-8.40547 29.11253,-13.00279 32.9021,-20.42325 2.73828,-5.36191 3.17737,-13.39829 1.04104,-19.05387 -4.93338,-13.06035 -19.53889,-19.03418 -32.27119,-13.19931 -2.14729,0.98405 -8.41267,5.17735 -13.92308,9.31845 -5.5104,4.14111 -10.14739,7.4008 -10.30442,7.24378 -0.15702,-0.15703 0.28653,-4.40994 0.98565,-9.45093 1.9195,-13.84015 1.8387,-22.4106 -0.2554,-27.09151 -2.12519,-4.75041 -7.5461,-10.13932 -12.40195,-12.328748 -5.68665,-2.564024 -14.22217,-2.421356 -19.83733,0.331565 -8.14663,3.994003 -12.59954,10.890403 -13.11721,20.315123 -0.28808,5.24507 1.33048,22.47058 2.61007,27.7774 0.37082,1.53792 -0.4212,1.12644 -5.44477,-2.8287 -16.71788,-13.16228 -20.91926,-15.35626 -29.31694,-15.30948 -9.70325,0.0541 -17.39968,4.95004 -21.4889,13.66987 -2.79506,5.96015 -2.72977,14.2784 0.15912,20.27433 3.52964,7.32578 8.47962,10.67932 26.71632,18.09984 l 8.73486,3.55422 -8.73486,3.51566 c -18.26716,7.35227 -23.23311,10.77914 -26.87544,18.54604 -2.8282,6.03083 -2.77556,14.34168 0.12842,20.27721 2.26089,4.62109 6.16907,8.56234 11.09597,11.18984 2.69136,1.4353 4.31165,1.70284 10.26451,1.69485 8.83595,-0.0118 10.2439,-0.65894 24.20409,-11.12395 5.69211,-4.26699 10.41977,-7.68767 10.50592,-7.60152 0.0861,0.0861 -0.37455,3.5006 -1.02378,7.58767 -0.64922,4.08707 -1.21162,11.78386 -1.24978,17.10397 -0.0623,8.68684 0.10603,10.02903 1.6513,13.16623 2.12785,4.31995 6.73719,9.01863 10.58757,10.79279 l 2.90681,1.33938 0.0192,27.1505 0.0192,27.1505 -4.12224,-4.12224 -4.12223,-4.12223 -0.26587,-9.26295 c -0.18918,-6.59142 -0.7225,-10.83567 -1.84915,-14.71598 -5.29262,-18.22835 -19.24048,-33.63055 -36.4095,-40.20591 -8.16517,-3.1271 -13.55451,-4.08616 -22.4296,-3.99148 -13.07702,0.1395 -16.3871,1.94897 -17.85063,9.75817 -2.37283,12.66099 0.62052,27.79943 8.02773,40.5992 3.6956,6.38604 14.83626,17.16149 21.72804,21.01576 9.71281,5.43194 15.96698,7.13306 27.53061,7.48824 l 10.04496,0.30853 9.85894,9.78425 9.85894,9.78426 v 7.31395 c 0,10.08588 1.85864,13.12028 8.05599,13.15212 2.57893,0.0132 3.65231,-0.41622 5.39451,-2.15843 z M 366.75364,62.369992 c 4.62719,-2.195745 5.64164,-8.603852 1.94695,-12.298546 L 366.52562,47.89647 H 233.44526 c -145.987616,0 -135.137642,-0.349948 -137.114409,4.422391 -1.681057,4.058429 0.470253,9.223885 4.447009,10.677612 0.61386,0.224399 60.16333,0.434433 132.33216,0.466741 116.99038,0.05238 131.47923,-0.06615 133.64362,-1.093222 z"
     id="path2014" /><path
     style="fill:#d9ffc5;fill-opacity:1;stroke-width:0;stroke-linecap:round;stroke-linejoin:round"
     d="m 182.1145,309.11045 c -6.9873,-2.51529 -11.68939,-5.54932 -17.3672,-11.20619 -8.33488,-8.30415 -13.33156,-19.64287 -13.36162,-30.32089 l -0.011,-3.90637 h 4.91507 c 13.57449,0 27.53581,7.83701 35.49556,19.92497 3.01067,4.57211 6.46583,12.32321 6.46583,14.50505 0,0.49006 -4.10758,-3.20671 -9.12797,-8.21504 -9.99917,-9.97517 -12.29317,-11.29681 -16.53311,-9.52525 -3.21699,1.34414 -4.84582,3.83502 -4.84582,7.41042 0,2.76817 0.55848,3.49905 9.82344,12.85567 5.40289,5.45635 9.50458,9.90856 9.11487,9.8938 -0.38972,-0.0148 -2.44534,-0.65204 -4.56805,-1.41617 z"
     id="path2016" /><path
     style="fill:#d9ffc5;fill-opacity:1;stroke-width:0;stroke-linecap:round;stroke-linejoin:round"
     d="m 285.43379,301.06656 c 9.34458,-9.52357 10.50735,-11.36605 9.73214,-15.42127 -0.45216,-2.36536 -3.41895,-5.33215 -5.78432,-5.78432 -4.04997,-0.7742 -5.90426,0.39418 -15.53963,9.79147 -5.28289,5.15236 -9.43335,8.86568 -9.22324,8.25182 0.21011,-0.61386 0.95292,-2.85283 1.65069,-4.9755 5.21387,-15.86086 23.48408,-29.25176 39.91039,-29.25176 h 5.17008 v 4.68013 c 0,12.99078 -8.82061,28.45753 -20.46195,35.87957 -3.32307,2.11866 -12.76363,6.31676 -14.20493,6.31676 -0.30681,0 3.63103,-4.2691 8.75077,-9.4869 z"
     id="path2018" /><path
     style="fill:#d9ffc5;fill-opacity:1;stroke-width:0;stroke-linecap:round;stroke-linejoin:round"
     d="m 171.69114,222.04184 c -2.89902,-1.76764 -4.46156,-6.05618 -3.30634,-9.07455 1.11692,-2.91833 4.65523,-5.2013 14.64534,-9.44939 8.58205,-3.64933 25.06571,-9.78355 26.29003,-9.78355 0.32155,0 1.02961,0.83143 1.57346,1.84762 0.93604,1.74901 0.79655,2.01709 -2.61322,5.02248 -5.878,5.1809 -16.66015,13.7105 -23.33171,18.45736 -6.89589,4.90647 -9.23558,5.43239 -13.25756,2.98003 z"
     id="path2020" /><path
     style="fill:#d9ffc5;fill-opacity:1;stroke-width:0;stroke-linecap:round;stroke-linejoin:round"
     d="m 202.71556,171.07093 c -8.73202,-2.99013 -22.21688,-8.50587 -28.28954,-11.57134 -7.04018,-3.55387 -8.40862,-8.36466 -3.83531,-13.48308 3.02468,-3.38521 6.9613,-3.34845 11.91973,0.11131 5.62924,3.92782 20.80854,15.8455 25.3347,19.89095 3.88097,3.46878 3.97923,3.65135 2.97628,5.52996 l -1.03718,1.94274 z"
     id="path2022" /><path
     style="fill:#d9ffc5;fill-opacity:1;stroke-width:0;stroke-linecap:round;stroke-linejoin:round"
     d="m 229.22753,158.9207 c -1.14535,-1.85322 -5.64959,-31.8625 -5.66356,-37.73326 -0.0119,-4.98588 1.97896,-8.20259 5.78175,-9.34193 2.40908,-0.72178 3.28216,-0.66394 5.23707,0.34699 3.74626,1.93726 4.99217,4.50555 4.78238,9.85831 -0.22465,5.73215 -1.90684,17.99997 -3.98826,29.08548 -1.56309,8.32498 -1.58323,8.3708 -3.67933,8.3708 -1.1592,0 -2.27073,-0.26388 -2.47005,-0.58639 z"
     id="path2024" /><path
     style="fill:#d9ffc5;fill-opacity:1;stroke-width:0;stroke-linecap:round;stroke-linejoin:round"
     d="m 252.18577,171.66381 c -1.04661,-1.59733 -1.08755,-2.06243 -0.24899,-2.82858 10.29306,-9.40443 29.12582,-23.67549 32.87698,-24.91349 7.27337,-2.40043 13.31512,7.07146 8.15219,12.78053 -2.23551,2.47198 -14.49543,7.9183 -31.59183,14.03428 l -7.93578,2.83891 z"
     id="path2026" /><path
     style="fill:#d9ffc5;fill-opacity:1;stroke-width:0;stroke-linecap:round;stroke-linejoin:round"
     d="m 280.4003,220.64424 c -5.41251,-3.51442 -17.57792,-12.98065 -24.26143,-18.87847 -4.62673,-4.08284 -4.9266,-4.53099 -4.15897,-6.21575 0.455,-0.99862 1.07596,-1.81567 1.3799,-1.81567 2.44205,0 30.87802,11.15454 36.67101,14.38489 5.52209,3.07929 6.5786,8.68919 2.41969,12.8481 -3.47665,3.47665 -6.31548,3.40054 -12.0502,-0.3231 z"
     id="path2028" /><path
     style="fill:#d9ffc5;fill-opacity:1;stroke-width:0;stroke-linecap:round;stroke-linejoin:round"
     d="m 226.07939,252.96238 c -2.20024,-2.20023 -2.52984,-3.01297 -2.52984,-6.23801 0,-4.62794 2.50703,-23.60673 4.29685,-32.52808 1.32489,-6.60395 1.37532,-6.69977 3.64348,-6.92321 l 2.3,-0.22657 1.58946,8.41135 c 2.00636,10.61751 3.80218,24.19293 3.96714,29.98941 0.14209,4.99279 -1.14974,7.74662 -4.30928,9.1862 -3.45472,1.57408 -6.23047,1.05626 -8.95781,-1.67109 z"
     id="path2030" /><path
     style="fill:#d9ffc5;fill-opacity:1;stroke-width:0;stroke-linecap:round;stroke-linejoin:round"
     d="m 226.07939,188.97229 c -1.8724,-1.8724 -2.52912,-3.17761 -2.52706,-5.02247 0.007,-5.95298 5.48875,-9.96253 10.66456,-7.79993 8.46206,3.53567 5.9497,15.35224 -3.26409,15.35224 -1.67314,0 -3.06729,-0.72371 -4.87341,-2.52984 z"
     id="path2032" /></g><g
   inkscape:groupmode="layer"
   id="layer7"
   inkscape:label="Layer 2"
   style="display:inline"><path
     style="fill:none;stroke:#000000;stroke-width:1px;stroke-linecap:butt;stroke-linejoin:miter;stroke-opacity:1"
     d="m 71.430797,8.1847788 0.744071,449.4187612 23.066194,-18.60177 23.066198,15.62549 21.57805,-16.36956 21.57805,17.11363 22.32213,-17.11363 24.55433,16.36956 25.29841,-15.62549 20.83398,17.11363 24.55434,-17.11363 23.81027,16.36956 21.57805,-16.36956 21.57805,17.11363 26.04248,-17.11363 18.60177,17.11363 L 391.38124,7.440708 371.29133,23.810266 348.22513,7.440708 325.15894,25.298407 301.34867,7.440708 277.53841,26.786549 255.21628,5.2084956 231.401,14.347 l -22.861,2.309 -22.85,-2.312 -22.843,2.313 -22.85,-2.313 -22.835,2.314 -22.841,-2.316 z"
     id="path2004" /><path
     style="fill:#ffe96e;fill-opacity:0.13725491;stroke-width:0;stroke-linecap:round;stroke-linejoin:round"
     d="m 107.39084,438.83997 c -12.554875,-8.76682 -13.294547,-8.86602 -21.70029,-2.91058 -3.176884,2.25082 -5.936935,4.09239 -6.133446,4.09239 -0.196511,0 -0.357292,-93.92787 -0.357292,-208.7286 V 22.564574 l 6.129639,4.295151 c 8.830038,6.18737 9.465587,6.110316 21.942139,-2.660254 6.30327,-4.430968 10.18255,-6.710006 10.78903,-6.338448 0.52084,0.319088 4.88425,3.351406 9.69647,6.738485 4.81223,3.38708 9.57767,6.366184 10.58988,6.620232 2.84999,0.715301 5.29659,-0.486591 15.21702,-7.475345 l 9.20011,-6.48131 4.53627,3.130145 c 2.49494,1.721579 6.88838,4.772339 9.7632,6.779465 8.11254,5.663976 8.90622,5.611105 19.01921,-1.266979 4.67113,-3.176943 9.38483,-6.434328 10.47491,-7.238634 l 1.98195,-1.462374 9.92319,6.971838 c 13.1884,9.265918 12.6389,9.265507 25.8444,0.01931 l 9.93894,-6.959026 3.43948,2.427846 c 13.01528,9.187183 17.39852,11.862238 19.43699,11.862238 2.03848,0 6.42171,-2.675055 19.437,-11.862241 l 3.43948,-2.427846 9.93894,6.959026 c 13.20597,9.246535 12.65544,9.247004 25.84833,-0.02206 l 9.9271,-6.974591 3.46618,2.446658 c 15.46763,10.918118 17.42389,12.044467 20.15426,11.604113 1.46176,-0.235752 5.08084,-2.111459 8.04239,-4.168239 2.96156,-2.056777 5.5565,-3.739597 5.76655,-3.739597 0.21005,0 0.3819,93.764313 0.3819,208.365153 v 208.36517 l -6.04655,-4.11773 c -9.16396,-6.2407 -9.39682,-6.17915 -28.18666,7.44914 l -3.35428,2.43286 -10.01353,-6.99986 c -13.38814,-9.35885 -12.44468,-9.37815 -26.58736,0.54375 -4.58596,3.21731 -8.70236,5.84966 -9.14755,5.84966 -0.44519,0 -4.56159,-2.63235 -9.14756,-5.84966 -10.16955,-7.13453 -10.93558,-7.54362 -14.12561,-7.54362 -1.99844,0 -4.65467,1.48344 -12.51211,6.98768 l -9.97508,6.98767 -3.34831,-2.42067 C 238.72091,434.45657 234.38142,431.837 231.93906,431.837 c -3.16259,0 -3.89457,0.39298 -14.07838,7.55827 -4.56121,3.20926 -8.63336,5.83501 -9.04921,5.83501 -0.41586,0 -5.09538,-3.01349 -10.39896,-6.69664 -12.80518,-8.89277 -12.26806,-8.89867 -25.33451,0.27816 l -9.91969,6.9668 -10.08441,-6.9708 c -7.9342,-5.48447 -10.62876,-6.9708 -12.63737,-6.9708 -3.17825,0 -3.58059,0.21867 -14.31096,7.77801 l -8.77344,6.18073 z m 259.25523,-24.20368 c 2.80481,-1.43439 4.19545,-3.81922 4.21295,-7.22484 0.0132,-2.57893 -0.41623,-3.65231 -2.15843,-5.39451 l -2.17497,-2.17498 H 233.62556 c -146.317482,0 -135.313925,-0.35965 -137.322008,4.48829 -1.653683,3.99235 0.529235,9.16957 4.474308,10.61171 0.61386,0.2244 60.31965,0.43443 132.67954,0.46674 95.53761,0.0426 132.00847,-0.16885 133.18867,-0.77241 z M 237.00005,364.92786 c 2.12276,-2.12275 2.17498,-2.35924 2.17498,-9.8493 v -7.67433 l 10.22101,-10.24061 10.22101,-10.2406 h 7.8897 c 27.29668,0 51.13593,-18.78972 57.97294,-45.69336 1.62727,-6.40332 2.03829,-19.88399 0.77338,-25.3654 -1.44904,-6.2793 -6.54283,-8.30446 -20.18836,-8.02641 -26.76885,0.5455 -50.53782,20.12286 -56.95463,46.91083 -0.69948,2.92008 -1.21664,8.34517 -1.23777,12.98433 l -0.0363,7.96857 -4.33049,4.2853 -4.33049,4.28531 v -26.93017 -26.93017 l 2.41823,-1.22305 c 6.85517,-3.46711 11.12419,-8.81442 12.95282,-16.22454 1.21838,-4.9372 1.12489,-6.5115 -1.78612,-30.07828 l -0.39717,-3.21543 9.72656,7.34886 c 13.09794,9.89608 16.19443,11.51394 22.85512,11.9414 7.48348,0.48027 12.53913,-1.12079 17.43297,-5.52078 5.18069,-4.65788 7.62158,-9.60898 8.06422,-16.35746 0.40623,-6.19311 -0.95908,-11.17706 -4.3406,-15.84512 -3.6671,-5.0623 -8.31681,-7.58672 -31.58267,-17.14691 -1.3661,-0.56135 -1.30508,-0.68238 0.74407,-1.47589 21.70618,-8.40547 29.11253,-13.00279 32.9021,-20.42325 2.73828,-5.36191 3.17737,-13.39829 1.04104,-19.05387 -4.93338,-13.06035 -19.53889,-19.03418 -32.27119,-13.19931 -2.14729,0.98405 -8.41267,5.17735 -13.92308,9.31845 -5.5104,4.14111 -10.14739,7.4008 -10.30442,7.24378 -0.15702,-0.15703 0.28653,-4.40994 0.98565,-9.45093 1.9195,-13.84015 1.8387,-22.4106 -0.2554,-27.09151 -2.12519,-4.75041 -7.5461,-10.13932 -12.40195,-12.328748 -5.68665,-2.564024 -14.22217,-2.421356 -19.83733,0.331565 -8.14663,3.994003 -12.59954,10.890403 -13.11721,20.315123 -0.28808,5.24507 1.33048,22.47058 2.61007,27.7774 0.37082,1.53792 -0.4212,1.12644 -5.44477,-2.8287 -16.71788,-13.16228 -20.91926,-15.35626 -29.31694,-15.30948 -9.70325,0.0541 -17.39968,4.95004 -21.4889,13.66987 -2.79506,5.96015 -2.72977,14.2784 0.15912,20.27433 3.52964,7.32578 8.47962,10.67932 26.71632,18.09984 l 8.73486,3.55422 -8.73486,3.51566 c -18.26716,7.35227 -23.23311,10.77914 -26.87544,18.54604 -2.8282,6.03083 -2.77556,14.34168 0.12842,20.27721 2.26089,4.62109 6.16907,8.56234 11.09597,11.18984 2.69136,1.4353 4.31165,1.70284 10.26451,1.69485 8.83595,-0.0118 10.2439,-0.65894 24.20409,-11.12395 5.69211,-4.26699 10.41977,-7.68767 10.50592,-7.60152 0.0861,0.0861 -0.37455,3.5006 -1.02378,7.58767 -0.64922,4.08707 -1.21162,11.78386 -1.24978,17.10397 -0.0623,8.68684 0.10603,10.02903 1.6513,13.16623 2.12785,4.31995 6.73719,9.01863 10.58757,10.79279 l 2.90681,1.33938 0.0192,27.1505 0.0192,27.1505 -4.12224,-4.12224 -4.12223,-4.12223 -0.26587,-9.26295 c -0.18918,-6.59142 -0.7225,-10.83567 -1.84915,-14.71598 -5.29262,-18.22835 -19.24048,-33.63055 -36.4095,-40.20591 -8.16517,-3.1271 -13.55451,-4.08616 -22.4296,-3.99148 -13.07702,0.1395 -16.3871,1.94897 -17.85063,9.75817 -2.37283,12.66099 0.62052,27.79943 8.02773,40.5992 3.6956,6.38604 14.83626,17.16149 21.72804,21.01576 9.71281,5.43194 15.96698,7.13306 27.53061,7.48824 l 10.04496,0.30853 9.85894,9.78425 9.85894,9.78426 v 7.31395 c 0,10.08588 1.85864,13.12028 8.05599,13.15212 2.57893,0.0132 3.65231,-0.41622 5.39451,-2.15843 z M 366.75364,62.369992 c 4.62719,-2.195745 5.64164,-8.603852 1.94695,-12.298546 L 366.52562,47.89647 H 233.44526 c -145.987616,0 -135.137642,-0.349948 -137.114409,4.422391 -1.681057,4.058429 0.470253,9.223885 4.447009,10.677612 0.61386,0.224399 60.16333,0.434433 132.33216,0.466741 116.99038,0.05238 131.47923,-0.06615 133.64362,-1.093222 z"
     id="path2006" /><path
     style="fill:#d9ffc5;fill-opacity:1;stroke-width:0;stroke-linecap:round;stroke-linejoin:round"
     d="M 66.778118,460.54816 64.690431,458.75243 64.50081,232.04763 64.311188,5.3428272 66.844633,2.8093828 c 1.568118,-1.5681187 3.262416,-2.53344421 4.446591,-2.53344421 1.691468,0 9.134329,4.62538291 19.367306,12.03585641 1.596048,1.155819 3.229031,2.101489 3.628851,2.101489 0.399821,0 5.120937,-3.084361 10.491369,-6.8541356 7.79986,-5.4751071 10.28839,-6.85434168 12.36867,-6.85516165 2.07955,-8.1967e-4 4.57877,1.38014185 12.40438,6.85413555 5.39007,3.7703387 10.10684,6.8551617 10.48171,6.8551617 0.37488,0 5.00528,-3.025115 10.28979,-6.722476 5.2845,-3.6973613 10.38625,-6.92075945 11.33722,-7.1631068 2.33075,-0.59397691 3.49784,0.01863 14.21686,7.4624457 5.08709,3.5327251 9.54816,6.4231371 9.91349,6.4231371 0.36533,0 5.21328,-3.180903 10.77322,-7.0686728 5.73913,-4.0130743 10.85827,-7.06867261 11.84236,-7.06867261 1.43265,0 12.25122,6.79331651 20.43773,12.83348141 1.92873,1.423057 1.9724,1.421927 4.83646,-0.125102 1.58958,-0.85862 6.49931,-4.0692583 10.9105,-7.134753 4.41119,-3.0654945 8.80397,-5.57362641 9.76174,-5.57362641 0.99182,0 6.10739,3.04268121 11.88437,7.06867261 5.57864,3.8877698 10.49557,7.0686728 10.92651,7.0686728 0.43095,0 4.81438,-2.867369 9.74096,-6.3719301 10.29529,-7.32363592 11.78689,-8.11577177 14.16036,-7.52006949 0.95152,0.23881808 6.08241,3.45780739 11.40195,7.15330949 5.31954,3.6955021 10.00673,6.7224211 10.41597,6.7264891 0.40924,0.0041 5.07006,-3.035294 10.35737,-6.7541328 5.28733,-3.7188397 10.64464,-6.92791812 11.90514,-7.13128554 1.96662,-0.31729154 3.74368,0.64248324 12.52362,6.76393034 5.62749,3.923529 10.56781,7.133689 10.97849,7.133689 0.41067,0 4.84682,-2.885756 9.85811,-6.4127908 5.01129,-3.5270346 9.84011,-6.7504328 10.73072,-7.16310698 2.15565,-0.99884325 5.1689,-0.16550501 7.37364,2.03923808 l 1.79609,1.7960963 V 231.33334 457.99396 l -2.17497,2.17497 c -3.74544,3.74543 -5.72844,3.18093 -17.36288,-4.94275 l -10.19376,-7.11774 -10.17914,7.11774 c -10.38852,7.26414 -12.59904,8.13736 -15.99652,6.31908 -0.82075,-0.43925 -5.50718,-3.62706 -10.41429,-7.08403 -5.18495,-3.6527 -9.29222,-6.06434 -9.80588,-5.75768 -0.48614,0.29024 -5.11046,3.47805 -10.27627,7.08403 -12.11707,8.45827 -11.77435,8.45036 -22.94021,0.53038 -4.67258,-3.31427 -9.22771,-6.50564 -10.12251,-7.09194 -1.52601,-0.99988 -2.26321,-0.62615 -11.8865,6.02595 -7.76826,5.3698 -10.84178,7.09193 -12.65709,7.09193 -1.82632,0 -4.82408,-1.70082 -12.58293,-7.13912 l -10.18543,-7.13912 -4.59718,3.20692 c -2.52845,1.7638 -7.1061,4.9764 -10.17257,7.13912 -7.86795,5.5491 -8.42423,5.47571 -20.01198,-2.64021 -5.16118,-3.61483 -9.79572,-6.81131 -10.29898,-7.10328 -0.52869,-0.30672 -2.5707,0.68621 -4.83646,2.35175 -11.0524,8.12448 -16.34333,11.32394 -18.72631,11.32394 -1.87967,0 -4.77112,-1.63595 -12.60252,-7.13037 l -10.16318,-7.13038 -10.21186,7.13038 c -7.99152,5.58003 -10.75702,7.13037 -12.71911,7.13037 -1.94701,0 -4.61198,-1.46894 -11.92674,-6.57409 -5.18073,-3.61576 -9.831265,-6.81223 -10.334527,-7.10328 -0.527361,-0.30498 -2.576392,0.68987 -4.83646,2.34821 -16.016296,11.75207 -19.285016,13.08311 -23.411805,9.53342 z m 61.393502,-21.23085 c 7.01356,-4.91073 10.23583,-6.73624 11.89044,-6.73624 1.56143,0 4.31916,1.41205 8.83735,4.52501 3.61221,2.48875 8.30335,5.70234 10.42474,7.14129 l 3.85707,2.61628 10.21282,-7.14129 c 7.70208,-5.38565 10.79424,-7.14129 12.57777,-7.14129 1.78655,0 4.86401,1.75331 12.58288,7.16879 l 10.21792,7.16878 5.71431,-3.9688 c 3.14287,-2.18284 7.70659,-5.4088 10.14159,-7.16879 4.54299,-3.28361 7.31446,-3.93711 10.18407,-2.40134 0.82074,0.43926 5.49736,3.62016 10.39249,7.06868 4.89511,3.44851 9.05626,6.27003 9.247,6.27003 0.19074,0 4.91114,-3.1809 10.48978,-7.06867 7.62861,-5.31641 10.72885,-7.06868 12.50641,-7.06868 1.78811,0 4.79834,1.7221 12.36599,7.07436 5.5014,3.8909 10.34517,6.94403 10.76392,6.78474 0.41874,-0.1593 5.07928,-3.34276 10.35676,-7.07436 7.26659,-5.13809 10.17333,-6.78474 11.97666,-6.78474 1.80134,0 4.87021,1.73456 12.60125,7.12235 l 10.21998,7.12233 3.82855,-2.59733 c 2.10569,-1.42853 6.78398,-4.63359 10.39619,-7.12234 4.48775,-3.09199 7.28027,-4.52501 8.81788,-4.52501 1.54205,0 4.27556,1.40923 8.68579,4.47784 l 6.43557,4.47784 0.18732,-209.59205 c 0.10304,-115.27563 0.0567,-209.722644 -0.10288,-209.882259 -0.15962,-0.159615 -3.41805,1.763643 -7.24097,4.273906 -5.54215,3.63917 -7.36498,4.481271 -8.99469,4.155329 -1.12416,-0.224831 -6.36199,-3.432198 -11.63963,-7.127482 -5.27763,-3.695284 -9.96207,-6.718698 -10.40987,-6.718698 -0.44779,0 -4.91383,2.888131 -9.92452,6.418069 -10.21131,7.193679 -12.53195,8.290138 -15.08448,7.127131 -0.93933,-0.427988 -5.79234,-3.650745 -10.78446,-7.16168 -4.99211,-3.510936 -9.42788,-6.38352 -9.85725,-6.38352 -0.42937,0 -4.62224,2.68636 -9.31751,5.969688 -10.63688,7.438215 -12.50709,8.417846 -14.91616,7.81321 -1.0421,-0.261552 -5.9448,-3.35397 -10.8949,-6.872043 -4.95009,-3.518071 -9.50901,-6.531112 -10.13093,-6.695644 -0.62192,-0.164532 -5.14215,2.510811 -10.04496,5.945207 -11.08612,7.76578 -11.93974,8.219267 -14.33827,7.617272 -1.06544,-0.267407 -6.24579,-3.476781 -11.51191,-7.131942 -5.26611,-3.655161 -9.91827,-6.645748 -10.33812,-6.645748 -0.41984,0 -5.02449,2.99171 -10.23255,6.648245 -5.20805,3.656535 -10.33155,6.864685 -11.38555,7.129222 -2.41044,0.604983 -3.99694,-0.234354 -14.68939,-7.771468 -4.68619,-3.303299 -8.888,-6.005999 -9.33734,-6.005999 -0.44935,0 -4.65115,2.7027 -9.33735,6.005999 -10.69245,7.537114 -12.27894,8.376451 -14.68938,7.771468 -1.054,-0.264537 -6.17751,-3.472687 -11.38556,-7.129222 -5.20806,-3.656535 -9.84075,-6.648245 -10.29488,-6.648245 -0.45413,0 -5.1293,3.013297 -10.38928,6.696216 -5.25997,3.682919 -10.54351,6.8922 -11.741194,7.131737 -1.809187,0.361837 -3.303349,-0.330466 -8.831475,-4.091968 -3.659627,-2.490119 -6.907904,-4.527489 -7.218394,-4.527489 -0.310489,0 -0.564526,94.422588 -0.564526,209.827968 0,115.40538 0.19151,209.82796 0.425579,209.82796 0.234067,0 3.304932,-2.00899 6.824143,-4.46442 4.548818,-3.17381 7.080987,-4.46443 8.759166,-4.46443 1.781589,0 4.807306,1.72551 12.335681,7.03478 5.48629,3.86913 10.37456,6.90044 10.86282,6.73625 0.48826,-0.1642 5.21708,-3.32985 10.50849,-7.03479 z"
     id="path2034" /><path
     style="fill:#d9ffc5;fill-opacity:1;stroke-width:0;stroke-linecap:round;stroke-linejoin:round"
     d="M 66.778118,460.54816 64.690431,458.75243 64.50081,232.04763 64.311188,5.3428272 66.844633,2.8093828 c 1.568118,-1.5681187 3.262416,-2.53344421 4.446591,-2.53344421 1.691468,0 9.134329,4.62538291 19.367306,12.03585641 1.596048,1.155819 3.229031,2.101489 3.628851,2.101489 0.399821,0 5.120937,-3.084361 10.491369,-6.8541356 7.79986,-5.4751071 10.28839,-6.85434168 12.36867,-6.85516165 2.07955,-8.1967e-4 4.57877,1.38014185 12.40438,6.85413555 5.39007,3.7703387 10.10824,6.8551617 10.48483,6.8551617 0.37658,0 4.99191,-3.024332 10.25627,-6.7207371 5.26436,-3.6964052 10.36471,-6.91980347 11.33411,-7.16310711 2.39448,-0.60097568 3.77281,0.12392663 14.26114,7.50032441 4.99211,3.5109358 9.41192,6.3835198 9.82177,6.3835198 0.40985,0 5.29423,-3.180903 10.85417,-7.0686728 5.6767,-3.9694169 10.86228,-7.06867261 11.8271,-7.06867261 0.94497,0 5.7506,2.76236281 10.67918,6.13858411 13.65084,9.3512103 11.99798,8.7581563 16.16145,5.7988313 11.1647,-7.9356808 17.57352,-11.93741541 19.11789,-11.93741541 0.99582,0 6.09779,3.03378481 11.88754,7.06867261 5.57864,3.8877698 10.49557,7.0686728 10.92651,7.0686728 0.43095,0 4.81438,-2.867369 9.74096,-6.3719301 10.29529,-7.32363592 11.78689,-8.11577177 14.16036,-7.52006949 0.95152,0.23881808 6.08241,3.45780739 11.40195,7.15330949 5.31954,3.6955021 10.00673,6.7224211 10.41597,6.7264891 0.40924,0.0041 5.07006,-3.035294 10.35737,-6.7541328 5.28733,-3.7188397 10.64464,-6.92791812 11.90514,-7.13128554 1.96662,-0.31729154 3.74368,0.64248324 12.52362,6.76393034 5.62749,3.923529 10.56781,7.133689 10.97849,7.133689 0.41067,0 4.84682,-2.885756 9.85811,-6.4127908 5.01129,-3.5270346 9.84011,-6.7504328 10.73072,-7.16310698 2.15565,-0.99884325 5.1689,-0.16550501 7.37364,2.03923808 l 1.79609,1.7960963 V 231.33334 457.99396 l -2.17497,2.17497 c -3.74544,3.74543 -5.72844,3.18093 -17.36288,-4.94275 l -10.19376,-7.11774 -10.17914,7.11774 c -10.38852,7.26414 -12.59904,8.13736 -15.99652,6.31908 -0.82075,-0.43925 -5.50718,-3.62706 -10.41429,-7.08403 -5.18495,-3.6527 -9.29222,-6.06434 -9.80588,-5.75768 -0.48614,0.29024 -5.11046,3.47805 -10.27627,7.08403 -12.11707,8.45827 -11.77435,8.45036 -22.94021,0.53038 -4.67258,-3.31427 -9.22771,-6.50564 -10.12251,-7.09194 -1.52601,-0.99988 -2.26321,-0.62615 -11.8865,6.02595 -7.76826,5.3698 -10.84178,7.09193 -12.65709,7.09193 -1.82632,0 -4.82408,-1.70082 -12.58293,-7.13912 l -10.18543,-7.13912 -4.59718,3.20692 c -2.52845,1.7638 -7.1061,4.9764 -10.17257,7.13912 -7.86795,5.5491 -8.42423,5.47571 -20.01198,-2.64021 -5.16118,-3.61483 -9.75802,-6.78801 -10.2152,-7.0515 -0.4572,-0.2635 -2.80102,0.90203 -5.2085,2.59007 -13.90946,9.75276 -16.05022,11.03384 -18.43805,11.03384 -1.87967,0 -4.77112,-1.63595 -12.60252,-7.13037 l -10.16318,-7.13038 -10.21186,7.13038 c -7.99152,5.58003 -10.75702,7.13037 -12.71911,7.13037 -1.94701,0 -4.61198,-1.46894 -11.92674,-6.57409 -5.18073,-3.61576 -9.793568,-6.78893 -10.250755,-7.0515 -0.457187,-0.26258 -2.666678,0.80832 -4.909979,2.37975 -17.729704,12.41971 -19.254459,13.0349 -23.422058,9.4501 z m 61.393502,-21.23085 c 7.01356,-4.91073 10.23583,-6.73624 11.89044,-6.73624 1.56143,0 4.31916,1.41205 8.83735,4.52501 3.61221,2.48875 8.30335,5.70234 10.42474,7.14129 l 3.85707,2.61628 10.21282,-7.14129 c 7.70208,-5.38565 10.79424,-7.14129 12.57777,-7.14129 1.78655,0 4.86401,1.75331 12.58288,7.16879 l 10.21792,7.16878 5.71431,-3.9688 c 3.14287,-2.18284 7.70659,-5.4088 10.14159,-7.16879 4.54299,-3.28361 7.31446,-3.93711 10.18407,-2.40134 0.82074,0.43926 5.49736,3.62016 10.39249,7.06868 4.89511,3.44851 9.05626,6.27003 9.247,6.27003 0.19074,0 4.91114,-3.1809 10.48978,-7.06867 7.56147,-5.26962 10.73681,-7.06868 12.47619,-7.06868 1.7452,0 4.86165,1.77751 12.36599,7.05311 5.51803,3.87921 10.37539,6.93234 10.79414,6.78473 0.41874,-0.1476 5.07928,-3.3215 10.35676,-7.0531 7.26659,-5.13809 10.17333,-6.78474 11.97666,-6.78474 1.80134,0 4.87021,1.73456 12.60125,7.12235 l 10.21998,7.12233 3.82855,-2.59733 c 2.10569,-1.42853 6.78398,-4.63359 10.39619,-7.12234 4.48775,-3.09199 7.28027,-4.52501 8.81788,-4.52501 1.54205,0 4.27556,1.40923 8.68579,4.47784 l 6.43557,4.47784 0.18732,-209.59205 c 0.10304,-115.27563 0.0567,-209.722644 -0.10288,-209.882259 -0.15962,-0.159615 -3.41805,1.763643 -7.24097,4.273906 -5.54215,3.63917 -7.36498,4.481271 -8.99469,4.155329 -1.12416,-0.224831 -6.36199,-3.432198 -11.63963,-7.127482 -5.27763,-3.695284 -9.96207,-6.718698 -10.40987,-6.718698 -0.44779,0 -4.91383,2.888131 -9.92452,6.418069 -10.11321,7.124564 -12.5432,8.286135 -14.99276,7.166749 -0.88889,-0.4062 -5.77832,-3.628956 -10.86541,-7.161681 -5.08709,-3.532725 -9.56412,-6.423137 -9.94897,-6.423137 -0.38484,0 -4.54129,2.68636 -9.23656,5.969688 -10.63688,7.438215 -12.50709,8.417846 -14.91616,7.81321 -1.0421,-0.261552 -5.9448,-3.35397 -10.8949,-6.872043 -4.95009,-3.518071 -9.50901,-6.531112 -10.13093,-6.695644 -0.62192,-0.164532 -5.14215,2.510811 -10.04496,5.945207 -11.08612,7.76578 -11.93974,8.219267 -14.33827,7.617272 -1.06544,-0.267407 -6.24579,-3.476781 -11.51191,-7.131942 -5.26611,-3.655161 -9.91827,-6.645748 -10.33812,-6.645748 -0.41984,0 -5.02449,2.99171 -10.23255,6.648245 -5.20805,3.656535 -10.33155,6.864685 -11.38555,7.129222 -2.41044,0.604983 -3.99694,-0.234354 -14.68939,-7.771468 -4.68619,-3.303299 -8.888,-6.005999 -9.33734,-6.005999 -0.44935,0 -4.65115,2.7027 -9.33735,6.005999 -10.69245,7.537114 -12.27894,8.376451 -14.68938,7.771468 -1.054,-0.264537 -6.17751,-3.472687 -11.38556,-7.129222 -5.20806,-3.656535 -9.84075,-6.648245 -10.29488,-6.648245 -0.45413,0 -5.1293,3.013297 -10.38928,6.696216 -5.25997,3.682919 -10.54351,6.8922 -11.741194,7.131737 -1.809187,0.361837 -3.303349,-0.330466 -8.831475,-4.091968 -3.659627,-2.490119 -6.907904,-4.527489 -7.218394,-4.527489 -0.310489,0 -0.564526,94.422588 -0.564526,209.827968 0,115.40538 0.19151,209.82796 0.425579,209.82796 0.234067,0 3.304932,-2.00899 6.824143,-4.46442 4.548818,-3.17381 7.080987,-4.46443 8.759166,-4.46443 1.781589,0 4.807306,1.72551 12.335681,7.03478 5.48629,3.86913 10.37456,6.90044 10.86282,6.73625 0.48826,-0.1642 5.21708,-3.32985 10.50849,-7.03479 z"
     id="path2036" /><path
     style="fill:#d9ffc5;fill-opacity:1;stroke-width:0;stroke-linecap:round;stroke-linejoin:round"
     d="M 66.778118,460.54816 64.690431,458.75243 64.50081,232.04763 64.311188,5.3428272 66.844633,2.8093828 c 1.568118,-1.5681187 3.262416,-2.53344421 4.446591,-2.53344421 1.691468,0 9.134329,4.62538291 19.367306,12.03585641 1.596048,1.155819 3.229031,2.101489 3.628851,2.101489 0.399821,0 5.120937,-3.084361 10.491369,-6.8541356 7.79986,-5.4751071 10.28839,-6.85434168 12.36867,-6.85516165 2.07955,-8.1967e-4 4.57877,1.38014185 12.40438,6.85413555 5.39007,3.7703387 10.08687,6.8551617 10.43732,6.8551617 0.35046,0 4.98087,-3.024665 10.28979,-6.7214782 5.30892,-3.696813 10.43064,-6.92021129 11.38161,-7.16310725 2.35566,-0.60168348 3.75705,0.1371542 14.22763,7.50106565 4.99211,3.5109358 9.39025,6.3835198 9.77362,6.3835198 0.38338,0 5.27232,-3.180903 10.8643,-7.0686728 5.7001,-3.9629325 10.9237,-7.06867261 11.88895,-7.06867261 0.95037,0 6.4324,3.20231181 12.23658,7.14796231 9.18504,6.2439471 10.71546,7.0451031 12.10092,6.3346691 0.87233,-0.447312 5.69964,-3.663895 10.72736,-7.1479624 5.02772,-3.484068 9.9127,-6.33466901 10.85551,-6.33466901 0.95165,0 6.26315,3.14446481 11.94013,7.06867261 5.62426,3.8877698 10.52213,7.0686728 10.88415,7.0686728 0.36202,0 4.74713,-2.880562 9.74469,-6.4012495 10.47919,-7.38239077 11.80341,-8.08239897 14.16721,-7.48912021 0.9551,0.23971469 5.91692,3.33769581 11.02626,6.88440271 5.10934,3.546706 9.70442,6.607695 10.21128,6.802196 0.50686,0.194501 5.35797,-2.727295 10.78024,-6.4928806 5.42228,-3.7655854 10.86878,-7.00946557 12.10333,-7.20862274 1.90594,-0.30746233 3.78863,0.71437084 12.47645,6.77158534 5.62749,3.923529 10.52989,7.133689 10.89421,7.133689 0.36432,0 5.2641,-3.180903 10.88841,-7.0686728 5.62429,-3.8877699 10.8672,-7.06867261 11.65088,-7.06867261 2.06406,0 5.6478,2.01686541 6.53743,3.67913921 0.52063,0.9728248 0.76612,73.9453472 0.76612,227.7352022 v 226.30368 l -2.17497,2.17497 c -3.74544,3.74543 -5.72844,3.18093 -17.36288,-4.94275 l -10.19376,-7.11774 -10.17914,7.11774 c -10.38852,7.26414 -12.59904,8.13736 -15.99652,6.31908 -0.82075,-0.43925 -5.53172,-3.64435 -10.46883,-7.12245 l -8.97655,-6.32381 -3.06155,2.1589 c -20.37751,14.36951 -19.52996,14.12264 -27.99306,8.1538 -3.06647,-2.16272 -7.61953,-5.35807 -10.11793,-7.10079 l -4.54254,-3.16859 -10.2724,7.10079 c -7.77884,5.37713 -10.85437,7.10079 -12.66989,7.10079 -1.82632,0 -4.82408,-1.70082 -12.58293,-7.13912 l -10.18543,-7.13912 -4.59718,3.20692 c -2.52845,1.7638 -7.1061,4.9764 -10.17257,7.13912 -7.85736,5.54162 -8.40928,5.46922 -20.00355,-2.62412 -5.16581,-3.60598 -9.80415,-6.80245 -10.30741,-7.10327 -0.53934,-0.32239 -2.52505,0.63656 -4.83646,2.33565 -11.0524,8.12448 -16.34333,11.32394 -18.72631,11.32394 -1.87967,0 -4.77112,-1.63595 -12.60252,-7.13037 l -10.16318,-7.13038 -10.21186,7.13038 c -7.99152,5.58003 -10.75702,7.13037 -12.71911,7.13037 -1.94701,0 -4.61198,-1.46894 -11.92674,-6.57409 -5.18073,-3.61576 -9.831265,-6.81223 -10.334527,-7.10328 -0.527361,-0.30498 -2.576392,0.68987 -4.83646,2.34821 -16.016296,11.75207 -19.285016,13.08311 -23.411805,9.53342 z m 61.393502,-21.23085 c 7.03597,-4.92643 10.23324,-6.73624 11.90045,-6.73624 2.23668,0 3.97288,1.03832 17.74279,10.61094 l 5.32406,3.70121 10.23397,-7.15608 c 7.71949,-5.39782 10.81504,-7.15607 12.59892,-7.15607 1.78655,0 4.86401,1.75331 12.58288,7.16879 l 10.21792,7.16878 5.71431,-3.9688 c 3.14287,-2.18284 7.70659,-5.4088 10.14159,-7.16879 4.54299,-3.28361 7.31446,-3.93711 10.18407,-2.40134 0.82074,0.43926 5.49736,3.62016 10.39249,7.06868 4.89511,3.44851 9.02899,6.27003 9.18639,6.27003 0.1574,0 4.88785,-3.1809 10.51211,-7.06867 7.65578,-5.29205 10.81882,-7.06868 12.58486,-7.06868 1.76939,0 4.67913,1.64058 11.64289,6.56453 5.10618,3.61049 9.6885,6.81454 10.18293,7.12012 0.54594,0.33741 4.90344,-2.24051 11.09614,-6.56453 7.63424,-5.33056 10.78597,-7.12012 12.53982,-7.12012 1.75253,0 4.91706,1.79412 12.56263,7.12235 l 10.21998,7.12233 3.82855,-2.59733 c 2.10569,-1.42853 6.78398,-4.63359 10.39619,-7.12234 4.48775,-3.09199 7.28027,-4.52501 8.81788,-4.52501 1.54205,0 4.27556,1.40923 8.68579,4.47784 l 6.43557,4.47784 0.18732,-209.59205 c 0.10304,-115.27563 0.0567,-209.722644 -0.10288,-209.882259 -0.15962,-0.159615 -3.41805,1.763643 -7.24097,4.273906 -5.54215,3.63917 -7.36498,4.481271 -8.99469,4.155329 -1.12416,-0.224831 -6.36199,-3.432198 -11.63963,-7.127482 -5.27763,-3.695284 -9.96207,-6.718698 -10.40987,-6.718698 -0.44779,0 -4.91383,2.888131 -9.92452,6.418069 -10.21131,7.193679 -12.53195,8.290138 -15.08448,7.127131 -0.93933,-0.427988 -5.79234,-3.650745 -10.78446,-7.16168 -4.99211,-3.510936 -9.42788,-6.38352 -9.85725,-6.38352 -0.42937,0 -4.62224,2.68636 -9.31751,5.969688 -10.56072,7.384958 -12.51631,8.415532 -14.85517,7.828514 -1.00857,-0.253133 -6.11987,-3.461284 -11.35845,-7.129222 -5.23858,-3.667939 -9.85189,-6.66898 -10.25179,-6.66898 -0.3999,0 -4.71154,2.791074 -9.58141,6.202388 -11.02183,7.720711 -11.88161,8.176859 -14.2784,7.575302 -1.06544,-0.267407 -6.24579,-3.476781 -11.51191,-7.131942 -5.26611,-3.655161 -9.91827,-6.645748 -10.33812,-6.645748 -0.41984,0 -5.06009,3.016709 -10.31167,6.703799 -5.25157,3.687089 -10.52185,6.898504 -11.71171,7.136478 -1.83996,0.367992 -3.54494,-0.524513 -11.40429,-5.969795 -12.90685,-8.942412 -11.95047,-8.607837 -16.14404,-5.647786 -14.78745,10.437793 -17.5213,12.052235 -19.67837,11.620822 -1.18544,-0.237087 -6.47951,-3.44887 -11.76461,-7.137293 -5.28509,-3.688424 -9.95885,-6.706225 -10.38613,-6.706225 -0.42728,0 -5.08048,3.013297 -10.34046,6.696216 -5.25997,3.682919 -10.54351,6.8922 -11.741194,7.131737 -1.809187,0.361837 -3.303349,-0.330466 -8.831475,-4.091968 -3.659627,-2.490119 -6.907904,-4.527489 -7.218394,-4.527489 -0.310489,0 -0.564526,94.422588 -0.564526,209.827968 0,115.40538 0.19151,209.82796 0.425579,209.82796 0.234067,0 3.304932,-2.00899 6.824143,-4.46442 4.548818,-3.17381 7.080987,-4.46443 8.759166,-4.46443 1.781589,0 4.807306,1.72551 12.335681,7.03478 5.48629,3.86913 10.37456,6.90044 10.86282,6.73625 0.48826,-0.1642 5.21708,-3.32985 10.50849,-7.03479 z"
     id="path2038" /><path
     style="fill:#d9ffc5;fill-opacity:1;stroke-width:0;stroke-linecap:round;stroke-linejoin:round"
     d="M 66.778118,460.54816 64.690431,458.75243 64.50081,232.04763 64.311188,5.3428272 66.844633,2.8093828 c 1.568118,-1.5681187 3.262416,-2.53344421 4.446591,-2.53344421 1.691468,0 9.134329,4.62538291 19.367306,12.03585641 1.596048,1.155819 3.229031,2.101489 3.628851,2.101489 0.399821,0 5.120937,-3.084361 10.491369,-6.8541356 7.78851,-5.467145 10.29396,-6.85648431 12.38123,-6.86574405 2.10885,-0.009355 4.53389,1.33436385 12.49292,6.92233285 5.72786,4.0214888 10.32669,6.7610378 10.94885,6.5222938 0.59001,-0.226406 4.92376,-3.107756 9.63056,-6.4029984 9.9445,-6.9621687 11.57269,-7.803824 13.94481,-7.20845912 0.96312,0.24172718 6.03015,3.46512532 11.26007,7.16310722 5.22992,3.6979813 9.8268,6.7236033 10.21529,6.7236033 0.38849,0 5.28161,-3.180903 10.87359,-7.0686728 5.65585,-3.9321672 10.92649,-7.06867261 11.87835,-7.06867261 0.94111,0 5.75288,2.76236281 10.69285,6.13858411 13.63994,9.3222273 12.01032,8.6974483 15.74953,6.0381763 10.86345,-7.7259249 17.98507,-12.17676041 19.48359,-12.17676041 0.95797,0 6.24707,3.12989141 11.94513,7.06867261 5.62426,3.8877698 10.52213,7.0686728 10.88415,7.0686728 0.36202,0 4.74713,-2.880562 9.74469,-6.4012495 10.47424,-7.37890107 11.80391,-8.08227158 14.16072,-7.49075009 0.95152,0.23881808 6.08241,3.46760059 11.40195,7.17507209 5.31954,3.7074715 10.18651,6.6180605 10.81548,6.4679745 0.62898,-0.150085 5.24777,-3.192417 10.26398,-6.7607373 5.21105,-3.7069196 10.14278,-6.65284456 11.50561,-6.8727715 2.0868,-0.33675605 3.66543,0.5076436 12.61703,6.7487728 5.62749,3.923529 10.56781,7.133689 10.97849,7.133689 0.41067,0 4.84682,-2.885756 9.85811,-6.4127908 5.01129,-3.5270346 9.84011,-6.7504328 10.73072,-7.16310698 2.15565,-0.99884325 5.1689,-0.16550501 7.37364,2.03923808 l 1.79609,1.7960963 V 231.33334 457.99396 l -2.17497,2.17497 c -3.74544,3.74543 -5.72844,3.18093 -17.36288,-4.94275 l -10.19376,-7.11774 -10.17914,7.11774 c -10.38852,7.26414 -12.59904,8.13736 -15.99652,6.31908 -0.82075,-0.43925 -5.50567,-3.626 -10.41093,-7.08166 -5.58137,-3.93197 -9.26487,-6.06934 -9.84389,-5.71198 -0.50889,0.31407 -5.14457,3.50082 -10.30151,7.08167 -11.5667,8.03158 -12.11179,8.10206 -19.94366,2.57841 -3.06647,-2.16272 -7.6152,-5.35503 -10.1083,-7.09404 l -4.53291,-3.16183 -10.26269,7.09404 c -7.79097,5.38547 -10.84238,7.09403 -12.66955,7.09403 -1.83309,0 -4.8349,-1.69212 -12.59238,-7.09833 l -10.18555,-7.09833 -10.16597,7.09833 c -8.00474,5.58927 -10.70477,7.09833 -12.70033,7.09833 -1.98072,0 -4.58613,-1.43223 -11.92674,-6.55632 -5.16581,-3.60598 -9.80415,-6.80245 -10.30741,-7.10327 -0.53934,-0.32239 -2.52505,0.63656 -4.83646,2.33565 -11.05665,8.1276 -16.34302,11.32394 -18.72846,11.32394 -1.87973,0 -4.78364,-1.63773 -12.62063,-7.11772 l -10.17914,-7.11774 -10.19376,7.11774 c -7.97608,5.56925 -10.7392,7.11772 -12.70099,7.11772 -1.94701,0 -4.61198,-1.46894 -11.92674,-6.57409 -5.18073,-3.61576 -9.831265,-6.81223 -10.334527,-7.10328 -0.527361,-0.30498 -2.576392,0.68987 -4.83646,2.34821 -16.016296,11.75207 -19.285016,13.08311 -23.411805,9.53342 z m 61.393502,-21.23085 c 7.09241,-4.96594 10.22659,-6.73624 11.92605,-6.73624 2.17481,0 6.25228,2.47361 19.54869,11.85924 l 3.43521,2.42485 10.27277,-7.14205 c 7.71184,-5.36156 10.86037,-7.14204 12.62976,-7.14204 1.77348,0 4.88541,1.768 12.57024,7.14159 l 10.21326,7.1416 4.60071,-3.20938 c 2.53039,-1.76517 7.10963,-4.97888 10.1761,-7.1416 5.74357,-4.05082 8.26628,-4.73068 11.40113,-3.07257 0.89388,0.4728 5.56057,3.6537 10.37041,7.06868 4.80984,3.41496 8.87515,6.20903 9.03403,6.20903 0.15887,0 4.89056,-3.1809 10.51486,-7.06867 7.69856,-5.3216 10.81381,-7.06868 12.60426,-7.06868 1.79954,0 4.71317,1.65098 11.97365,6.78474 5.27747,3.7316 9.93801,6.91149 10.35676,7.06642 0.41875,0.15492 5.25658,-2.89821 10.75073,-6.78474 7.58555,-5.36596 10.56128,-7.06642 12.366,-7.06642 1.79546,0 4.87569,1.74162 12.5966,7.12235 l 10.21998,7.12233 3.82855,-2.59733 c 2.10569,-1.42853 6.78398,-4.63359 10.39619,-7.12234 4.48775,-3.09199 7.28027,-4.52501 8.81788,-4.52501 1.54205,0 4.27556,1.40923 8.68579,4.47784 l 6.43557,4.47784 0.18732,-209.59205 c 0.10304,-115.27563 0.0567,-209.722644 -0.10288,-209.882259 -0.15962,-0.159615 -3.41805,1.763643 -7.24097,4.273906 -5.54215,3.63917 -7.36498,4.481271 -8.99469,4.155329 -1.12416,-0.224831 -6.36199,-3.432198 -11.63963,-7.127482 -5.27763,-3.695284 -9.96207,-6.718698 -10.40987,-6.718698 -0.44779,0 -4.91383,2.888131 -9.92452,6.418069 -10.21131,7.193679 -12.53195,8.290138 -15.08448,7.127131 -0.93933,-0.427988 -5.79234,-3.650745 -10.78446,-7.16168 -4.99211,-3.510936 -9.42788,-6.38352 -9.85725,-6.38352 -0.42937,0 -4.62224,2.68636 -9.31751,5.969688 -10.63688,7.438215 -12.50709,8.417846 -14.91616,7.81321 -1.0421,-0.261552 -5.9448,-3.35397 -10.8949,-6.872043 -4.95009,-3.518071 -9.50901,-6.531112 -10.13093,-6.695644 -0.62192,-0.164532 -5.14215,2.510811 -10.04496,5.945207 -11.12137,7.790472 -11.93412,8.220675 -14.37385,7.608341 -1.08501,-0.272318 -6.27326,-3.481692 -11.52945,-7.131942 -5.2562,-3.650249 -9.89234,-6.636817 -10.30253,-6.636817 -0.4102,0 -5.04256,3.016709 -10.29414,6.703799 -5.25157,3.687089 -10.52266,6.898667 -11.71352,7.136839 -1.83531,0.367062 -3.54589,-0.512638 -11.227,-5.773709 -13.7649,-9.42808 -12.09706,-8.824555 -16.26218,-5.884655 -14.85193,10.48308 -17.57668,12.09305 -19.73571,11.661244 -1.18544,-0.237087 -6.47951,-3.44887 -11.76461,-7.137293 -5.28509,-3.688424 -9.95885,-6.706225 -10.38613,-6.706225 -0.42728,0 -5.08048,3.013297 -10.34046,6.696216 -5.25997,3.682919 -10.54351,6.8922 -11.741194,7.131737 -1.809187,0.361837 -3.303349,-0.330466 -8.831475,-4.091968 -3.659627,-2.490119 -6.907904,-4.527489 -7.218394,-4.527489 -0.310489,0 -0.564526,94.422588 -0.564526,209.827968 0,115.40538 0.168664,209.82796 0.374809,209.82796 0.206146,0 3.272907,-2.00899 6.815026,-4.46442 4.578521,-3.17388 7.125239,-4.46443 8.809936,-4.46443 1.793102,0 4.796921,1.71175 12.344798,7.03478 5.48629,3.86913 10.37456,6.90044 10.86282,6.73625 0.48826,-0.1642 5.21708,-3.32985 10.50849,-7.03479 z"
     id="path2040" /><path
     style="fill:#32516b;fill-opacity:1;stroke-width:0;stroke-linecap:round;stroke-linejoin:round"
     d="M 66.778118,460.54816 64.690431,458.75243 64.50081,232.04763 64.311188,5.3428272 66.844633,2.8093828 c 1.568118,-1.5681187 3.262416,-2.53344421 4.446591,-2.53344421 1.691468,0 9.134329,4.62538291 19.367306,12.03585641 1.596048,1.155819 3.229031,2.101489 3.628851,2.101489 0.399821,0 5.120937,-3.084361 10.491369,-6.8541356 7.78851,-5.467145 10.29396,-6.85648431 12.38123,-6.86574405 2.10701,-0.009347 4.52191,1.32595235 12.39578,6.85413505 5.37844,3.7761596 10.07106,6.8657446 10.42805,6.8657446 0.35698,0 4.97847,-3.024911 10.26998,-6.7220229 5.29151,-3.6971129 10.41176,-6.92051111 11.37834,-7.16310736 2.41772,-0.60680928 4.20786,0.33502889 14.41655,7.58491816 4.87929,3.4651171 9.19189,6.3002121 9.58355,6.3002121 0.39167,0 5.27646,-3.180903 10.8551,-7.0686728 5.78187,-4.0294041 10.89223,-7.06867261 11.88558,-7.06867261 0.96081,0 5.77214,2.75398741 10.72436,6.13858411 13.38957,9.1511053 12.20187,8.5998583 14.64484,6.7971393 8.34829,-6.1603635 19.13661,-12.93572341 20.5974,-12.93572341 1.0087,0 6.06717,3.00533061 11.89774,7.06867261 5.57864,3.8877698 10.49557,7.0686728 10.92651,7.0686728 0.43095,0 4.81438,-2.867369 9.74096,-6.3719301 10.29529,-7.32363592 11.78689,-8.11577177 14.16036,-7.52006949 0.95152,0.23881808 6.08241,3.45780739 11.40195,7.15330949 5.31954,3.6955021 10.00673,6.7224211 10.41597,6.7264891 0.40924,0.0041 5.07006,-3.035294 10.35737,-6.7541328 5.28733,-3.7188397 10.64464,-6.92791812 11.90514,-7.13128554 1.96662,-0.31729154 3.74368,0.64248324 12.52362,6.76393034 5.62749,3.923529 10.56781,7.133689 10.97849,7.133689 0.41067,0 4.84682,-2.885756 9.85811,-6.4127908 5.01129,-3.5270346 9.84011,-6.7504328 10.73072,-7.16310698 2.15565,-0.99884325 5.1689,-0.16550501 7.37364,2.03923808 l 1.79609,1.7960963 V 231.33334 457.99396 l -2.17497,2.17497 c -3.7725,3.77249 -5.80084,3.19624 -17.4041,-4.94448 l -10.14761,-7.11946 -10.1816,7.11946 c -10.39106,7.26592 -12.60138,8.13916 -15.99899,6.32081 -0.82075,-0.43925 -5.50567,-3.626 -10.41093,-7.08166 -5.58137,-3.93197 -9.26487,-6.06934 -9.84389,-5.71198 -0.50889,0.31407 -5.14457,3.50082 -10.30151,7.08167 -11.5667,8.03158 -12.11179,8.10206 -19.94366,2.57841 -3.06647,-2.16272 -7.62808,-5.36407 -10.13692,-7.11411 l -4.56153,-3.18191 -8.96471,6.31547 c -4.9306,3.47351 -9.63624,6.67486 -10.45699,7.11411 -3.41214,1.82612 -5.64203,0.95064 -16.04568,-6.29969 l -10.18555,-7.09833 -10.16597,7.09833 c -8.02078,5.60047 -10.70254,7.09833 -12.70876,7.09833 -1.99416,0 -4.56739,-1.41802 -11.92674,-6.57241 -5.16118,-3.61483 -9.79572,-6.81131 -10.29898,-7.10328 -0.52869,-0.30672 -2.5707,0.68621 -4.83646,2.35175 -11.05665,8.1276 -16.34302,11.32394 -18.72846,11.32394 -1.87973,0 -4.78364,-1.63773 -12.62063,-7.11772 l -10.17914,-7.11774 -10.19376,7.11774 c -7.97608,5.56925 -10.7392,7.11772 -12.70099,7.11772 -1.94701,0 -4.61198,-1.46894 -11.92674,-6.57409 -5.18073,-3.61576 -9.831265,-6.81223 -10.334527,-7.10328 -0.527561,-0.3051 -2.575538,0.69145 -4.83646,2.35343 -16.105801,11.83917 -19.241485,13.11534 -23.411805,9.5282 z m 61.393502,-21.23085 c 7.09241,-4.96594 10.22659,-6.73624 11.92605,-6.73624 2.17465,0 6.25264,2.47385 19.54521,11.85679 l 3.43175,2.4224 10.24474,-7.1396 c 7.76719,-5.41297 10.82237,-7.13959 12.63322,-7.13959 1.8133,0 4.84803,1.71983 12.60175,7.14159 l 10.21326,7.1416 4.60071,-3.20938 c 2.53039,-1.76517 7.10963,-4.97888 10.1761,-7.1416 5.74357,-4.05082 8.26628,-4.73068 11.40113,-3.07257 0.89388,0.4728 5.56057,3.6537 10.37041,7.06868 4.80984,3.41496 8.92966,6.20903 9.15516,6.20903 0.22549,0 4.34721,-2.80077 9.15937,-6.22393 4.81215,-3.42317 9.45965,-6.60407 10.32778,-7.06867 3.46858,-1.85633 5.63236,-1.02629 15.48449,5.93999 5.27747,3.7316 9.93801,6.91149 10.35676,7.06642 0.41875,0.15492 5.25658,-2.89821 10.75073,-6.78474 7.58555,-5.36596 10.56128,-7.06642 12.366,-7.06642 1.79546,0 4.87569,1.74162 12.5966,7.12235 l 10.21998,7.12233 3.82855,-2.59733 c 2.10569,-1.42853 6.78398,-4.63359 10.39619,-7.12234 4.48775,-3.09199 7.28027,-4.52501 8.81788,-4.52501 1.54205,0 4.27556,1.40923 8.68579,4.47784 l 6.43557,4.47784 0.18732,-209.59205 c 0.10304,-115.27563 0.0567,-209.722644 -0.10288,-209.882259 -0.15962,-0.159615 -3.41805,1.763643 -7.24097,4.273906 -5.54215,3.63917 -7.36498,4.481271 -8.99469,4.155329 -1.12416,-0.224831 -6.36199,-3.432198 -11.63963,-7.127482 -5.27763,-3.695284 -9.96207,-6.718698 -10.40987,-6.718698 -0.44779,0 -4.89256,2.873148 -9.87725,6.384773 -9.76065,6.876191 -12.02894,8.048138 -14.41702,7.448768 -0.84661,-0.212484 -5.81831,-3.411956 -11.04823,-7.109938 -5.22991,-3.697981 -9.86442,-6.723603 -10.2989,-6.723603 -0.43449,0 -4.63155,2.68636 -9.32682,5.969688 -10.63688,7.438215 -12.50709,8.417846 -14.91616,7.81321 -1.0421,-0.261552 -5.9448,-3.35397 -10.8949,-6.872043 -4.95009,-3.518071 -9.50901,-6.531112 -10.13093,-6.695644 -0.62192,-0.164532 -5.14215,2.510811 -10.04496,5.945207 -11.12137,7.790472 -11.93412,8.220675 -14.37385,7.608341 -1.08501,-0.272318 -6.27326,-3.481692 -11.52945,-7.131942 -5.2562,-3.650249 -9.89234,-6.636817 -10.30253,-6.636817 -0.4102,0 -5.04256,3.016709 -10.29414,6.703799 -5.25157,3.687089 -10.52266,6.898667 -11.71352,7.136839 -1.83531,0.367062 -3.54589,-0.512638 -11.227,-5.773709 -13.7649,-9.42808 -12.09706,-8.824555 -16.26218,-5.884655 -14.9643,10.562392 -17.56693,12.095 -19.78575,11.651235 -1.21297,-0.242593 -6.509,-3.454374 -11.76898,-7.137293 -5.25997,-3.682919 -9.91121,-6.696216 -10.33609,-6.696216 -0.42487,0 -5.07611,3.013297 -10.33609,6.696216 -5.25997,3.682919 -10.54351,6.8922 -11.741194,7.131737 -1.809187,0.361837 -3.303349,-0.330466 -8.831475,-4.091968 -3.659627,-2.490119 -6.907904,-4.527489 -7.218394,-4.527489 -0.310489,0 -0.564526,94.422588 -0.564526,209.827968 0,115.40538 0.168664,209.82796 0.374809,209.82796 0.206146,0 3.272907,-2.00899 6.815026,-4.46442 4.578521,-3.17388 7.125239,-4.46443 8.809936,-4.46443 1.793102,0 4.796921,1.71175 12.344798,7.03478 5.48629,3.86913 10.37456,6.90044 10.86282,6.73625 0.48826,-0.1642 5.21708,-3.32985 10.50849,-7.03479 z"
     id="path2042" /></g></svg>
