<?xml version="1.0" encoding="utf-8"?>
<!-- Generator: Adobe Illustrator 19.2.1, SVG Export Plug-In . SVG Version: 6.00 Build 0)  -->
<svg version="1.1" id="Isolation_Mode" xmlns="http://www.w3.org/2000/svg" xmlns:xlink="http://www.w3.org/1999/xlink" x="0px"
	 y="0px" viewBox="0 0 125.7 87.8" style="enable-background:new 0 0 125.7 87.8;" xml:space="preserve">
<style type="text/css">
	.st0{fill:#FFFFFF;}
	.st1{fill:#305529;}
	.st2{fill-rule:evenodd;clip-rule:evenodd;}
	.st3{fill-rule:evenodd;clip-rule:evenodd;fill:#58595B;}
	.st4{fill-rule:evenodd;clip-rule:evenodd;fill:#F68A3B;}
	.st5{fill-rule:evenodd;clip-rule:evenodd;fill:#733D14;}
	.st6{fill-rule:evenodd;clip-rule:evenodd;fill:#FFFFFF;}
	.st7{fill-rule:evenodd;clip-rule:evenodd;fill:#8F6653;}
	.st8{fill-rule:evenodd;clip-rule:evenodd;fill:#5C3E30;}
	.st9{fill-rule:evenodd;clip-rule:evenodd;fill:#DF772B;}
</style>
<g>
	<g>
		<g>
			<path class="st0" d="M91.7,74.6c-0.4,0-0.7-0.3-0.7-0.7l-0.3-5.2c0-0.4,0.3-0.7,0.7-0.8c0.6-0.1,1.1-0.3,1.2-0.5
				c0.2-0.4,0.4-1,0.5-1.7l0.1-0.3l0.1-0.6l0.1-0.4c0-0.2,0.1-0.5,0.1-0.8c0-0.3,0-0.6,0-1c0,0,0-0.4,0-0.4c-0.1,0-0.1,0-0.2,0
				c0,0-0.8,0-0.8,0c-0.4,0-0.7-0.3-0.7-0.7c0-0.7-0.1-1.5-0.1-2.2c0-0.2,0.1-0.4,0.2-0.6c0.1-0.2,0.3-0.2,0.5-0.2
				c4.9-0.1,9.6-0.7,14.1-1.7c0.1,0,0.1,0,0.2,0c0.2,0,0.3,0.1,0.4,0.1c0.2,0.1,0.3,0.3,0.3,0.6l0.1,2.2c0,0.4-0.2,0.7-0.6,0.8
				l-0.6,0.1c-0.1,0-0.1,0-0.2,0.1c0,0,0,0,0,0c0.1,2,0.3,4.7,0.4,5.6c0,0,0.6-0.1,0.7-0.2c0.1,0,0.1,0,0.2,0c0.2,0,0.3,0,0.4,0.1
				c0.2,0.1,0.3,0.3,0.3,0.6l0.3,5.2c0,0.4-0.2,0.7-0.6,0.8c-0.9,0.2-1.9,0.4-2.8,0.6c0,0-0.1,0-0.1,0c-0.2,0-0.3-0.1-0.4-0.1
				c-0.2-0.1-0.3-0.3-0.3-0.5c0-0.1,0-0.3-0.1-0.3l-0.1-0.3c0,0,0-0.1,0-0.1c0,0-0.1-0.6-0.1-0.6l0-0.2c0,0,0-0.1,0-0.1
				c0,0,0-0.1,0-0.1c-0.1,0-0.1,0-0.1,0L103,71c-2.4,0.4-4.9,0.7-7.4,0.8l-0.1,0c0,0,0,0,0,0.1c-0.1,0.6-0.2,1.1-0.2,1.7l0,0.3
				c0,0.4-0.4,0.6-0.7,0.6C93.6,74.6,92.7,74.6,91.7,74.6z M98.4,63.9l0,0.3l0,0v0.3l0,0.4l0,0l0,0.6c0,0.1,0,0.3,0,0.5l0,0.3l0,0.2
				l0,0.1l0,0.4c0,0.3-0.1,0.5-0.1,0.8c0.7-0.1,1.3-0.1,2-0.2c-0.1-1.7-0.4-5.7-0.4-5.7c-0.4,0-0.8,0.1-1.2,0.1c0,0.2,0,0.3,0,0.5
				l0,0.3c0,0.2,0,0.4,0,0.7c0,0,0,0.1,0,0.1L98.4,63.9z M2.4,72c-0.1,0-0.3,0-0.4-0.1c-0.2-0.1-0.4-0.4-0.4-0.6
				c0-0.7-0.1-1.4-0.1-2.1c0-0.3,0.1-0.7,0.4-0.8c0.2-0.1,0.4-0.2,0.6-0.3c0.2-0.1,0.3-0.2,0.4-0.2c0,0,0-0.1,0-0.1l-0.1-1.7
				c-0.1-1.3-0.2-2.7-0.3-4c-0.1,0.1-0.3,0.1-0.4,0.2c-0.1,0.1-0.2,0.1-0.3,0.1c-0.1,0-0.3,0-0.4-0.1C1.2,62,1,61.7,1,61.5l-0.1-2.2
				c0-0.3,0.1-0.6,0.4-0.7c2-1,4-2,6.1-2.8c0.1,0,0.2-0.1,0.3-0.1c0.2,0,0.4,0.1,0.6,0.3c0.8,1,1.5,1.9,2.3,2.9
				c0.6-1.6,1.2-3.1,1.8-4.6c0.1-0.2,0.3-0.4,0.5-0.4c2.2-0.6,4.4-1.1,6.6-1.5c0,0,0.1,0,0.1,0c0.2,0,0.3,0.1,0.5,0.2
				c0.2,0.1,0.3,0.3,0.3,0.5l0.1,1c0,0.4,0.1,0.8,0.1,1.2c0,0.4-0.2,0.7-0.6,0.8l-0.6,0.1c-0.1,0-0.1,0-0.1,0l0,0.1
				c0,0,0.3,4.9,0.4,6c0,0,0.1,0,0.1,0c0.2,0,0.4-0.1,0.6-0.1c0,0,0.1,0,0.1,0c0.2,0,0.3,0.1,0.5,0.2c0.2,0.1,0.3,0.3,0.3,0.5l0,0.4
				c0,0.6,0.1,1.2,0.1,1.8c0,0.4-0.2,0.7-0.6,0.8c-2.4,0.4-4.9,1-7.2,1.7c-0.1,0-0.1,0-0.2,0c-0.2,0-0.3,0-0.4-0.1
				c-0.2-0.1-0.3-0.3-0.3-0.6L12.3,65c-0.1,0.3-0.2,0.5-0.3,0.8c-0.1,0.2-0.2,0.4-0.5,0.4c-0.6,0.2-1.3,0.5-2,0.7
				c-0.1,0-0.2,0-0.3,0c-0.2,0-0.4-0.1-0.6-0.3c-0.6-0.8-1.2-1.5-1.9-2.3L6.9,66l0.2-0.1c0.1,0,0.2-0.1,0.3-0.1c0.1,0,0.3,0,0.4,0.1
				c0.2,0.1,0.3,0.3,0.4,0.6c0,0.4,0.1,2.2,0.1,2.2c0,0.3-0.2,0.6-0.5,0.7c-1.7,0.7-3.4,1.5-5.1,2.4C2.6,71.9,2.5,72,2.4,72z
				 M12.7,63.9C12.7,63.9,12.8,63.9,12.7,63.9l0.5-0.2c0.1,0,0.2-0.1,0.2-0.1c0,0-0.1-0.9-0.1-1.4C13.1,62.9,12.9,63.4,12.7,63.9z
				 M88.7,71.8c-4-0.1-8.2-0.5-12.9-1.2c-0.3-0.1-0.6-0.3-0.6-0.7c0,0-0.1-1.8-0.1-2.2c0-0.2,0.1-0.4,0.2-0.6
				c0.1-0.1,0.3-0.2,0.5-0.2c0,0,0.1,0,0.1,0c0.2,0,0.5,0.1,0.7,0.1l0.1,0c0,0-0.4-6.1-0.4-6.1c0,0-0.1,0-0.2,0l-0.9-0.1
				c-0.4,0-0.6-0.3-0.6-0.7l-0.1-2.2c0-0.2,0.1-0.4,0.2-0.6c0.1-0.1,0.3-0.2,0.5-0.2c0,0,0.1,0,0.1,0c4.6,0.7,8.7,1.1,12.5,1.2
				c0.4,0,0.7,0.3,0.7,0.7l0.1,1.4c0,0.8,0.1,1.5,0.1,2.3c0,0.2-0.1,0.4-0.2,0.6c-0.1,0.1-0.3,0.2-0.5,0.2c0,0,0,0,0,0
				c-0.8,0-1.5-0.1-2.3-0.1c0,0.1,0,0.1,0,0.2c0,0.5,0.2,2.4,0.2,2.4c0,0.2,0,0.4-0.1,0.5c0.9,0,1.8,0.1,2.8,0.1
				c0.4,0,0.7,0.3,0.7,0.7c0.1,1.2,0.2,2.5,0.2,3.7c0,0.2-0.1,0.4-0.2,0.6C89.1,71.7,88.9,71.8,88.7,71.8
				C88.7,71.8,88.7,71.8,88.7,71.8z M82.9,67.6c0.4,0,0.7,0.1,1.1,0.1c0.1,0,0.3,0,0.4,0c0.1,0,0.2,0,0.3,0l0.1-0.1l0-0.1l0-0.1
				l0-0.1c0-0.1,0.1-0.3,0.1-0.4c-0.7,0-1.4-0.1-2.1-0.2C82.8,66.9,82.9,67.3,82.9,67.6z M82.6,62.7c0.6,0,1.2,0.1,1.8,0.1
				c0,0-0.1-0.2-0.1-0.2s-0.1-0.3-0.1-0.3c0,0,0-0.1,0-0.1l0-0.1c0,0,0,0,0,0c-0.1,0-0.3,0-0.5-0.1c0,0-0.1,0-0.1,0
				c-0.3,0-0.6,0-1-0.1C82.5,62.2,82.5,62.4,82.6,62.7z M55.4,69.5c0,0-0.1,0-0.1,0c-0.4-0.1-0.8-0.1-1.2-0.1c-0.5,0-0.9,0-1.4-0.1
				C52.3,69.3,52,69,52,68.7l0-0.2c0-0.1,0-0.1,0-0.2L51.8,68c0-0.1,0-0.1,0-0.2c0,0-0.2-0.8-0.2-0.8c0,0,0-0.1,0-0.1c0,0,0,0,0,0
				c-0.1-0.3-0.1-0.3-0.1-0.3c0,0-0.1,0-0.3-0.1l-0.2,0l-0.2,0c-2.4-0.4-4.9-0.7-7.3-1l0,0c-0.1,0.6-0.2,1.3-0.3,1.9
				c-0.1,0.4-0.4,0.6-0.7,0.6c0,0-0.1,0-0.1,0c-0.9-0.1-1.9-0.2-2.8-0.2c-0.4,0-0.7-0.3-0.7-0.7c-0.1-1.4-0.2-2.7-0.3-4.1l-0.1-1.1
				c0-0.2,0.1-0.4,0.2-0.5c0.1-0.1,0.3-0.2,0.5-0.2c0.6,0,1.1-0.2,1.2-0.4c0.2-0.4,0.4-0.9,0.5-1.6l0-0.3l0.1-0.6l0.1-0.4l0-0.1
				c0-0.2,0-0.5,0.1-0.7c0-0.3,0-0.7,0-1c0,0,0-0.5,0-0.5c-0.1,0-0.3,0-0.6-0.1l-0.4,0c-0.4,0-0.7-0.3-0.7-0.7c0-0.5-0.1-1-0.1-1.5
				l0-0.7c0-0.2,0.1-0.4,0.2-0.6c0.1-0.1,0.3-0.2,0.5-0.2c0,0,0,0,0.1,0c5.2,0.4,10.5,1.3,14.4,2c0.3,0.1,0.6,0.3,0.6,0.7l0.1,2.2
				c0,0.2-0.1,0.5-0.3,0.6c-0.1,0.1-0.3,0.2-0.5,0.2c0,0-0.1,0-0.1,0c-0.2,0-0.3-0.1-0.5-0.1l0.4,5.6c0,0,0,0.1,0,0.1
				c0.1,0,0.1,0,0.3,0.1l0.2,0c0.2,0,0.4,0.1,0.6,0.1c0.3,0.1,0.6,0.3,0.6,0.7c0.1,0.9,0.1,1.7,0.1,2.5c0,0.8,0,1.6,0.1,2.5
				c0,0.2-0.1,0.5-0.2,0.6C55.8,69.4,55.6,69.5,55.4,69.5z M45.9,61.7c0.7,0.1,1.4,0.2,2.1,0.3l-0.4-5.7c-0.4-0.1-0.8-0.1-1.2-0.2
				c0,0.1,0,0.2,0,0.3c0,0.3,0,0.7,0,1c0,0,0,0.1,0,0.1l0,0.3l0,0.4l0,0.3l0,0.3l0,0.1l0,0.6c0,0.2,0,0.5-0.1,0.8l0,0.1l0,0.1
				c0,0.1,0,0.1,0,0.2l0,0.2l0,0.1C46.1,61.1,46,61.4,45.9,61.7C45.9,61.7,45.9,61.7,45.9,61.7z M70.6,69.4c-1.7,0-3.7-0.2-6.3-0.7
				l-0.1,0l-0.2,0l-5.7-1.1c-0.3-0.1-0.6-0.3-0.6-0.7l0-0.2c0-0.7-0.1-1.3-0.1-2c0-0.2,0.1-0.5,0.2-0.6c0.1-0.1,0.3-0.2,0.5-0.2
				c0,0,0.1,0,0.1,0c0.2,0,0.7,0.1,0.7,0.1s-0.4-6-0.4-6.1c-0.1,0-0.1,0-0.2-0.1c0,0,0,0-0.1,0c-0.2,0-0.4-0.1-0.5-0.1l-0.3-0.1
				c-0.3-0.1-0.6-0.3-0.6-0.7L57,54.8c0-0.2,0.1-0.5,0.3-0.6c0.1-0.1,0.3-0.2,0.5-0.2c0,0,0.1,0,0.1,0c1.3,0.2,2.6,0.5,3.9,0.8
				l2.5,0.5c0,0,0.1,0,0.1,0c2.1,0.4,3.8,0.8,5.4,1.4c1.8,0.6,2.9,1.9,3,3.7c0,1-0.3,1.8-1.1,2.3c-0.1,0-0.1,0.1-0.2,0.1
				c0.3,0.2,0.6,0.4,0.9,0.7c0.8,0.7,1.2,1.6,1.3,2.7c0.1,1-0.2,1.9-0.7,2.4C72.4,69.1,71.6,69.4,70.6,69.4
				C70.6,69.4,70.6,69.4,70.6,69.4z M65.5,65c0.3,0.1,0.6,0.1,0.9,0.1c0.1,0,0.3,0,0.4,0c0,0,0-0.1,0-0.2c0-0.2-0.1-0.3-0.1-0.3
				c-0.2-0.2-0.5-0.3-0.7-0.4l-0.5-0.1C65.5,64.4,65.5,64.7,65.5,65z M65.4,60.2l0.3,0c0.1,0,0.2,0,0.4,0c0.1,0,0.2,0,0.2,0
				c0,0,0,0,0,0c0-0.3-0.1-0.4-0.2-0.4c-0.2-0.1-0.4-0.3-0.6-0.3l-0.4-0.1c0,0.3,0,0.5,0.1,0.8L65.4,60.2z M110.3,69.3
				c-0.2,0-0.3,0-0.4-0.1c-0.2-0.1-0.3-0.3-0.3-0.6l-0.1-0.8c0-0.5-0.1-0.9-0.1-1.4c0-0.3,0.2-0.7,0.5-0.8l0.8-0.2c0,0,0.1,0,0.1,0
				c0,0,0.1,0,0.1,0c0,0-0.4-6-0.4-6l-0.7,0.2c-0.1,0-0.1,0-0.2,0c-0.2,0-0.3,0-0.4-0.1c-0.2-0.1-0.3-0.3-0.3-0.6l-0.1-2.2
				c0-0.4,0.2-0.7,0.6-0.8c2.6-0.7,5.3-1.6,7.8-2.6c0.1,0,0.2-0.1,0.3-0.1c0.1,0,0.3,0,0.4,0.1c0.2,0.1,0.3,0.3,0.4,0.6
				c0,0.4,0.1,2.2,0.1,2.2c0,0.3-0.2,0.6-0.5,0.7l-0.8,0.3c0,0,0,0-0.1,0c-0.1,0-0.2,0.1-0.2,0.1c0,0,0,0.1,0,0.1l0,0.6l1-0.4
				c0.5-0.2,1.1-0.4,1.7-0.6c0.9-0.3,1.7-0.4,2.5-0.4c0.2,0,0.5,0,0.7,0c0.7,0.1,2,0.5,2.1,2.7c0.1,1.7-0.7,3.3-2.3,4.7
				c-1.5,1.3-3.3,2.3-5.2,3c-2.4,0.9-4.7,1.6-6.8,2.2C110.4,69.3,110.3,69.3,110.3,69.3z M117.1,63.1c0.4-0.2,0.6-0.3,0.6-0.4
				c0.3-0.3,0.3-0.4,0.3-0.4l0.1-0.2v-0.2c0-0.1,0-0.1,0-0.1l0,0c-0.2,0-0.5,0-1,0.3C117.1,62,117.1,62.8,117.1,63.1z M23.9,65.2
				c-0.2,0-0.3-0.1-0.5-0.2c-0.2-0.1-0.3-0.3-0.3-0.5c0-0.5-0.1-1-0.1-1.5l0-0.7c0-0.4,0.3-0.8,0.7-0.8c0.3,0,0.6-0.1,0.8-0.1
				c0,0,0.1,0,0.1,0c-0.1-2-0.2-4.1-0.4-6.1c0,0,0,0,0,0c-0.3,0-0.5,0.1-0.8,0.1c0,0-0.1,0-0.1,0c-0.2,0-0.3-0.1-0.5-0.2
				c-0.2-0.1-0.3-0.3-0.3-0.5c0-0.5-0.1-0.9-0.1-1.4l-0.1-0.9c0-0.4,0.3-0.7,0.6-0.8c3-0.4,6.2-0.6,9.4-0.6c1.1,0,2.2,0,3.3,0.1
				c0.4,0,0.7,0.3,0.7,0.7c0.1,1.2,0.1,2.5,0.2,3.7c0,0.2-0.1,0.4-0.2,0.6c-0.1,0.1-0.3,0.2-0.5,0.2c0,0,0,0,0,0
				c-0.7,0-1.5-0.1-2.2-0.1c0,0.1,0.1,0.2,0.1,0.2l0.2,2.4c0,0.2,0,0.3-0.1,0.5c0.9,0,1.8,0,2.8,0.1c0.4,0,0.7,0.3,0.7,0.7l0.2,3.7
				c0,0.2-0.1,0.4-0.2,0.6c-0.1,0.1-0.3,0.2-0.5,0.2c0,0,0,0,0,0c-1.2-0.1-2.4-0.1-3.6-0.1c-3.1,0-6.1,0.2-9,0.6
				C24,65.2,23.9,65.2,23.9,65.2z M30.8,60.7c0.4,0,0.7,0,1,0c0.4,0,0.5,0,0.6-0.1l0.1-0.2l0.1-0.3l0-0.2c0-0.1,0.1-0.2,0.1-0.3
				h-0.1c-0.7,0-1.3,0-2,0L30.8,60.7z M30.5,55.8c0.6,0,1.2,0,1.8,0c0,0,0-0.1,0-0.1l0-0.2c0,0-0.1-0.2-0.1-0.3
				c0-0.1-0.1-0.1-0.1-0.2c0,0,0,0,0,0c-0.1,0-0.2,0-0.3,0c0,0-0.2,0-0.2,0c-0.3,0-0.7,0-1,0L30.5,55.8z"/>
			<path class="st1" d="M32.4,51.8c1.1,0,2.1,0,3.2,0.1c0.1,1.2,0.1,2.4,0.2,3.7c-1,0-1.9-0.1-2.9-0.1l0-0.2l-0.1-0.2l0-0.1l0-0.1
				l0-0.1l0-0.1c-0.1-0.3-0.2-0.4-0.4-0.4c-0.1,0-0.3-0.1-0.6-0.1c0,0-0.1,0-0.1,0h-0.1h-0.1c-0.6,0-1.2,0-1.8,0
				c0,0.8,0.1,1.5,0.1,2.3c0.9,0,1.7,0,2.6,0c0.2,0,0.3,0,0.5,0c0,0.8,0.1,1.6,0.2,2.4c-0.1,0-0.2,0-0.3,0c-0.9,0-1.9,0-2.8,0.1
				c0.1,0.8,0.1,1.6,0.2,2.5c0.6,0,1.2,0,1.7,0c0.6,0,0.9-0.1,1.1-0.2l0.4-0.5l0-0.1l0-0.1l0.1-0.2l0-0.2c1,0,2,0,2.9,0.1
				c0.1,1.2,0.2,2.5,0.2,3.7c-1.2-0.1-2.4-0.1-3.7-0.1c-3,0-6.1,0.2-9.1,0.6c-0.1-0.7-0.1-1.5-0.1-2.2c0.3,0,0.6-0.1,0.9-0.1l0,0
				c0.2,0,0.4-0.1,0.5-0.1c0.1-0.1,0.2-0.3,0.2-0.6c-0.1-2.1-0.3-4.2-0.4-6.2c0-0.3-0.1-0.5-0.3-0.6c-0.1,0-0.2,0-0.3,0
				c-0.1,0-0.1,0-0.2,0l0,0c-0.3,0-0.6,0.1-0.9,0.1c-0.1-0.7-0.1-1.5-0.1-2.2C26.2,52,29.3,51.8,32.4,51.8 M40,52.3
				c4.8,0.4,9.6,1.1,14.4,2c0,0.7,0.1,1.5,0.1,2.2c-0.2,0-0.4-0.1-0.6-0.1c-0.2,0-0.3,0-0.4,0c-0.1,0-0.2,0-0.3,0.1
				c-0.1,0.1-0.1,0.3-0.1,0.5c0.1,2,0.2,3.9,0.4,5.9c0,0.3,0.1,0.4,0.2,0.6c0.1,0.1,0.3,0.2,0.7,0.3c0.3,0,0.5,0.1,0.8,0.1
				c0.1,1.8,0.1,3.2,0.2,4.9c-0.9-0.2-1.8,0-2.7-0.2c0-0.2,0-0.4-0.1-0.5l-0.1-0.3l0,0l0-0.1l0-0.1l0-0.1c0-0.2-0.1-0.4-0.1-0.5
				l0-0.2v0v0l0-0.1l0-0.1c-0.1-0.4-0.2-0.6-0.4-0.7c-0.2-0.1-0.4-0.2-0.6-0.2l-0.2,0l-0.2,0c-2.4-0.4-4.9-0.7-7.3-1l-0.2,0l-0.1,0
				l-0.3,0.1c-0.1,0.1-0.1,0.2-0.2,0.5c-0.1,0.6-0.2,1.3-0.3,1.9c-0.9-0.1-1.9-0.2-2.8-0.2c-0.1-1.7-0.2-3.5-0.3-5.2
				c0.9,0,1.5-0.3,1.8-0.7c0.3-0.5,0.5-1.1,0.6-1.8l0-0.3l0-0.3l0-0.3l0.1-0.4c0-0.2,0.1-0.5,0.1-0.9c0-0.3,0-0.7,0-1.1l0-0.2l0-0.1
				l0-0.1v-0.1l0-0.1l0-0.1v0l-0.2-0.4c-0.1-0.1-0.5-0.2-1.1-0.2l-0.5,0C40.1,53.8,40.1,53,40,52.3 M48.8,62.9
				c-0.2-2.4-0.3-4.8-0.5-7.2c-0.9-0.1-1.8-0.3-2.7-0.4c0,0.4,0,0.8,0,1.1c0,0.3,0,0.6,0,0.9l0,0.1v0.1l0,0.4l0,0.2l0,0.1v0.1v0.2
				l0,0.2l0,0.1v0.1l0,0.5c0,0.2,0,0.4-0.1,0.8l0,0.1l0,0.1l0,0.2l0,0.2c0,0.2-0.1,0.5-0.1,0.7c-0.1,0.3-0.2,0.5-0.3,0.8
				C46.2,62.5,47.5,62.7,48.8,62.9 M19.7,53.1c0.1,0.7,0.1,1.5,0.2,2.2c-0.2,0-0.4,0.1-0.6,0.1c-0.4,0.1-0.6,0.2-0.7,0.3l-0.1,0.5v0
				c0.1,2.1,0.3,4.1,0.4,6.2c0,0.3,0.1,0.5,0.3,0.5c0.1,0,0.1,0,0.2,0c0.1,0,0.2,0,0.4,0h0c0.2,0,0.4-0.1,0.6-0.1
				c0,0.7,0.1,1.5,0.1,2.2c-2.5,0.4-4.9,1-7.3,1.7c0-0.7-0.1-1.5-0.1-2.2l0.4-0.1l0,0c0.2-0.1,0.4-0.1,0.5-0.2
				c0.1-0.1,0.2-0.3,0.2-0.6c-0.1-1.4-0.2-2.8-0.3-4.2l-0.2,0.1c-0.8,2-1.6,4-2.4,6c-0.7,0.2-1.3,0.5-2,0.7
				c-1.1-1.3-2.1-2.6-3.2-3.9L6,62.4c0.1,1.4,0.2,2.7,0.3,4.1v0l0,0v0.1l0,0.1l0.2,0.3c0,0,0.1,0,0.1,0c0.1,0,0.3,0,0.5-0.1l0.4-0.2
				c0.1,0.7,0.1,1.5,0.1,2.2c-1.7,0.7-3.5,1.5-5.2,2.4c0-0.7-0.1-1.5-0.1-2.2c0.2-0.1,0.4-0.2,0.6-0.3c0.3-0.1,0.4-0.3,0.6-0.4
				c0.1-0.1,0.2-0.3,0.2-0.7c-0.1-2.1-0.3-4.1-0.4-6.2c0-0.2-0.1-0.3-0.1-0.4c0,0-0.1-0.1-0.1-0.1c-0.1,0-0.3,0.1-0.6,0.2
				c-0.2,0.1-0.4,0.2-0.6,0.3c0-0.7-0.1-1.5-0.1-2.2c2-1,4-2,6.1-2.8c1,1.2,1.9,2.5,2.9,3.7l0.3-0.1c0.7-1.8,1.5-3.7,2.2-5.5
				C15.3,54,17.5,53.5,19.7,53.1 M117.5,54c0.1,0.7,0.1,1.5,0.1,2.2c-0.3,0.1-0.5,0.2-0.8,0.3l0,0c-0.2,0.1-0.4,0.2-0.5,0.3
				c-0.1,0.1-0.2,0.3-0.2,0.7c0,0.5,0.1,1.1,0.1,1.6l0.6-0.2l0,0l0,0c0.4-0.1,0.8-0.3,1.4-0.5c0.5-0.2,1.1-0.4,1.6-0.5
				c0.8-0.2,1.6-0.4,2.3-0.4c0.2,0,0.4,0,0.6,0c0.9,0.1,1.4,0.8,1.5,2c0.1,1.5-0.6,2.8-2.1,4.1c-1.5,1.2-3.1,2.2-5,2.9
				c-2.2,0.9-4.5,1.6-6.8,2.2c0-0.7-0.1-1.5-0.1-2.2c0.3-0.1,0.6-0.2,0.8-0.2l0,0c0.2-0.1,0.4-0.1,0.5-0.2c0.2-0.1,0.2-0.3,0.2-0.6
				c-0.1-2.1-0.3-4.2-0.4-6.2c0-0.3-0.1-0.5-0.3-0.5c0,0,0,0-0.1,0c-0.1,0-0.3,0-0.5,0.1l0,0c-0.3,0.1-0.6,0.2-0.9,0.2
				c0-0.7-0.1-1.5-0.1-2.2C112.2,55.9,114.8,55,117.5,54 M116.4,64.2c0.2-0.1,0.4-0.2,0.7-0.3c0.5-0.2,1-0.4,1.2-0.7
				c0.3-0.3,0.4-0.5,0.5-0.7l0.1-0.4v-0.3c0-0.5-0.2-0.8-0.6-0.9c-0.1,0-0.1,0-0.2,0c-0.4,0-0.8,0.1-1.4,0.3l-0.1,0l-0.1,0l-0.1,0.1
				l-0.1,0C116.3,62.4,116.4,63.3,116.4,64.2 M57.7,54.7c2.2,0.4,4.3,0.8,6.5,1.2h0l0,0c2,0.4,3.7,0.8,5.2,1.3
				c1.5,0.5,2.4,1.5,2.5,3.1c0,0.7-0.2,1.3-0.8,1.7c-0.4,0.3-0.9,0.4-1.5,0.4c-0.2,0-0.5,0-0.8-0.1l-0.3,0l0,0.2l0.4,0.1l0.4,0.1
				l0.4,0.1c0.7,0.2,1.4,0.6,2,1.2c0.6,0.6,1,1.3,1,2.1c0.1,1.6-0.6,2.5-2.2,2.5c0,0,0,0-0.1,0c-1.6,0-3.7-0.3-6.1-0.7l-0.1,0
				l-0.1,0c-1.9-0.4-3.8-0.7-5.7-1.1c0-0.7-0.1-1.5-0.1-2.2c0.3,0,0.6,0.1,0.9,0.2l0,0c0.1,0,0.3,0,0.4,0c0.1,0,0.1,0,0.2,0
				c0.2,0,0.2-0.2,0.2-0.5c-0.1-2.1-0.3-4.2-0.4-6.3c0-0.3-0.1-0.5-0.3-0.6c-0.2-0.1-0.3-0.1-0.5-0.2l0,0c-0.3,0-0.6-0.1-0.9-0.2
				C57.8,56.2,57.8,55.5,57.7,54.7 M66,61c0.2,0,0.4,0,0.6-0.1c0.3-0.1,0.4-0.3,0.4-0.8c0-0.4-0.2-0.7-0.4-1
				c-0.3-0.2-0.5-0.4-0.8-0.5l-0.4-0.1L65,58.5l0,0c-0.2,0-0.4-0.1-0.6-0.1c0,0.8,0.1,1.6,0.2,2.3l0.4,0.1l0.1,0l0.3,0.1l0.3,0
				C65.7,61,65.9,61,66,61 M66.4,65.8c0.2,0,0.4,0,0.5,0c0.4-0.1,0.6-0.4,0.6-0.9c0-0.4-0.2-0.7-0.4-0.9c-0.3-0.2-0.6-0.4-0.9-0.5
				l-0.4-0.1l-0.4-0.1c-0.2,0-0.5-0.1-0.7-0.1c0,0.8,0.1,1.6,0.2,2.4l0.5,0.1C65.7,65.8,66,65.8,66.4,65.8 M106.3,57.5
				c0,0.7,0.1,1.5,0.1,2.2c-0.2,0-0.4,0.1-0.6,0.1c-0.4,0.1-0.6,0.2-0.7,0.3c-0.1,0.1-0.1,0.3-0.1,0.6c0.1,2.2,0.3,5.2,0.4,5.9
				c0,0.1,0,0.1,0,0.1s0-0.1,0-0.1c0,0,0,0,0,0c0,0,0-0.1,0-0.1c0,0,0.1,0.5,0.2,0.6c0.1,0,0.1,0.1,0.2,0.1c0.1,0,0.3,0,0.4-0.1
				c0.3-0.1,0.5-0.1,0.8-0.2c0.1,1.7,0.2,3.5,0.3,5.2c-0.9,0.2-1.8,0.4-2.8,0.6c0-0.2-0.1-0.4-0.1-0.5l-0.1-0.3l0,0l0-0.1l0-0.1
				l0-0.1l-0.1-0.4l0-0.2v0v0l0,0l0-0.1c-0.1-0.4-0.2-0.6-0.4-0.6c-0.1,0-0.2,0-0.3,0c-0.1,0-0.2,0-0.3,0l-0.2,0l-0.2,0
				c-2.4,0.4-4.8,0.7-7.3,0.8l-0.2,0l-0.1,0L95,71.2c-0.1,0.1-0.1,0.3-0.2,0.6c-0.1,0.7-0.2,1.3-0.3,2c-0.9,0-1.9,0.1-2.8,0.1
				c-0.1-1.7-0.2-3.5-0.3-5.2c0.9-0.1,1.5-0.4,1.8-0.9c0.3-0.5,0.5-1.1,0.6-1.9l0.1-0.3l0-0.3l0-0.3l0.1-0.4c0-0.3,0.1-0.6,0.1-0.9
				c0-0.4,0-0.7,0-1.1l0-0.2l0-0.1l0-0.1l0-0.1l0-0.1l0-0.1v0l-0.2-0.4c-0.1-0.1-0.4-0.1-0.8-0.1c-0.1,0-0.2,0-0.3,0l-0.5,0
				c0-0.7-0.1-1.5-0.1-2.2C96.8,59.1,101.6,58.6,106.3,57.5 M97,68.6c1.3-0.1,2.5-0.2,3.8-0.4c-0.2-2.4-0.3-4.8-0.5-7.2
				c-0.9,0.1-1.8,0.2-2.7,0.3c0,0.4,0,0.8,0,1.1c0,0.3,0,0.7,0,1l0,0.1l0,0.1l0,0.4l0,0.2v0.1v0.1v0.2l0,0.2l0,0.1V65l0,0.5
				c0,0.2,0,0.4-0.1,0.8l0,0.1l0,0.1l0,0.2l0,0.2c0,0.2-0.1,0.5-0.1,0.8C97.2,67.9,97.1,68.2,97,68.6 M75.1,57.9
				c4.2,0.6,8.4,1.1,12.6,1.2c0.1,1.2,0.1,2.4,0.2,3.7c-1,0-1.9-0.1-2.9-0.1l0-0.2l-0.1-0.2l0-0.1l0-0.1l0-0.1l0-0.1
				c-0.1-0.2-0.2-0.4-0.4-0.5c-0.2,0-0.4-0.1-0.7-0.1l-0.1,0l-0.1,0c-0.6,0-1.2-0.1-1.8-0.2c0.1,0.8,0.1,1.5,0.1,2.3
				c1,0.1,2.1,0.2,3.1,0.2c0.1,0.8,0.1,1.6,0.2,2.4c-1-0.1-2.1-0.1-3.1-0.2c0,0.8,0.1,1.7,0.2,2.5c0.6,0.1,1.2,0.1,1.7,0.1
				c0.2,0,0.3,0,0.4,0c0.3,0,0.6,0,0.7-0.1l0.4-0.4l0-0.1l0-0.1l0.1-0.2l0-0.2c1,0.1,2,0.1,2.9,0.1c0.1,1.2,0.2,2.5,0.2,3.7
				c-4.3-0.1-8.5-0.5-12.8-1.1c-0.1-0.7-0.1-1.5-0.1-2.2c0.3,0,0.6,0.1,0.9,0.1h0c0.1,0,0.2,0,0.3,0c0.1,0,0.2,0,0.3,0
				c0.2,0,0.2-0.2,0.2-0.5c-0.1-2.1-0.3-4.2-0.4-6.3c0-0.3-0.1-0.5-0.3-0.6c-0.1-0.1-0.3-0.1-0.6-0.2l0,0c-0.3,0-0.6-0.1-0.9-0.1
				C75.2,59.3,75.2,58.6,75.1,57.9 M32.4,50.3c-3.3,0-6.5,0.2-9.5,0.6c-0.8,0.1-1.3,0.8-1.3,1.6l0.1,0.9c0,0.4,0.1,0.9,0.1,1.3
				c0,0.4,0.2,0.8,0.6,1.1c0.3,0.2,0.6,0.3,0.9,0.3c0.1,0,0.2,0,0.2,0c0,0,0,0,0,0c0.1,1.5,0.2,3.1,0.3,4.6c-0.1,0-0.2,0-0.2,0
				c-0.8,0.1-1.4,0.8-1.3,1.6l0,0.7c0,0.5,0.1,1,0.1,1.5c0,0.4,0.2,0.8,0.6,1.1c0.3,0.2,0.6,0.3,0.9,0.3c0.1,0,0.1,0,0.2,0
				c2.8-0.4,5.8-0.6,8.9-0.6c1.2,0,2.4,0,3.6,0.1c0,0,0,0,0.1,0c0.4,0,0.8-0.2,1.1-0.4c0.1-0.1,0.2-0.3,0.3-0.4
				c0.1,0.8,0.1,1.6,0.1,2.4c0,0.8,0.6,1.4,1.4,1.4c1.1,0.1,1.9,0.1,2.8,0.2c0.1,0,0.1,0,0.2,0c0.7,0,1.4-0.5,1.5-1.3
				c0.1-0.4,0.1-0.8,0.2-1.2c2.2,0.3,4.4,0.6,6.5,0.9l0.2,0l0,0l0,0.2l0,0.1c0,0.1,0.1,0.2,0.1,0.4l0,0.1l0,0c0,0.1,0,0.2,0.1,0.3
				l0,0.2c0,0,0,0.1,0,0.1c0,0,0,0,0,0.1l0,0.2c0.1,0.6,0.6,1.1,1.2,1.2c0.6,0.1,1.1,0.1,1.6,0.1c0.4,0,0.8,0,1.1,0.1
				c0.1,0,0.2,0,0.3,0c0.4,0,0.7-0.1,1-0.4c0.3-0.3,0.5-0.8,0.5-1.2c-0.1-0.9-0.1-1.6-0.1-2.4c0-0.8,0-1.6-0.1-2.5
				c0-0.7-0.5-1.2-1.2-1.4c-0.2,0-0.3-0.1-0.5-0.1c-0.1-0.9-0.1-1.7-0.2-2.6L54.7,58c0.3,0,0.6-0.2,0.8-0.4c0.3-0.3,0.5-0.8,0.5-1.2
				c0-0.5-0.1-0.9-0.1-1.4l-0.1-0.9c0-0.7-0.5-1.3-1.2-1.4c-4-0.7-9.2-1.6-14.5-2c0,0-0.1,0-0.1,0c-0.4,0-0.8,0.2-1.1,0.4
				c-0.3,0.3-0.5,0.7-0.4,1.2l0,0.7c0,0.5,0.1,1,0.1,1.5c0.1,0.7,0.6,1.3,1.4,1.4l0.4,0c0,0.3,0,0.5,0,0.7c0,0,0,0,0,0.1
				c0,0.3,0,0.5-0.1,0.7l0,0.1l-0.1,0.3l0,0.3l0,0.3l0,0.3c-0.1,0.6-0.2,1-0.3,1.2c-0.1,0-0.3,0.1-0.6,0.1c-0.4,0-0.8,0.2-1.1,0.5
				C38.1,60.8,38,60.9,38,61l-0.1-0.9c0-0.8-0.7-1.4-1.4-1.4c-0.7,0-1.3-0.1-1.9-0.1l-0.1-1l0-0.6c0.5,0,0.9,0,1.4,0c0,0,0,0,0.1,0
				c0.4,0,0.8-0.2,1.1-0.4c0.3-0.3,0.5-0.7,0.4-1.1c-0.1-1.2-0.1-2.5-0.2-3.7c0-0.8-0.7-1.4-1.4-1.4C34.6,50.4,33.5,50.3,32.4,50.3
				L32.4,50.3z M46.9,60.4c0.1-0.3,0.1-0.6,0.1-0.8l0-0.5c0,0,0,0,0,0c0,0.4,0.1,0.8,0.1,1.2l0.1,1c-0.1,0-0.2,0-0.4,0
				c0,0,0-0.1,0-0.1l0-0.1l0-0.1C46.9,60.7,46.9,60.5,46.9,60.4L46.9,60.4z M19.7,51.6c-0.1,0-0.2,0-0.3,0c-2.3,0.4-4.5,0.9-6.7,1.6
				c-0.4,0.1-0.8,0.5-1,0.9c-0.5,1.1-0.9,2.3-1.4,3.4c-0.5-0.7-1-1.3-1.5-1.9C8.6,55.2,8.2,55,7.7,55c-0.2,0-0.4,0-0.6,0.1
				c-2.1,0.8-4.2,1.8-6.2,2.8c-0.5,0.3-0.8,0.8-0.8,1.4l0.1,0.9c0,0.4,0.1,0.8,0.1,1.3c0,0.5,0.3,1,0.7,1.2c0.2,0.1,0.5,0.2,0.8,0.2
				c0,0,0,0,0.1,0C1.9,64,2,65.1,2,66.1l0.1,1.3c-0.2,0.1-0.4,0.2-0.5,0.3c-0.5,0.3-0.9,0.8-0.8,1.4c0,0.7,0.1,1.5,0.1,2.2
				c0,0.5,0.3,1,0.8,1.2c0.2,0.1,0.5,0.2,0.7,0.2c0.2,0,0.5-0.1,0.7-0.2c1.7-0.9,3.4-1.6,5.1-2.3c0.6-0.2,1-0.8,0.9-1.5L9,67.8
				c0,0,0-0.1,0-0.1c0.1,0,0.2,0,0.3,0c0.2,0,0.4,0,0.5-0.1c0.6-0.2,1.3-0.5,1.8-0.7c0,0.4,0.3,0.8,0.6,1.1c0.3,0.2,0.6,0.3,0.9,0.3
				c0.1,0,0.3,0,0.4-0.1c2.4-0.7,4.8-1.3,7.2-1.7c0.8-0.1,1.3-0.8,1.2-1.6c0-0.6-0.1-1.2-0.1-1.8l0-0.4c0-0.4-0.2-0.8-0.6-1.1
				c-0.3-0.2-0.6-0.3-0.9-0.3c0,0,0,0,0,0c0-0.8-0.1-1.6-0.2-2.4c0-0.7-0.1-1.5-0.1-2.2c0,0,0.1,0,0.1,0c0.8-0.1,1.3-0.8,1.3-1.6
				c0-0.4-0.1-0.8-0.1-1.2c0-0.3,0-0.6-0.1-1c0-0.4-0.2-0.8-0.6-1.1C20.4,51.7,20.1,51.6,19.7,51.6L19.7,51.6z M117.5,52.5
				c-0.2,0-0.4,0-0.6,0.1c-2.5,1-5.2,1.9-7.8,2.6c-0.7,0.2-1.2,0.8-1.1,1.5c0,0.7,0.1,1.5,0.1,2.2c0,0.4,0.3,0.9,0.6,1.1
				c0.3,0.2,0.6,0.3,0.9,0.3c0.1,0,0.2,0,0.3,0c0.1,1.1,0.1,2.2,0.2,3.4l0.1,1.2c0,0-0.1,0-0.1,0l-0.4,0.1c-0.7,0.2-1.1,0.8-1.1,1.5
				c0,0.5,0.1,1,0.1,1.4l0.1,0.8c0,0.4,0.3,0.9,0.6,1.1c0.3,0.2,0.6,0.3,0.9,0.3c0.1,0,0.3,0,0.4,0c2.2-0.6,4.5-1.3,6.9-2.2
				c2-0.8,3.8-1.8,5.4-3.1c2.3-1.9,2.7-3.9,2.6-5.3c-0.2-2.8-2-3.3-2.8-3.4c-0.3,0-0.5,0-0.8,0c-0.8,0-1.8,0.1-2.7,0.4
				c-0.1,0-0.1,0-0.2,0.1c0-0.1,0-0.2,0-0.3c0-0.3,0-0.6-0.1-0.9c0-0.4-0.1-0.9-0.1-1.3c0-0.5-0.3-0.9-0.7-1.2
				C118,52.5,117.7,52.5,117.5,52.5L117.5,52.5z M57.7,53.2c-0.4,0-0.7,0.1-1,0.4c-0.3,0.3-0.5,0.8-0.5,1.2c0,0.4,0.1,0.9,0.1,1.3
				l0.1,0.9c0,0.7,0.5,1.3,1.2,1.4l0.3,0.1c0.1,0,0.2,0,0.2,0c0.1,1.4,0.2,2.7,0.3,4l0,0.5c0,0,0,0-0.1,0c-0.4,0-0.7,0.1-1,0.4
				c-0.3,0.3-0.5,0.8-0.5,1.2c0.1,0.7,0.1,1.4,0.1,2.1l0,0.1c0,0.7,0.5,1.3,1.2,1.4l0.2,0l5.5,1l0.1,0c0,0,0.1,0,0.1,0l0.1,0
				c2.6,0.5,4.7,0.7,6.4,0.7l0.1,0c1.2,0,2.2-0.4,2.8-1.1c0.4-0.4,0.7-0.9,0.8-1.5c0,0.1,0,0.1,0,0.2c0,0.4,0.1,0.9,0.1,1.3l0.1,0.9
				c0,0.7,0.6,1.3,1.3,1.4c4.7,0.7,9,1.1,13,1.2c0,0,0,0,0,0c0.4,0,0.8-0.2,1.1-0.5c0.1-0.1,0.2-0.3,0.3-0.4l0.1,2.3
				c0.1,0.8,0.7,1.4,1.5,1.4c0.9,0,1.9,0,2.9-0.1c0.7,0,1.3-0.6,1.4-1.3l0-0.3c0.1-0.4,0.1-0.8,0.2-1.2c2.3-0.1,4.5-0.4,6.7-0.8
				l0,0.2l0,0c0,0.1,0,0.1,0,0.2l0,0l0,0c0,0,0,0.1,0,0.1l0,0.2l0,0.1c0,0.1,0,0.2,0,0.3c0,0.4,0.3,0.8,0.6,1.1
				c0.3,0.2,0.6,0.3,0.9,0.3c0.1,0,0.2,0,0.3,0c1-0.2,2-0.4,2.8-0.6c0.7-0.2,1.2-0.8,1.2-1.6c-0.1-0.9-0.1-1.9-0.2-2.8
				c-0.1-0.8-0.1-1.6-0.2-2.4c0-0.4-0.3-0.9-0.6-1.1c-0.3-0.2-0.6-0.3-0.9-0.3c-0.1,0-0.2,0-0.2,0c-0.1-1.1-0.2-2.7-0.3-4.2
				c0,0,0.1,0,0.1,0c0.7-0.2,1.2-0.8,1.2-1.6c0-0.4-0.1-0.9-0.1-1.3l-0.1-0.9c0-0.4-0.2-0.8-0.6-1.1c-0.3-0.2-0.6-0.3-0.9-0.3
				c-0.1,0-0.2,0-0.3,0c-4.4,1-9.1,1.6-13.9,1.7c-0.4,0-0.8,0.2-1.1,0.5c-0.3,0.3-0.4,0.7-0.4,1.1c0.1,0.7,0.1,1.5,0.1,2.2
				c0,0.8,0.7,1.4,1.5,1.4c0,0,0,0,0,0l0.3,0c0,0.2,0,0.4,0,0.6c0,0.3,0,0.6-0.1,0.8l-0.1,0.3l0,0.3l0,0.3l0,0.3
				c-0.1,0.8-0.3,1.2-0.4,1.4c-0.1,0-0.2,0.1-0.7,0.2c-0.5,0.1-1,0.4-1.2,0.9c0-0.2,0-0.5-0.1-0.7c-0.1-0.8-0.7-1.4-1.5-1.4
				c-0.6,0-1.2,0-1.9-0.1l-0.1-0.8c0-0.3,0-0.5-0.1-0.8c0.5,0,0.9,0,1.4,0.1c0,0,0,0,0,0c0.4,0,0.8-0.2,1.1-0.5
				c0.3-0.3,0.4-0.7,0.4-1.1c0-0.7-0.1-1.5-0.1-2.2l-0.1-1.4c0-0.8-0.7-1.4-1.5-1.4c-3.8-0.1-7.9-0.5-12.4-1.2c-0.1,0-0.1,0-0.2,0
				c-0.4,0-0.7,0.1-1,0.4c-0.3,0.3-0.5,0.7-0.5,1.2c0,0.6,0.1,1.2,0.1,1.8l0,0.4c0,0.7,0.6,1.3,1.3,1.4c0.2,0,0.3,0,0.5,0.1l0.1,1.5
				c0.1,1,0.1,2,0.2,3c0,0,0,0-0.1,0c-0.4,0-0.8,0.1-1,0.4c-0.2,0.2-0.3,0.4-0.4,0.6c0.1-0.3,0.1-0.7,0-1.1
				c-0.1-1.3-0.6-2.3-1.5-3.2c-0.1-0.1-0.1-0.1-0.2-0.2c0.6-0.7,0.9-1.5,0.9-2.5c-0.1-2.2-1.4-3.7-3.5-4.4c-1.6-0.5-3.4-1-5.4-1.4
				c-0.1,0-0.1,0-0.2,0c-0.8-0.2-1.7-0.3-2.5-0.5c-1.3-0.3-2.6-0.5-3.9-0.7C57.9,53.2,57.8,53.2,57.7,53.2L57.7,53.2z M99.1,64.9
				L99.1,64.9c0,0.6,0.1,1.3,0.1,1.9c-0.1,0-0.2,0-0.3,0l0,0l0-0.2c0,0,0-0.1,0-0.1l0-0.1l0,0c0,0,0-0.1,0-0.1l0-0.3
				c0-0.2,0-0.4,0.1-0.5l0-0.5C99.1,65,99.1,65,99.1,64.9L99.1,64.9L99.1,64.9z"/>
		</g>
		<g>
			<path class="st0" d="M92.6,86.9c-0.2,0-0.3,0-0.5,0c-1.6-0.2-2.6-1-2.8-2.3c-0.8,1-1.9,1.6-3.4,1.6l0,0c-0.2,0-0.5,0-0.7,0
				c-2.7-0.3-4-1.8-3.8-4.3l0.3-3c0-0.1,0-0.2,0-0.3c0,0,0,0,0,0c0,0-0.1-0.1-0.2-0.2c-0.2-0.2-0.5-0.5-0.6-0.9
				c-0.2,0.2-0.4,0.3-0.7,0.4c0,0.1,0,0.3,0,0.5c-0.1,0.5-0.4,0.8-0.7,1.2c-0.1,0.2-0.3,0.4-0.3,0.7c0,0.3,0,0.4,0.4,0.9l0.1,0.2
				c0.4,0.5,0.8,1.1,0.7,1.9c-0.1,0.8-0.7,1.3-1.4,1.6c-0.2,0.1-0.5,0.1-0.8,0.1c-0.5,0-1.1-0.1-1.6-0.3c-0.7-0.3-1.2-0.8-1.4-1.2
				c-0.3,0.4-0.7,0.8-1.5,0.8c-0.1,0-0.3,0-0.5,0c-1.1-0.2-1.5-0.8-1.7-1.5c-0.4,0.4-1,0.7-1.8,0.7c-0.1,0-0.2,0-0.3,0
				c-0.7,0-1.5-0.2-2-0.6c-0.4-0.3-0.6-0.6-0.8-1c-0.4,0.4-1,0.7-1.9,0.7l0,0c-0.2,0-0.5,0-0.7-0.1c-1-0.1-1.6-0.5-2-1.2
				c0,0,0,0,0,0c-0.3,0.2-0.7,0.4-1.1,0.5c-0.3,0.1-0.5,0.1-0.8,0.1c-0.7,0-1.3-0.2-1.8-0.5c-0.7-0.5-1-1.3-0.9-2.3l0.5-4.1
				c0-0.3,0-0.4-0.1-0.5c-0.1-0.1-0.2-0.2-0.3-0.3c-0.2-0.2-0.3-0.5-0.3-0.7c0,0.4,0,0.7,0,1l-0.2,2.4c-0.3,2.8-1.9,3.7-3.3,4
				c-0.4,0.1-0.7,0.1-1.2,0.1c-0.2,0-0.5,0-0.7,0c-1.2-0.1-2.1-0.6-2.8-1.3c-0.9-0.9-1.2-2.1-1-4.1c0.3-3,1.6-4,2.6-4.3
				c-0.3-0.3-0.5-0.6-0.7-0.9c-0.5-1-0.4-2,0.4-2.8c0.9-0.9,2.5-1,3-1c0.2,0,0.4,0,0.6,0l0.6,0.1c0.2,0,0.3,0.1,0.4,0.1
				c0.1,0,0.1,0,0.2,0l0.2,0l0.2,0c1,0,1.6,0.4,1.9,0.7c0.3,0.3,0.5,0.8,0.4,1.2c-0.1,0.8-1,1.7-2.5,1.7c0,0,0,0,0,0
				c1.2,0.8,1.7,1.7,1.9,2.4c0-0.5,0.2-0.9,0.5-1.2c0.4-0.4,1.1-0.6,1.8-0.6c0.6,0,1.1,0.1,1.6,0.4c0.5,0.2,1,0.6,1.2,1.3
				c0.2-0.3,0.6-0.7,1.3-0.8c0.2-0.1,0.5-0.1,0.8-0.1c0.2,0,0.5,0,0.8,0.1c1,0.2,1.6,0.6,1.8,0.8c0.8,0.7,0.9,1.7,0.3,2.6
				c-0.1,0.1-0.2,0.2-0.3,0.3c-0.2,0.2-0.3,0.3-0.3,0.6l-0.4,3c0,0.1,0.1,0.2,0.1,0.2l0.1,0.2c0.1,0.1,0.2,0.3,0.3,0.6
				c0.2-0.3,0.6-0.5,0.8-0.7l0.2-0.1c0.5-0.3,0.6-0.5,0.6-0.7c0-0.3,0-0.5-0.1-0.7c-0.2-0.4-0.4-0.9-0.3-1.4c0-0.2,0.1-0.3,0.2-0.5
				c-0.3-0.2-0.5-0.5-0.6-0.9c-0.2-0.5-0.1-1,0.2-1.4c0.2-0.4,0.7-0.8,1.8-1c0.2,0,0.3,0,0.5,0c0.3,0,0.5,0,0.8,0.1
				c0.5,0.1,1,0.3,1.4,0.5c0.7,0.4,1.6,1.1,2.1,2.4c0.8-1.1,1.9-1.5,2.7-1.6c0.2,0,0.4,0,0.6,0c0.7,0,1.4,0.2,2.1,0.5
				c0.7,0.4,1.1,0.8,1.3,1.2c0.4-0.4,1-0.7,1.9-0.7c0.2,0,0.3,0,0.5,0c1,0.1,2.6,0.6,2.4,2.9l0,0c0.3-0.1,0.7-0.2,1-0.2
				c0.1,0,0.3,0,0.4,0c0.5,0.1,0.9,0.2,1.4,0.5c-0.1-0.2-0.1-0.4-0.1-0.7c0.1-1,1-1.7,2.3-1.7c0.2,0,0.3,0,0.5,0
				c0.9,0.1,2,0.5,2.3,1.7c0-0.2,0.1-0.4,0.3-0.6c0.3-0.5,0.9-0.8,1.6-1c-0.3-0.3-0.4-0.6-0.4-0.9c-0.1-1.2,1.2-1.9,2.5-2
				c0.1,0,0.2,0,0.2,0c0.8,0,1.3,0.3,1.6,0.7c0.1-0.4,0.5-0.8,1.5-0.9c0.1,0,0.2,0,0.2,0c0.8,0,1.3,0.4,1.4,1.2
				c0,0.5-0.2,1.1-0.6,1.5c0.6,0.1,1,0.2,1.2,0.3c0.9,0.5,1.3,1.5,0.9,2.4c-0.1,0.1-0.1,0.2-0.2,0.4c-0.2,0.3-0.2,0.4-0.2,0.7l0.2,3
				c0,0.1,0.1,0.1,0.2,0.2l0.2,0.2c0.4,0.4,0.7,0.9,0.7,1.4c0.1,1-0.7,2-2.6,2.2c-0.1,0-0.3,0-0.4,0l0,0c-1,0-1.5-0.4-1.8-0.7
				c-0.3,0.3-0.6,0.5-1,0.7c-0.5,0.2-1,0.4-1.5,0.4c-0.4,0-0.8-0.1-1.1-0.2c-0.6-0.2-1.3-0.8-1.3-2.1l-0.3-4.1c0-0.3,0-0.3-0.2-0.5
				c-0.1-0.1-0.2-0.2-0.3-0.3c-0.3-0.3-0.5-0.6-0.6-0.9c0,0.1,0,0.2,0,0.3l-0.3,2.8c-0.1,0.9,0,1,0.3,1.3c0.1,0.1,0.2,0.2,0.4,0.4
				c0.3,0.4,0.7,1,0.7,1.7C94.9,86,94.1,86.9,92.6,86.9C92.6,86.9,92.6,86.9,92.6,86.9z M99.5,82.5c0.2-0.1,0.3-0.3,0.3-0.7
				l-0.1-2.1c0-0.4,0-0.4-0.3-0.8c0,0-0.1-0.1-0.1-0.1C99.2,78.8,99.5,82.5,99.5,82.5z M85.6,82.1c0,0,0.1,0,0.2,0
				c0.1,0,0.1,0,0.2,0c0,0,0,0,0,0c0,0,0.1-0.6,0.1-0.6c0-0.1,0-0.1-0.1-0.2c-0.1-0.1-0.2-0.2-0.3-0.2c0,0,0,0,0,0l-0.1,0.8
				C85.6,82,85.6,82.1,85.6,82.1C85.6,82.1,85.6,82.1,85.6,82.1z M61.9,78.2c0.1,0,0.4,0,0.4-0.6l0.3-2.1c0.1-0.4,0.1-0.4-0.1-0.9
				c0-0.1,0-0.1-0.1-0.2C62.4,74.4,61.9,78.2,61.9,78.2z M52.4,77c0,0,0.1,0,0.2,0c0.2,0,0.3,0,0.3-0.5l0.2-1.7l0,0
				c-0.5,0.3-0.6,0.4-0.6,0.7l-0.1,1.2c0,0.1,0,0.2,0,0.3C52.3,76.9,52.4,76.9,52.4,77z M98.9,76.9c0-0.1,0-0.1,0.1-0.2
				c0,0-0.1,0-0.1,0C98.8,76.8,98.9,76.9,98.9,76.9z M20,86c-1.5,0-2.4-0.8-2.5-1.6c-0.1-0.5-0.1-1.6,1.1-2.5
				c0.2-0.2,0.4-0.3,0.7-0.5c0.6-0.4,1.2-0.8,1.6-1.6c0.2-0.5,0.5-1.4,0.9-6.3c0.2-2.2,0.4-5.2,3.4-6.8c0.6-0.4,1.3-0.6,1.9-0.7
				c0.6-0.1,1.1-0.2,1.6-0.2c2.2,0,2.7,1.1,2.8,1.6c0.1,0.5-0.1,1.1-0.4,1.6c-0.3,0.3-0.6,0.6-1.1,0.9c0.1,0.2,0.1,0.4,0.2,0.6
				c0.1,0.4,0.1,0.8,0.2,1.2c0,0.3,0.1,0.6,0.1,0.9c0.1,0.5,0.4,2.1,1,2.8c0.1,0.1,0.3,0.3,0.4,0.4c0.7,0.6,1.7,1.6,1.1,3
				c-0.4,0.8-1.2,1.3-2.3,1.5c-0.4,0.1-0.7,0.1-1.1,0.1l0,0c-0.1,0-0.3,0-0.4,0c-1-0.1-2.3-0.7-2.7-2.9c0,0-0.3-2-0.4-3.8
				c0,0.6-0.1,1.3-0.1,2c0,1.9-0.1,4.1-0.6,6.1c-0.5,2.2-1.9,3.6-4.3,4.1C20.7,86,20.3,86,20,86z M43.8,80.2c-0.8,0-1.6-0.2-2.2-0.5
				c-0.7-0.3-1.3-0.9-1.7-1.6c-0.1,1.1-1.2,1.9-2.8,1.9c-1.7,0-2.9-0.9-2.9-2.1c0-0.6,0.3-1,0.4-1.3c0,0,0.1-0.1,0.1-0.1
				c0.2-0.2,0.3-0.4,0.3-0.6l0.1-2.7c0-0.3,0-0.4,0-0.5c0,0-0.1-0.1-0.2-0.2c-0.4-0.3-0.9-0.8-0.9-1.6c0-1,0.8-2,2.6-2
				c0,0,0.1,0,0.1,0c0.4,0,0.8,0.1,1.2,0.2c1,0.4,1.5,1.3,1.5,2.6l0,0.7c0.2-0.8,0.6-1.6,1.2-2.2c0.8-0.8,1.7-1.1,3-1.1l0.2,0
				c1.3,0,2.3,0.4,3.1,1.1c0.7,0.7,1.4,1.9,1.4,4.2c0,0.7-0.1,1.3-0.2,1.8c-0.1,0.7-0.5,2.7-2.6,3.4C45,80.1,44.4,80.2,43.8,80.2
				C43.8,80.2,43.8,80.2,43.8,80.2z M43.7,73.2c-0.1,0-0.2,0-0.2,0c-0.1,0.1-0.1,0.6-0.1,0.8l0,1.4c0,0.8,0.1,0.8,0.3,0.8
				c0,0,0,0,0,0c0.1,0,0.2,0,0.2,0c0.1-0.1,0.1-0.5,0.1-0.7c0,0,0-1.5,0-1.5c0-0.3,0-0.7-0.1-0.8c0,0,0,0,0,0
				C43.9,73.3,43.8,73.2,43.7,73.2v-0.8V73.2z"/>
			<path class="st1" d="M28.6,66.6c1,0,1.9,0.3,2,1c0.1,0.6-0.3,1.8-2.8,2.1c-1,0.1-1.6,0.1-2,1.1c-0.9,2.2-0.2,6.8-1.1,10.9
				c-0.2,0.9-0.8,2.9-3.7,3.5c-0.4,0.1-0.7,0.1-1,0.1c-1.1,0-1.7-0.5-1.8-1c-0.1-0.5,0.1-1.2,0.9-1.8c0.7-0.6,1.9-1,2.5-2.4
				c0.3-0.6,0.5-1.6,0.9-6.6c0.2-2.3,0.5-4.8,3-6.2c0.5-0.3,1.1-0.5,1.7-0.6C27.6,66.7,28.1,66.6,28.6,66.6 M53.5,67.3
				c0.2,0,0.4,0,0.5,0l0.5,0.1c0.3,0.1,0.5,0.1,0.6,0.1c0.1,0,0.2,0,0.4,0c0.1,0,0.1,0,0.2,0c1.2,0,1.6,0.6,1.5,1.1
				c0,0.4-0.6,1-1.7,1c-0.3,0-0.6,0-0.9-0.1L54,69.3c-0.1,0-0.1,0-0.2,0c-0.2,0-0.3,0-0.3,0.2c0,0.4,0.8,0.9,1.4,1.3
				c2.1,1.4,1.8,2.7,1.7,3.7l-0.2,2.2c-0.2,2.2-1.5,3-2.7,3.3c-0.3,0.1-0.7,0.1-1,0.1c-0.2,0-0.4,0-0.6,0c-0.7-0.1-1.6-0.3-2.3-1
				c-0.7-0.7-0.9-1.8-0.8-3.5c0.3-3.2,1.8-3.7,2.7-3.7c0.1,0,0.2,0,0.3,0c0.7,0.1,1.6,0.6,1.5,1.4c0,0.6-0.4,0.7-0.8,1
				c-0.6,0.3-0.9,0.6-0.9,1.2l-0.1,1.2c0,0.4-0.1,1,0.8,1.1c0.1,0,0.2,0,0.2,0c0.9,0,1-0.6,1.1-1.2l0.2-2.5c0.1-1.2,0.5-1.3-1.6-2.7
				c-0.6-0.4-1.2-0.9-1.6-1.5c-0.3-0.6-0.3-1.4,0.2-1.9C51.5,67.5,52.6,67.3,53.5,67.3 M28.5,69.9c0.7,0,0.7,0.5,0.8,0.8
				c0.1,0.7,0.1,1.4,0.3,2c0.2,0.8,0.5,2.3,1.1,3.1c0.6,0.7,1.9,1.4,1.4,2.6c-0.3,0.6-0.9,1-1.7,1.1c-0.3,0.1-0.6,0.1-0.9,0.1
				c-0.1,0-0.2,0-0.3,0c-1.5-0.2-1.9-1.5-2-2.3c-0.1-0.9-0.6-5.5-0.3-6.5c0.1-0.4,0.4-0.8,1.2-1C28.3,69.9,28.4,69.9,28.5,69.9
				 M36.6,69.9C36.6,69.9,36.6,69.9,36.6,69.9c0.4,0,0.7,0.1,1,0.2c0.9,0.4,1,1.3,1,1.9l0,1.9l0.1,0.2l0.2,0
				c0.2-0.1,0.4-0.2,0.5-0.2c0,0,0,0,0,0c0.3,0,0,0.1,0.6,0.2c0-1.1,0.5-2.4,1.2-3c0.5-0.5,1.2-0.9,2.4-0.9c0.1,0,0.1,0,0.2,0
				c1.1,0,2,0.3,2.6,0.9c0.3,0.3,1.2,1.3,1.2,3.7c0,0.6-0.1,1.2-0.2,1.7c-0.1,0.8-0.5,2.3-2.1,2.8c-0.4,0.1-0.9,0.2-1.4,0.2
				c-0.6,0-1.3-0.1-1.9-0.4c-1.4-0.7-2.1-2.7-2-4l-0.5,0.2l-0.6-0.2l-0.1,0l-0.2,0.3l0,0.7c0,0.4,0,0.6,0.2,0.9
				c0.2,0.3,0.5,0.7,0.5,1.1c0,0.8-0.9,1.3-2,1.3c0,0,0,0-0.1,0c-1.3,0-2-0.6-2-1.3c0-0.4,0.2-0.7,0.4-0.9c0.2-0.2,0.4-0.6,0.4-1
				l0.1-2.6c0-0.8,0-0.9-0.5-1.2c-0.3-0.3-0.6-0.5-0.6-1C34.8,70.5,35.4,69.9,36.6,69.9 M43.7,77c1,0,0.9-0.9,1-1.5l0-1.4
				c0-0.7,0.1-1.6-1-1.6c0,0,0,0,0,0c-1,0-1,0.8-1,1.6l0,1.4C42.6,76,42.6,77,43.7,77C43.7,77,43.7,77,43.7,77 M59.7,71.7
				c0.4,0,0.9,0.1,1.2,0.3c0.9,0.4,0.9,1.1,0.9,1.5l-0.6,4.5c0,0.4-0.1,0.9,0.5,1c0,0,0.1,0,0.2,0c0.4,0,1.1-0.2,1.2-1.3l0.3-2.1
				c0.1-0.5,0.1-0.6-0.2-1.3c-0.2-0.5-0.5-1.5,0.7-1.8c0.2-0.1,0.4-0.1,0.6-0.1c0.2,0,0.4,0,0.6,0.1c0.7,0.1,1.2,0.4,1.4,0.6
				c0.5,0.4,0.6,1,0.2,1.6c-0.3,0.4-0.6,0.6-0.7,1.2l-0.4,3c0,0.3,0.2,0.5,0.4,0.9c0.2,0.3,0.4,0.7,0.3,1.1
				c-0.1,0.6-0.7,0.9-1.6,0.9c-0.2,0-0.4,0-0.6,0c-1.2-0.2-2-0.8-1.4-2.2l-0.1,0c-0.5,0.8-1,1.3-1.9,1.5c-0.2,0-0.4,0.1-0.6,0.1
				c-0.6,0-1.1-0.2-1.4-0.4c-0.7-0.5-0.6-1.2-0.6-1.6l0.5-4.1c0.1-0.9-0.2-0.9-0.5-1.4c-0.4-0.7-0.4-1.3,0-1.6
				C58.6,71.8,59.1,71.7,59.7,71.7 M70.3,73.4c0.2,0,0.4,0,0.7,0.1c0.4,0.1,0.8,0.2,1.2,0.4c1.4,0.7,1.8,2,1.9,2.6
				c0.2,0.8,0.1,1.7,0,2.4c0.1-0.7,0.4-1.6,0.8-2.3c0.3-0.5,1-1.6,2.6-1.8c0.2,0,0.4,0,0.5,0c0.6,0,1.2,0.1,1.7,0.4
				c1,0.5,1.2,1.2,0.8,1.7c-0.3,0.4-0.7,0.5-1.1,0.5c-0.3,0-0.6,0-1-0.1c-0.2,0-0.4-0.1-0.6-0.1c-0.2,0-0.5,0-0.8,0.2
				c-0.5,0.3-0.9,0.7-1.2,1.2c-0.5,0.8-0.6,1.5-0.8,2.4L75,81.6c-0.1,0.8-0.2,1.7-1.2,1.7c-0.1,0-0.2,0-0.4,0
				c-1.4-0.2-1.1-1.3-1-2.1l0.1-0.8c0.2-1.2,0.1-1.9,0.1-2.2c-0.1-0.4-0.3-1.4-0.7-1.8c-0.4-0.5-0.8-0.6-1.4-0.7
				c-0.8-0.2-1.6-0.3-1.9-1c-0.2-0.6,0.2-1.2,1.3-1.3C70,73.4,70.2,73.4,70.3,73.4 M101.4,73.5c0.5,0,0.6,0.3,0.6,0.5
				c0.1,1-1.3,1.9-3.2,2c-0.2,0-0.4,0-0.6,0c-1.5,0-2.1-0.6-2.2-1.1c0-0.7,0.9-1.2,1.8-1.2c0.1,0,0.1,0,0.2,0c0.5,0,0.9,0.1,1,0.4
				c0.1,0.2,0.1,0.4,0.5,0.4c0,0,0.1,0,0.1,0c0.6,0,0.7-0.4,0.7-0.5c0.1-0.3,0.4-0.5,0.9-0.5C101.3,73.5,101.3,73.5,101.4,73.5
				 M83.1,75.7c0.1,0,0.3,0,0.4,0c1.9,0.2,1.8,1.6,1.7,2.1l-0.4,4c0,0.4,0,1,0.8,1.1c0.1,0,0.2,0,0.2,0c0.8,0,0.8-0.5,0.8-0.8l0-0.5
				c0-0.2,0-0.4-0.3-0.7c-0.4-0.4-1-0.7-0.9-1.4c0.1-0.7,0.8-1,1.5-1c0.1,0,0.2,0,0.3,0c1,0.1,2.4,0.8,2.1,3.4
				c-0.2,2.4-1.7,3.5-3.6,3.5c-0.2,0-0.4,0-0.6,0c-3.4-0.4-3.2-2.8-3.1-3.5l0.3-2.8c0.1-0.7,0.2-0.8-0.3-1.3
				c-0.3-0.3-0.6-0.6-0.5-1.1C81.6,76.2,82.1,75.7,83.1,75.7 M69.9,76c0.1,0,0.2,0,0.3,0c0.9,0.2,1.2,0.8,1.3,1.2
				c0.4,1.1,0.5,2.1,0.3,3.4c-0.1,0.8-0.4,1.9-2,2.1c-0.1,0-0.2,0-0.2,0c-0.6,0-1.2-0.2-1.5-0.4c-0.4-0.3-0.6-0.7-0.6-1.2
				c0.1-0.6,0.6-0.9,1.1-1.2c0.5-0.4,0.8-0.6,0.9-1.2c0.1-0.5-0.1-0.9-0.2-1.1c-0.2-0.4-0.3-0.7-0.2-1C69.1,76.1,69.5,76,69.9,76
				 M101.8,76.2c0.6,0,1,0.1,1.2,0.3c0.6,0.3,0.8,0.8,0.5,1.5c-0.2,0.4-0.5,0.7-0.5,1.4l0.2,3.1c0,0.3,0.3,0.5,0.6,0.8
				c0.2,0.2,0.5,0.6,0.5,1c0,0.7-0.7,1.3-1.9,1.4c-0.1,0-0.2,0-0.3,0c-1,0-1.8-0.5-1.5-1.8l-0.1,0c-0.3,0.8-0.7,1.5-1.5,1.9
				c-0.4,0.2-0.8,0.3-1.2,0.3c-0.3,0-0.6-0.1-0.8-0.1c-0.8-0.3-0.9-1.1-0.9-1.4l-0.3-4.1c-0.1-0.9-0.4-0.9-0.8-1.2
				c-0.6-0.6-0.6-1.2-0.3-1.6c0.3-0.5,1.1-0.8,1.9-0.8c0.2,0,0.4,0,0.6,0.1c1,0.2,1.1,0.8,1.2,1.3l0.3,4.5c0,0.4,0,0.8,0.6,0.8
				c0,0,0.1,0,0.1,0c0.4,0,1.1-0.4,1.1-1.6l-0.1-2.1c0-0.5,0-0.6-0.5-1.2c-0.3-0.4-0.8-1.4,0.4-2c0.3-0.2,0.8-0.3,1.2-0.3
				C101.6,76.2,101.7,76.2,101.8,76.2 M91.1,76.6c0.1,0,0.3,0,0.4,0c1.9,0.2,1.8,1.5,1.7,2.2l-0.3,2.8c-0.1,1.5,0.2,1.5,0.8,2.3
				c0.3,0.4,0.5,0.8,0.5,1.2c-0.1,0.6-0.7,1-1.7,1c-0.1,0-0.3,0-0.4,0c-2.2-0.2-2.2-1.8-2.2-2.5l0.4-3.8c0.1-0.6,0-0.7-0.3-1.1
				c-0.3-0.3-0.6-0.6-0.6-1.1C89.6,77,90.2,76.6,91.1,76.6 M78.2,77.4c0.1,0,0.2,0,0.3,0c0.5,0.1,1,0.4,0.9,0.8
				c0,0.3-0.2,0.5-0.5,0.8c-0.2,0.2-0.4,0.5-0.5,1c-0.1,0.6,0.1,1,0.5,1.5c0.4,0.5,0.8,1,0.7,1.5c-0.1,0.5-0.4,0.8-0.9,0.9
				c-0.2,0-0.4,0.1-0.6,0.1c-0.4,0-0.8-0.1-1.3-0.3c-1.5-0.7-1.4-1.9-1.3-2.6c0.2-1.2,0.5-2.2,1.3-3.1
				C77.2,77.8,77.6,77.4,78.2,77.4 M28.6,65.1c-0.6,0-1.2,0.1-1.8,0.2c-0.7,0.1-1.4,0.4-2.1,0.8c-3.3,1.8-3.6,5.1-3.7,7.4
				c-0.4,4.6-0.6,5.7-0.8,6.1c-0.3,0.6-0.7,0.9-1.3,1.3c-0.3,0.2-0.5,0.3-0.8,0.6c-1.1,0.9-1.6,2-1.4,3.2c0.2,1.1,1.3,2.2,3.3,2.2
				c0.4,0,0.8,0,1.3-0.1c1.8-0.4,4.2-1.5,4.9-4.7c0.2-0.7,0.3-1.5,0.3-2.2c0.8,1,1.8,1.3,2.5,1.4c0.1,0,0.3,0,0.5,0
				c0.4,0,0.8,0,1.2-0.1c1.7-0.4,2.4-1.3,2.8-1.9c0.1-0.2,0.2-0.4,0.2-0.6c0.3,1.1,1.4,2.1,3.4,2.2l0.1,0c1.3,0,2.3-0.4,2.9-1.2
				c0.3,0.3,0.7,0.6,1.2,0.8c0.9,0.4,1.9,0.5,2.5,0.5c0.7,0,1.4-0.1,1.9-0.3c0.9-0.3,1.6-0.9,2.2-1.6c0.2,0.4,0.5,0.8,0.8,1.2
				c0.7,0.8,1.9,1.3,3.2,1.5c0.3,0,0.6,0,0.8,0c0.5,0,0.9,0,1.3-0.1c1.2-0.3,2.1-0.8,2.8-1.7c0.1,1.1,0.7,1.8,1.2,2.1
				c0.6,0.4,1.4,0.7,2.2,0.7c0.3,0,0.6,0,0.9-0.1c0.3-0.1,0.5-0.1,0.8-0.2c0.4,0.4,1.1,0.8,2.1,1c0.3,0,0.6,0.1,0.8,0.1
				c0.7,0,1.3-0.2,1.7-0.4c0.2,0.2,0.3,0.3,0.5,0.5c0.6,0.5,1.5,0.7,2.4,0.7c0.1,0,0.2,0,0.4,0c0.5,0,0.9-0.1,1.4-0.4
				c0.4,0.6,1,0.9,1.9,1.1c0.2,0,0.4,0.1,0.6,0.1c0.6,0,1.1-0.2,1.4-0.4c0.4,0.3,0.8,0.6,1.2,0.8c0.6,0.3,1.2,0.4,1.9,0.4
				c0.3,0,0.7,0,1-0.1c0.8-0.2,1.4-0.7,1.7-1.4c0.6,1.5,2,2.5,4.1,2.7c0.3,0,0.5,0,0.8,0c1.2,0,2.3-0.3,3.1-1c0.6,0.9,1.6,1.6,3,1.7
				c0.2,0,0.4,0,0.6,0c1.2,0,2.2-0.5,2.8-1.3c0.4,0.4,0.8,0.7,1.1,0.8c0.4,0.2,0.8,0.2,1.3,0.2c0.6,0,1.3-0.2,1.9-0.4
				c0.2-0.1,0.5-0.2,0.7-0.4c0.4,0.3,1,0.5,1.8,0.5c0.1,0,0.3,0,0.4,0c2.4-0.2,3.4-1.7,3.3-2.9c-0.1-0.7-0.4-1.4-1-2
				c-0.1-0.1-0.1-0.1-0.2-0.2c0,0,0,0,0,0l-0.2-2.7c0-0.1,0.1-0.2,0.1-0.2c0.1-0.1,0.2-0.3,0.2-0.5c0.6-1.3,0.1-2.7-1.2-3.4
				c-0.1-0.1-0.2-0.1-0.4-0.2c0.1-0.3,0.2-0.7,0.1-1.1c-0.1-1.1-0.9-1.9-2.1-1.9c0,0,0,0,0,0c-0.1,0-0.2,0-0.3,0
				c-0.7,0.1-1.2,0.3-1.5,0.6c-0.4-0.2-0.9-0.4-1.5-0.4c-0.1,0-0.2,0-0.3,0c-2,0.2-3.3,1.4-3.2,2.8c0,0.2,0,0.3,0.1,0.5
				c-0.3,0.2-0.6,0.3-0.8,0.5c-0.7-0.7-1.8-0.9-2.2-1c-0.2,0-0.4,0-0.6,0c-1.5,0-2.7,0.8-3,2c-0.2,0-0.4-0.1-0.5-0.1
				c-0.1,0-0.3,0-0.5,0c-0.1,0-0.2,0-0.3,0c-0.2-1.6-1.3-2.6-3-2.8c-0.2,0-0.4,0-0.6,0c0,0,0,0,0,0c-0.7,0-1.2,0.1-1.7,0.4
				c-0.3-0.3-0.7-0.6-1.1-0.8c-0.7-0.4-1.6-0.5-2.4-0.5c-0.2,0-0.5,0-0.7,0c-0.7,0.1-1.6,0.4-2.4,1c-0.6-0.9-1.3-1.4-1.9-1.8
				c-0.5-0.3-1.1-0.4-1.6-0.5c-0.3-0.1-0.6-0.1-0.9-0.1c-0.2,0-0.4,0-0.6,0c-0.7,0.1-1.2,0.3-1.7,0.6c-0.1-0.2-0.3-0.4-0.5-0.6
				c-0.3-0.3-1-0.8-2.2-1c-0.3,0-0.6-0.1-0.9-0.1c-0.4,0-0.7,0-1,0.1c-0.3,0.1-0.6,0.2-0.9,0.4c-0.3-0.3-0.6-0.6-1.1-0.8
				c-0.6-0.3-1.2-0.4-1.9-0.4c0,0,0,0,0,0c-0.9,0-1.7,0.3-2.3,0.8c0,0,0,0,0,0c0,0,0,0,0,0c-0.1-0.1-0.2-0.2-0.2-0.3
				c1-0.4,1.5-1.3,1.6-2.1c0.1-0.7-0.2-1.3-0.6-1.8c-0.4-0.4-1.1-0.9-2.4-0.9c-0.1,0-0.1,0-0.2,0l-0.2,0c0,0-0.1,0-0.1,0
				c0,0-0.1,0-0.3,0l-0.5-0.1c0,0-0.1,0-0.1,0c-0.2,0-0.5,0-0.7,0l0,0c0,0,0,0,0,0c-0.7,0-2.4,0.1-3.5,1.2c-1,0.9-1.1,2.4-0.5,3.6
				c0.1,0.1,0.1,0.2,0.2,0.3c-0.4,0.2-0.7,0.6-1.1,1.1c-0.3-1-0.8-1.6-1.2-2c0,0,0,0,0,0c-0.9-0.9-2.1-1.3-3.6-1.3
				c-0.1,0-0.1,0-0.2,0c-1.4,0-2.5,0.4-3.5,1.3c-0.1,0.1-0.2,0.2-0.3,0.3c-0.4-0.8-1-1.2-1.6-1.5c-0.5-0.2-0.9-0.3-1.5-0.3l-0.1,0
				c0,0,0,0,0,0c-2.1,0-3.3,1.4-3.3,2.7c0,1.2,0.7,1.8,1.1,2.1c0,0,0,0.1,0,0.1L34.3,76c0,0-0.1,0.1-0.1,0.2c0,0,0,0.1-0.1,0.1
				l0,0.1c-0.1,0.2-0.3,0.6-0.4,1c-0.2-1-1-1.7-1.4-2.1c-0.1-0.1-0.3-0.3-0.3-0.3c-0.2-0.2-0.5-0.9-0.8-2.4c0-0.2-0.1-0.5-0.1-0.8
				c0-0.4-0.1-0.8-0.2-1.2c0-0.1,0-0.1,0-0.2c0.3-0.2,0.6-0.5,0.8-0.7c0.5-0.6,0.7-1.4,0.6-2.2C32,66.8,31.5,65.1,28.6,65.1
				L28.6,65.1z M67.2,78.8l0.4-2.7c0,0,0,0,0.1-0.1c0,0,0,0,0,0c0,0.1,0,0.1,0,0.2c-0.1,0.7,0.1,1.3,0.3,1.8
				c0.1,0.2,0.1,0.2,0.1,0.3c0,0,0,0,0,0c0,0-0.1,0.1-0.3,0.2c0,0,0,0,0,0c-0.1,0-0.1,0.1-0.2,0.1C67.4,78.7,67.3,78.8,67.2,78.8
				C67.2,78.8,67.2,78.8,67.2,78.8L67.2,78.8z M80.7,81.3c-0.1-0.2-0.2-0.3-0.3-0.5l-0.1-0.2C80,80.4,80,80.4,80,80.3
				c0-0.1,0.1-0.1,0.2-0.3c0.3-0.3,0.6-0.7,0.8-1.3c0,0,0,0,0,0l0,0.2L80.7,81.3L80.7,81.3z M94.4,82.4c0-0.1,0-0.2,0-0.6l0-0.3
				l0.1,1C94.5,82.4,94.5,82.4,94.4,82.4L94.4,82.4z"/>
		</g>
	</g>
	<g>
		<g>
			<path class="st2" d="M62.7,61c-0.3,0-0.5,0-0.7-0.1l-0.2-0.1c0-0.1,0-0.1,0-0.2c-0.1-0.2-0.3-0.3-0.5-0.3c0,0-0.1,0-0.1,0
				c-0.2,0-0.3,0.1-0.5,0.1c-0.6,0-1-0.2-1.1-0.3c0.7-0.2,1.1-0.4,1.6-0.7c0.1-0.1,0.2-0.2,0.2-0.4l0-0.2c0-0.2-0.1-0.3-0.2-0.4
				c0,0-0.1-0.1-0.5-0.2c-0.1,0-0.1,0-0.2,0c-0.2,0-0.4,0.1-0.5,0.3c-0.1,0.3-1.2,0.5-1.6,0.6l-0.3,0.1c-0.5,0-1.5-0.4-1.6-0.6
				l0.5,0c0.8-0.1,1.1-0.3,1.4-0.5c0.1-0.1,0.2-0.1,0.3-0.2c0.2-0.1,0.4-0.4,0.3-0.6l0-0.1c0-0.2-0.2-0.3-0.3-0.3
				c-0.1,0-0.1,0-0.2,0c-0.1,0-0.2,0-0.3,0.1c-0.2,0.1-0.4,0.2-0.7,0.3L57.2,57c-0.2,0.1-0.8,0.2-1.5,0.2c-0.5,0-0.8-0.1-0.9-0.1
				c0,0,0.2,0,0.2-0.1c0.8-0.2,1.6-0.5,1.7-1c0.1-0.3,0.2-0.3,0.2-0.3c0.1-0.1,0.2-0.2,0.2-0.3c0.3-0.9,0.2-1.6-0.2-2.1
				c-0.7-1-2.3-1-4.1-1c0,0-0.6,0-0.8,0c-3.1,0-7.2,0.5-8.6,0.7c-0.1,0-0.1,0-0.2,0c0,0-0.1,0-0.4,0c-0.4,0-0.7,0-1,0
				c-7.6,0-8.1-5.5-8.1-5.6l0-0.2c0-0.8,0.1-2.1,0.2-2.7c0.3-1.1,0.7-2.2,1.2-3.3c1.3-2.7,4.4-6.7,8.4-10.5c0.6-0.5,1.2-1,1.8-1.5
				l0.1-0.1c1.2-0.9,2.4-1.8,2.9-2.9c1-2.2,1.9-4.5,2.6-6.3l0.1-0.2c0.8-2.2,1.5-4.1,2.4-5.5c0.5-0.8,1.1-1.7,1.9-2.7
				c0.1-0.2,0.1-0.5,0-0.6l-0.3-0.3c-0.3-0.2-0.7-0.3-1.3-0.3l-0.2,0l-0.3,0c-0.1,0-0.2,0-0.4,0c-0.1,0-0.2,0-0.4,0
				c-0.5-0.1-0.6-0.2-0.7-0.2c-1.7-0.8-2.6-1.9-2.6-3.1l0-0.3c0-0.2,0.1-1,0.2-1.2c0.1-0.5,0.8-2.2,1.4-2.7l0.8-0.5
				c0.7-0.6,1.6-0.8,2.6-0.8c1.6,0,3.3,0.6,3.9,0.9l0.2,0.1c0.2,0.1,4.1,1.3,7.2,1.4l1.9-0.2l1.2,0c0.5,0,1,0,1.5-0.1L70.6,3
				c0.5,0,0.9-0.1,1.3-0.2c0,0,0.3,0,0.7-0.1c-0.7,0.5-0.8,0.8-0.7,1.1C72,4,72.2,4.1,72.4,4.1c0,0,0.1,0,0.1,0l0.2,0
				c1.1-0.1,1.9-0.3,2.8-0.7c0.9-0.4,2.2-1.2,3.3-1.8c-0.4,0.7-0.9,1.4-1.4,2c-0.2,0.2-0.3,0.3-0.4,0.4L77,4.1
				c-0.3,0.2-0.5,0.4-0.9,0.6c-0.2,0.1-0.3,0.4-0.3,0.6c0,0.1,0.1,0.2,0.2,0.3c-0.2,0.1-0.3,0.2-0.5,0.3c-0.2,0.1-0.3,0.4-0.3,0.6
				c0,0.2,0.3,0.9,0.4,1.1c0,0,0,0,0,0L76,8.4c0.1,0.2,0.2,0.3,0.4,0.3c0.1,0,0.2,0.1,0.4,0.3l0.2,0.3c0.2,0.2,0.3,0.3,0.5,0.4
				L78,10c0.4,0.3,0.9,0.5,1.3,0.7l1,0.4c0.4,0.2,0.8,0.5,1.1,0.7c0.5,0.5,1,1,1.4,1.6l0.2,0.3c0,0,0,0,0,0c-0.2,0.2-0.1,0.5,0,0.6
				c0,0.1,0.1,0.2,0.1,0.3c0,1.1-0.3,1.8-0.6,2.4c-0.5,0.9-1.1,1.6-1.7,1.9c-0.4,0.2-0.7,0.3-1.1,0.3c-0.3,0-0.6,0-0.9-0.1l-0.6-0.2
				l-0.3-0.1c-0.1,0-0.1-0.1-0.2-0.1c-0.1,0-0.2,0-0.3,0.1c-0.1,0.1-0.2,0.3-0.2,0.5c0,0.4,0.1,0.8,0.1,1.2c0,1.8-0.3,3.6-0.6,4.8
				c0,0,0,0.1,0,0.1l-0.2,0.5l-0.3,0.9l-0.3,0.8l-0.1,0.2c-0.1,0.2-0.1,0.5,0.1,0.7c0.2,0.1,0.4,0.3,0.6,0.5l0.2,0.2
				c0.1,0.1,0.2,0.2,0.3,0.3l0.1,0.2c0,0,0,0,0.1,0.1l0.4,0.4l1.1,1.2l0.6,0.7c1.3,1.1,5.6,4.7,8.8,9.5l0.2,0.3c0,0,0,0.1,0.1,0.1
				c1.7,2.7,2.8,5.2,3.3,7.6c0,0.3,0,0.5,0,0.7c0,0.4,0,0.7,0,1c0,0.6-0.2,1.2-0.4,1.7c-1,2.5-3.5,3.3-5.3,3.6
				c-1,0.2-2.7,0.3-5.1,0.3c-4.5,0-9.8-0.4-9.8-0.4c0,0,0,0,0,0c-0.1,0-0.3,0.1-0.4,0.2c-0.9,1-2.5,2.8-4.3,3
				c-0.2,0-0.4,0.2-0.4,0.4c-0.1,0.2-0.5,0.5-1,0.7C64.5,60.7,63.5,61,62.7,61z"/>
			<path class="st1" d="M54.3,1.6c1.6,0,3.1,0.6,3.7,0.9l0.2,0.1c0,0,0,0,0.1,0c0.2,0.1,4.1,1.3,7.3,1.4c0,0,0,0,0,0
				c0,0,0.1,0,0.1,0l1.8-0.2l1.2,0c0.5,0,1.1,0,1.6-0.1l0.5-0.1c0.3,0,0.5-0.1,0.7-0.1c0,0.2,0,0.4,0.1,0.6c0.2,0.4,0.5,0.6,0.9,0.6
				c0,0,0,0,0,0l0.1,0l0.2,0c1.2-0.1,2-0.3,3-0.7c0.4-0.2,0.9-0.4,1.4-0.7c0,0,0,0.1-0.1,0.1c-0.2,0.2-0.2,0.2-0.4,0.4l-0.1,0.1
				c-0.2,0.2-0.4,0.3-0.8,0.5c-0.4,0.2-0.6,0.7-0.5,1.1c-0.4,0.2-0.7,0.7-0.5,1.2c0.3,1,0.4,1.2,0.4,1.3c0,0,0,0,0,0l0.3,0.8
				C75.7,9,76,9.2,76.3,9.2c0,0,0,0,0.1,0.1l0.2,0.3c0,0,0,0.1,0.1,0.1c0.2,0.2,0.4,0.3,0.6,0.4l0.1,0.1l0.3,0.2
				c0.4,0.3,0.9,0.5,1.4,0.7l0.8,0.4l0.1,0c0.3,0.2,0.8,0.4,1,0.6c0.5,0.4,0.9,0.9,1.3,1.4l0,0.1c-0.1,0.4,0,0.7,0,0.8
				c0,0,0,0.1,0,0.1c0,1-0.3,1.7-0.5,2.2c-0.4,0.8-1,1.4-1.5,1.7c-0.3,0.1-0.6,0.2-0.9,0.2c-0.2,0-0.5,0-0.7-0.1l-0.6-0.2L78,18.2
				c-0.1-0.1-0.3-0.1-0.4-0.1c-0.2,0-0.4,0.1-0.6,0.2c-0.3,0.2-0.5,0.6-0.4,0.9c0,0.4,0.1,0.8,0.1,1.1c0,1.8-0.3,3.5-0.6,4.7
				c0,0,0,0.1,0,0.1l-0.1,0.5l-0.2,0.9l-0.2,0.7l-0.1,0.1c-0.3,0.4-0.2,1,0.2,1.3c0.2,0.1,0.4,0.3,0.6,0.5l0.2,0.2
				c0.1,0.1,0.2,0.2,0.3,0.3c0,0.1,0.1,0.1,0.1,0.1c0,0,0.1,0.1,0.1,0.1l0.4,0.4l1.1,1.2l0.6,0.7c0,0,0.1,0.1,0.1,0.1
				c0.9,0.7,5.4,4.5,8.7,9.4l0.2,0.3c0,0,0.1,0.1,0.1,0.1c1.7,2.6,2.8,5.1,3.2,7.4l0,0.1c0,0.2,0,0.4,0,0.6c0,0.3,0,0.6,0,1
				c0,0.5-0.2,1.1-0.4,1.6c-0.9,2.2-3.1,2.9-5,3.3c-0.6,0.1-2,0.3-4.9,0.3c-4.5,0-9.7-0.4-9.7-0.4c0,0,0,0,0,0c0,0-0.1,0-0.1,0
				c-0.3,0-0.6,0.1-0.7,0.3c-0.8,0.9-2.4,2.7-4,2.9c-0.4,0-0.7,0.3-0.8,0.7c-0.1,0.1-0.3,0.3-0.7,0.4c-0.8,0.3-1.6,0.4-2.1,0.4
				c-0.3,0-0.4,0-0.5-0.1c0,0,0,0,0,0c-0.1-0.4-0.5-0.7-0.9-0.7c0,0,0.1,0,0.1-0.1c0.2-0.2,0.4-0.4,0.4-0.7l0-0.2
				c0-0.3-0.1-0.7-0.4-0.9c-0.1-0.1-0.2-0.2-0.6-0.3c-0.1,0-0.2-0.1-0.4-0.1c-0.4,0-0.7,0.2-0.9,0.5c-0.2,0.1-0.7,0.3-1.1,0.3
				c0.1,0,0.1-0.1,0.2-0.1c0.1-0.1,0.1-0.1,0.2-0.1c0.5-0.2,0.8-0.7,0.6-1.2l0-0.1c-0.1-0.3-0.3-0.5-0.6-0.7c-0.1,0-0.2-0.1-0.3-0.1
				c-0.2,0-0.4,0.1-0.6,0.2c-0.1,0.1-0.4,0.2-0.6,0.2l-0.1,0l-0.2,0.1c0,0,0,0,0,0c0.1-0.1,0.2-0.3,0.2-0.4c0-0.1,0.1-0.1,0.1-0.1
				c0.2-0.1,0.3-0.3,0.4-0.5c0.3-1.1,0.2-1.9-0.2-2.6c-0.8-1.2-2.5-1.2-4.5-1.2l-0.2,0c-0.2,0-0.4,0-0.6,0c-3,0-7.1,0.5-8.6,0.7
				c-0.1,0-0.1,0-0.2,0c0,0-0.1,0-0.4,0c-0.3,0-0.7,0-1,0c-7,0-7.6-4.9-7.6-5.1l0-0.2c0-0.8,0.1-2,0.2-2.5c0.3-1.1,0.7-2.2,1.2-3.3
				c1.3-2.7,4.4-6.6,8.3-10.3c0.5-0.5,1.2-1,1.8-1.5l0.1-0.1c1.3-1,2.5-1.9,3-3.1c1-2.2,1.9-4.5,2.6-6.4l0.1-0.2
				c0.8-2.2,1.5-4,2.3-5.4c0.5-0.8,1.1-1.6,1.8-2.6c0.3-0.4,0.3-0.9-0.1-1.3L55.5,10c0,0-0.1-0.1-0.1-0.1c-0.3-0.3-0.8-0.4-1.5-0.4
				c-0.1,0-0.1,0-0.2,0l-0.3,0c-0.1,0-0.2,0-0.3,0c-0.1,0-0.2,0-0.3,0c-0.4-0.1-0.6-0.2-0.6-0.2l-0.1,0c-1-0.5-2.2-1.3-2.3-2.6
				l0-0.2c0-0.2,0.1-1,0.2-1.2c0.1-0.5,0.8-2,1.2-2.4l0.7-0.5c0,0,0.1-0.1,0.1-0.1C52.6,1.8,53.3,1.6,54.3,1.6 M57.4,55.9L57.4,55.9
				L57.4,55.9 M80.4,0c0,0-3.3,2.2-4.9,2.9c-0.9,0.4-1.6,0.6-2.7,0.6l-0.2,0l-0.1,0c-0.1-0.2,2.2-1.7,2.1-1.9
				c-0.8,0.3-2.7,0.6-2.7,0.6c-0.4,0.1-0.7,0.2-1.3,0.2l-0.5,0.1c-0.5,0.1-1,0.1-1.5,0.1l-1.3,0l-1.8,0.2c-3.1-0.1-7-1.3-7-1.3
				c-0.4-0.2-2.3-1-4.2-1c-1,0-2.1,0.2-2.9,0.9l0,0l-0.8,0.6l0,0c-0.6,0.6-1.4,2.4-1.5,3c0,0.2-0.2,1.1-0.2,1.3l0,0.3
				c0,1,0.5,2.5,2.8,3.5l0.1,0c0,0,0.3,0.1,0.8,0.2c0.2,0,0.3,0,0.5,0c0.1,0,0.3,0,0.4,0l0.3,0c0.1,0,0.1,0,0.2,0
				c0.7,0,0.9,0.1,0.9,0.2l0.3,0.3c-0.6,0.9-1.3,1.7-1.9,2.7l0,0c-0.9,1.5-1.6,3.5-2.5,5.8c-0.7,2-1.5,4.2-2.6,6.3
				c-0.5,1-1.6,1.9-2.8,2.8c-0.7,0.5-1.3,1-2,1.6c-4,3.9-7.2,7.8-8.5,10.6c-0.5,1.1-0.9,2.3-1.2,3.4c-0.2,0.6-0.3,2-0.3,2.8l0,0.3
				c0,0.2,0.7,6.1,8.6,6.1c0.3,0,0.7,0,1.1,0c0.2,0,0.3,0,0.3,0c0,0-0.3,0-0.3,0l0,0.1c0.1,0,5.3-0.8,9-0.8c0.2,0,0.4,0,0.6,0
				c2.6,0.1,4.7,0,4,2.5c-0.1,0.1-0.3,0.3-0.4,0.6c0,0.1-0.1,0.3-1.4,0.7c-0.3,0.1-0.6,0.2-0.6,0.5l-0.1,0.3l0.2,0.2
				c0.2,0.2,0.7,0.3,1.3,0.3c0.7,0,1.4-0.1,1.6-0.2l0.2-0.1c0.3-0.1,0.7-0.2,0.9-0.4l0,0.1c-0.6,0.2-0.4,0.5-1.6,0.6l-0.5,0.1
				c-0.3,0-0.4,0.3-0.4,0.5c0.1,0.6,1.5,1.1,2.1,1.1c0,0,0.1,0,0.1,0c0.5-0.1,1.9-0.3,2.2-0.9c0.2,0.1,0.3,0.1,0.3,0.1l0,0.2
				c-0.4,0.3-0.8,0.5-1.5,0.6c-0.2,0-0.3,0.2-0.4,0.3c0,0.1,0,0.3,0.2,0.5c0.2,0.2,0.8,0.4,1.5,0.4c0.2,0,0.4,0,0.7-0.1l-0.4,0.2
				l1,0.4c0.3,0.1,0.6,0.2,0.9,0.2c0.8,0,1.8-0.3,2.4-0.5c0,0,1.2-0.4,1.4-1.1c1.9-0.2,3.6-2,4.7-3.2c0.1,0,5.4,0.4,9.8,0.4
				c2.1,0,4.1-0.1,5.2-0.3c1.9-0.4,4.6-1.2,5.7-3.9c0.2-0.6,0.4-1.2,0.4-1.9c0-0.3,0-0.7,0-1.1c0-0.2,0-0.4,0-0.6l0-0.1l0-0.1
				c-0.4-2.5-1.6-5.1-3.4-7.9l0,0l0-0.1L88.7,41c-3.3-4.9-7.9-8.7-8.9-9.6l-0.6-0.7L78,29.5l-0.5-0.5l0,0c-0.1-0.1-0.2-0.3-0.4-0.4
				l-0.2-0.2c-0.2-0.2-0.4-0.4-0.7-0.6l0.1-0.2l0.3-0.9l0.3-0.9l0.2-0.6l0,0c0.3-1.3,0.6-3.1,0.6-4.9c0-0.4,0-0.8-0.1-1.2
				c0.1,0.1,0.3,0.2,0.3,0.2l0.6,0.2c0.3,0.1,0.7,0.2,1,0.2c0.5,0,0.9-0.1,1.3-0.3c0.7-0.3,1.4-1.1,1.9-2.1c0.3-0.6,0.7-1.5,0.6-2.7
				c0-0.3-0.2-0.6-0.1-0.6c0.1,0,0.2,0,0.4,0.2L83.2,13c-0.5-0.6-1-1.2-1.5-1.7c-0.4-0.3-0.9-0.6-1.2-0.8l-0.1-0.1l-0.9-0.4
				C79,10,78.6,9.8,78.3,9.5l-0.3-0.2c-0.2-0.1-0.4-0.2-0.5-0.3l-0.2-0.3c-0.2-0.3-0.5-0.5-0.8-0.5l-0.4-1l0-0.1
				c-0.1-0.1-0.2-0.7-0.3-1C76.6,5.8,78,4.7,78,4.7l-1.7,0.3c0.4-0.2,0.7-0.4,1-0.6c0.2-0.2,0.3-0.3,0.6-0.6
				C78.8,2.6,79.6,1.4,80.4,0L80.4,0z"/>
		</g>
		<path class="st3" d="M64.6,59.2c-0.2,0-0.3,0-0.4,0.1c-0.7,0.6-1.3,1.2-2.3,1.6c0.9,0.4,3-0.3,3.1-0.3c0.3-0.1,1.8-0.8,0.6-1.2
			C65.5,59.3,65,59.2,64.6,59.2L64.6,59.2L64.6,59.2z M56.9,55.6l-0.2,0.1c0.1,0.9-2.1,1.2-2,1.3c0.3,0.3,2,0.2,2.5,0
			c0.5-0.2,1.9-0.4,0.9-1C58,55.9,57.3,55.6,56.9,55.6L56.9,55.6L56.9,55.6z M58.8,57.5l-0.2,0.1c-0.6,0.5-1,0.5-2.1,0.7
			c-0.3,0,1,0.8,1.7,0.7c0.7-0.2,2.1-0.5,1.9-0.9C59.8,57.7,59.2,57.5,58.8,57.5L58.8,57.5L58.8,57.5z M61.8,58.7L61.8,58.7l-0.2,0
			c-0.6,0.5-1.1,0.9-2.2,1.1c-0.3,0.1,0.9,0.8,2.1,0.3c0.3-0.1,1.5-0.6,1.9-0.9C63.5,59,62.5,58.7,61.8,58.7L61.8,58.7L61.8,58.7z"
			/>
		<path class="st4" d="M73.1,10.4L73,10.5c-0.2,0.3-0.3,0.7-0.5,1.2l0.1-0.1c0.5-0.2,1-0.2,1.5,0.1c0.3,0.2,0.8,0.7,1,1
			c0.1,0.2,0.1,0.4,0.1,0.6c0,0.2,0,0.4,0.1,0.5c0,0,0.5,0.8,0.6,1c0-0.3-0.1-0.9-0.1-1.2l0-1c0,0,0.1-0.5,0.1-0.7l-0.1-0.1
			c-0.3-0.2-0.5-0.3-0.7-0.6l-0.1-0.1l-0.4-0.4l-0.6-0.5L74,10.1l-0.3-0.2l-0.1,0C73.4,9.9,73.3,10,73.1,10.4L73.1,10.4z M74.7,6.7
			L74.7,6.7L74.7,6.7L74.7,6.7L74.7,6.7z M59.5,16.6c0.4-0.6,1.4-1.1,2-1.2c0,0,0.4-0.1,0.4,0.3l-0.1,0.2l-0.2,0.1
			c-0.2,0.3-0.2,0.4-0.3,0.8l0,0.1l-0.1,0.6c0,0.3,0,0.6,0,0.8c0,0.4,0,0.8,0.2,1.2c0.1,0.6,0.5,1.4,0.8,1.9
			c0.1,0.2,2.9,4.3,7.2,3.3c0.3-0.1,1.4-0.5,1.6-0.6c2.4-1.5,2.7-3.1,2.9-3.8l0.1-0.3c0.1-0.3,0.6-0.3,0.6,0.2l0,0.1l-0.1,0.4
			c-0.1,0.4-0.1,0.6-0.2,0.9c-0.6,1.6-1.4,2.6-2.5,3.3l-0.1,0.1c-0.3,0.2-0.6,0.4-1,0.5c-1,0.4-1.1,0.7-1.1,0.7v0l0,0.1
			c-0.2,0.4-0.5,0.8-1,1c-0.6,0.3-2.8,0.2-3.4-1.1c0,0,0.9,0.4,1.6,0.5c0.7,0.1,1,0.1,1.6-0.1l0.4-0.4c0-0.1-0.3-0.1-0.6-0.1l-0.2,0
			c-1.5,0-5.2-0.6-7.1-5.2c-0.2-0.4-0.2-1.2-0.3-2l0-0.3c0-0.4,0-0.9,0.1-1.3l0-0.5l0,0c-0.2,0-0.3,0-0.5,0.2
			c-0.5,0.4-1.1,1.1-1.4,1.7C58.8,18,59.2,17,59.5,16.6L59.5,16.6z M61.5,10.7c0.7-0.3,1-0.2,1.5-0.5c-0.2,0-1.9,0-2.7-0.2
			c1-0.1,1.3,0,2.3-0.2c0,0,0.7-0.2,1.1-0.4l0.8-0.4l0.2-0.1c0.2-0.1,0.4-0.2,0.7-0.2c0.3-0.1,0.8-0.1,1.1-0.1
			c0.7,0.1,1.4,0.6,1.7,1c0.2,0.3,0.4,1,0.2,1.6l0,0.1l-0.1,0c-0.5,0.2-1.2,0.1-1.8,0L65.5,11c-0.5-0.1-1-0.3-1.7-0.3
			c-0.4,0-0.6,0.1-0.8,0.1C62.5,10.8,62.2,10.7,61.5,10.7L61.5,10.7z M65.8,5.2c1.4-0.2,2.3-0.1,3.1,0.2c0.5,0.2,0.9,0.6,1.1,1
			c0.1,0.4,0,0.7-0.1,0.9c-0.2,0.3-0.6,0.4-1.1,0.3c-0.3-0.1-0.6-0.1-0.9-0.2c-0.3-0.1-0.6-0.2-0.9-0.2c-0.6-0.1-1.3,0-1.9,0l-0.1,0
			l-0.7,0.1c-0.5,0.1-0.9,0.2-1.4,0.1h0h0c-0.3-0.1-0.4-0.3-0.4-0.5c0-0.3,0.4-0.6,0.5-0.7l0,0l0.1,0l0,0
			C63.5,5.7,64.5,5.4,65.8,5.2L65.8,5.2z M53.7,1.8c-0.7,0-1.4,0.2-2,0.6L51,2.9c-0.3,0.2-0.4,0.3-0.6,0.5l0.1,0.1
			c-0.3,0.4-0.5,1-0.7,1.7c0,0.2-0.2,1-0.2,1.2l0,0.2c0,1,0.8,2,2.3,2.6l0.1,0c0.1,0.1,0.3,0.1,0.6,0.2c0.2,0,0.4,0,0.6,0l0.3,0
			c0.8,0,1.4,0.1,1.8,0.4l0.2,0.2c0.2-0.2,1.5-1.8,1.6-1.9C57,6.9,56.2,6,55,5.8c-0.2,0-0.7,0-0.9,0.1c-0.4,0.2-0.7,0.7-0.6,1.3
			l0.1,0.1c0.1,0.1,0.2,0.4,0.1,0.6L53.7,8L53.6,8c-0.4-0.1-0.7-0.5-0.8-1l-0.1-0.4c0-0.4,0.1-0.8,0.3-1c0.3-0.3,0.5-0.4,0.8-0.4
			L53.6,5l0.2-0.2c0.2-0.3,0.7-0.3,0.9-0.3c0.5,0.1,1.5,0.7,1.6,0.8c0.1,0.1,0.8,0.8,0.9,1.1l0.1,0.1l0.1,0.2L57.6,7
			c0.1,0.2,0.1,0.3,0.2,0.5L58,7.2l0.3-0.4c0.1-0.1,0.6-0.5,0.9-0.3l0.1,0.1l-0.1,0.2C58.9,7.5,58,8.7,57,10c-1,1.3-2.1,2.7-3.1,4.3
			c-0.8,1.4-1.5,3.4-2.4,5.6c-0.7,2-1.6,4.2-2.6,6.4c-0.6,1.3-1.8,2.2-3,3.1c-0.6,0.5-1.3,1-1.9,1.5c-3.9,3.8-7.1,7.7-8.3,10.3
			c-0.5,1.1-0.9,2.1-1.2,3.3c-0.1,0.6-0.3,2-0.2,2.8c0,0.1,0.1,5.4,8.7,5.1c0,0,5.6-0.9,9.9-0.7c2.3,0.1,4.5,0.3,4.7,1.7
			c0.1,0.6,0.3,1.2-0.1,1.8c0,0,1.4,0.3,1.4,0.9c0.1,0.5-0.3,0.8-0.5,1c0.2,0,0.4,0,0.5,0c0.5,0.1,1.3,0.2,1.6,0.8l0.1,0.4l0,0.2
			c1.2-0.3,1.6-0.2,2.3-0.1c0.5,0.1,1,0.5,1.2,0.4c0,0,1.1-0.1,1.7,0c0.6,0.1,0.9,0.2,1,0.2c9.9-4,0-16.9-6.9-19.9
			c-6.8-3-15.8-0.1-16.1,0.1l-0.4,0c0-0.1,0-0.2,0.3-0.3c2.7-1.5,9.7-2.7,15-1c0.8,0.3,1.7,0.6,2.5,1c1.4,0.8,3,1.8,4.2,3l1.9,1.9
			l0.2,0.2c1.4-1,3-1.7,4.8-2.1c2.5-0.5,6.1-1,9.1-0.4l0.1,0c0,0,2.7,0.6,2.8,1.1l0,0.2L83.9,43l-0.3,0c-0.2-0.1-1.9-0.4-2.5-0.5
			l-0.1,0c-1.3-0.2-3.9-0.3-7.3,0.3L72.2,43c-1.7,0.5-3.1,1-4.1,1.6L68,44.9c2.1,2.6,4.5,6.6,3.4,10.9c7.6,0.9,20.2,1.7,19.8-5.4
			c0.1-2.9-2-6.7-3.2-8.6c-0.5-0.7-2.6-3.5-3.2-4.1c-0.7-0.6-2.3-2.1-2.4-2.3c-1-0.9-2-1.9-2.9-2.8l-0.4-0.5l-0.7-0.8l-1.1-1.2
			l-0.5-0.5l-0.5-0.5l-0.2-0.2c-0.2-0.2-0.5-0.5-0.7-0.6c-0.2,0.1-0.7,0.5-0.8,0.6c-0.3,0.4-0.7,0.7-1.1,1l-0.4,0.3l-2.6,2.2
			c-0.4,0.3-3.6,3.6-3.7,3.8c-0.5,0.6-1.4,2.2-1.4,2.4l0,0.2c0,0.2,0,0.3,0,0.4c0,0.2,0,0.4-0.2,0.4l-0.1,0l-0.1,0
			c-0.3-0.2-0.4-0.5-0.4-0.8l-0.1-0.2c-0.1-0.2-0.5-1.2-0.6-1.5L64,37.2l-0.3-0.5l-0.1-0.2l-0.5-0.7c-0.1-0.2-0.9-1-1.1-1.2
			c-0.4-0.4-1.9-2-3.1-3.3c0,0,2,1.4,2.3,1.6c0.3,0.2,0.6,0.5,1,0.8c0,0,2,1.9,2.7,4l0,0l0.1-0.2l0.2-0.3l0.2-0.2l0.6-0.8l0.2-0.3
			c0.5-0.6,1.5-1.6,1.8-2l0.1-0.1l0.9-0.8l0.6-0.5c0.3-0.3,1.8-1.6,3.1-2.7c1-0.9,2.1-1.9,2.2-2l0.2-0.2l0.2-0.3l0.3-0.7l0.2-0.9
			l0.2-0.6l0,0c0.3-1.4,0.6-3,0.6-4.7c0-0.8-0.1-1.6-0.2-2.4c-0.2-0.9-0.3-1.8-0.4-2.8c-0.1-0.2-0.2-0.3-0.2-0.3
			c-0.4-0.5-1-0.6-1.8-1.1h0l-0.5-0.3l-0.1,0l-0.2,0l-0.2,0l-0.4-0.1c-0.2-0.1-0.3-0.2-0.4-0.3c0,0.2,0,0.5,0,0.7
			c0,0.4,0.1,0.9,0.2,1.3l0.1,0.3l0.1,0.2l0.1,0.3l0.3,0.6l0.2,0.6l0.1,0.3c0.1,0.4,0.2,0.8,0.2,1.2c0,0.5,0,0.9-0.1,1.3l-0.2,0.4
			l-0.1,0.2c-0.2,0.4-0.5,0.7-0.8,1l-0.2,0.2c-0.1,0.1-0.6,0.4-0.8,0.2c-0.2-0.2,0.2-0.6,0.3-0.7l0,0c0.4-0.4,0.8-1,1-1.6
			c-0.9,0.8-2.7,0.7-4,0.4c-0.1-0.1-1.2-0.5-1.4-0.6c-0.4-0.3-0.7-0.5-1-0.9c-0.2-0.2-0.3-0.4-0.4-0.6c-0.1-0.4-0.2-1-0.2-1.3
			c0.1-0.7,0.5-1.1,1-1.4c0.2-0.1,0.4-0.3,0.6-0.4c0.8-0.3,1.8-0.3,2.5,0l0.1,0l0.8,0.4c0.3,0.2,0.6,0.4,0.9,0.6
			c-0.1-0.3-0.2-0.5-0.3-0.7c-0.1-0.4-0.2-0.8-0.2-1.2c0-1.1,0.3-2.1,0.6-2.8c0.2-0.6,0.5-1.2,1-1.6l0,0h0l0.1,0l0-0.3l0-0.3
			c0.1-0.3,0.2-0.7,0.5-0.8C74.2,7.5,75,8.1,75,8.1c0.2,0.1,0.4,0.3,0.5,0.5c-0.1-0.3-0.2-0.5-0.3-0.8c-0.2-0.3-0.4-0.7-0.5-1.1
			c0-0.1-0.1-0.3-0.1-0.5l0.1-0.3l0,0l0,0l0.4-0.1c-0.7,0-1.3-0.1-1.4-0.3l-0.1-0.1l0.1-0.1c0.1-0.1,0.3-0.2,0.8-0.4l0.5-0.2
			l0.4-0.2c0.4-0.2,0.7-0.3,1-0.5c0.2-0.2,0.5-0.4,0.6-0.7c-0.4,0.2-0.9,0.4-1.5,0.7c-1,0.4-1.8,0.6-2.9,0.7l-0.2,0l-0.9,0.1
			c-0.1,0-0.8-0.1-0.9-0.4l-0.1-0.1L70.7,4c0.2-0.2,0.3-0.2,0.5-0.3l0.2-0.1c0.2-0.1,0.4-0.2,0.5-0.4c-0.4,0.1-0.9,0.2-1.4,0.2
			l-0.5,0.1c-0.5,0.1-1.1,0.1-1.6,0.1l-1.2,0l-1.8,0.2c-0.3,0-1.7,0.4-4.7,1.4c-0.4,0.1-0.8,0-1.4-0.2C59,5,58.6,4.7,58.2,4.4
			l-0.8-0.7l-0.5-0.4l-0.5-0.5c-0.4-0.4-0.8-0.7-1.3-0.9c-0.2-0.1-0.3-0.1-0.5-0.1l-0.2,0l-0.3,0L53.7,1.8L53.7,1.8z"/>
		<path class="st5" d="M76.3,11.5c-0.2,0-0.3-0.1-0.4-0.3c-0.1-0.1-0.3-0.4-0.4-0.5l0,0c-0.1-0.2-0.5-0.5-0.7-0.7
			c-0.1-0.1-0.3-0.3-0.5-0.4c-0.2-0.2-0.5-0.2-0.5-0.4c-0.2-0.3-0.1-1.1,0.4-1.2c0.2,0,0.7,0.2,0.8,0.3l0.4,0.4
			c0.3,0.3,0.4,0.6,0.7,1c0.1,0.2,0.3,0.5,0.3,0.6l0.1,0.5C76.4,11.1,76.5,11.4,76.3,11.5L76.3,11.5z"/>
		<path class="st6" d="M68.1,10.7l-0.5,0.1c0.4-1.3-1.1-1.8-1.9-1.3c-0.3,0.2-0.4,0.7-0.4,0.9C64.9,10.2,64.5,10,64,10
			c0.7-0.4,1.5-1,2.7-0.9c0.4,0,0.7,0.2,1,0.3l0.3,0.2C68.1,9.9,68.1,10.3,68.1,10.7L68.1,10.7z"/>
		<path class="st2" d="M67.1,10.6c0,0.2-0.7,0-1-0.1c-0.2-0.1-0.1-0.3,0-0.4C66.4,9.6,67.4,9.8,67.1,10.6L67.1,10.6z"/>
		<path class="st2" d="M74.3,13.2c-0.2,0-0.4-0.2-0.6-0.2C73.8,12.4,74.4,12.9,74.3,13.2L74.3,13.2z"/>
		<path class="st6" d="M73.1,12.9c-0.8-0.1-0.2-0.9,0.3-0.9c0.3,0,0.6,0.2,0.8,0.3c-0.2,0-0.6,0-0.7,0.1l-0.2,0.1L73.1,12.9
			L73.1,12.9z"/>
		<path class="st6" d="M74.7,12.7c0.1,0.1,0.3,0.6,0.3,1.1l-0.3-0.2C74.9,13.3,74.8,12.9,74.7,12.7L74.7,12.7z"/>
		<path class="st2" d="M74.5,13.4c0-0.3-0.1-0.7-0.3-0.8c-0.2-0.1-0.3-0.1-0.4,0c-0.2,0.1-0.3,0.2-0.4,0.4l-0.2-0.1
			c0-0.7,1-0.6,1.3-0.2l0.1,0.2C74.7,13,74.7,13.3,74.5,13.4L74.5,13.4z"/>
		<path class="st2" d="M67.3,10.8l0.1-0.1c0.1-0.8-0.5-1.2-1.2-0.9L66,9.9l-0.2,0.3l-0.1,0.3l-0.3-0.1c0.1-0.7,0.6-1,1.2-0.9
			c0.4,0,0.9,0.4,0.8,1C67.5,10.5,67.5,10.8,67.3,10.8L67.3,10.8z"/>
		<path class="st6" d="M66,10.2L66,10l0.1-0.2c0.2-0.1,0.3-0.1,0.3-0.1l0,0.1l-0.2,0.1L66,10.2L66,10.2L66,10.2z"/>
		<polygon class="st6" points="73.6,13 73.6,12.8 73.8,12.7 74,12.6 74,12.7 73.8,12.8 73.7,13 73.6,13 		"/>
		<path class="st4" d="M76.6,9.3c0,0.1,0.1,0.8,0.2,1.1l0.1,0.3l0.1,0.4c0,0-0.1,0.3-0.2,0.8l0,0.3l0,0.7c0,0.2,0,0.4,0,0.6
			c0,0.2,0,0.4,0,0.5c0,0.4,0.1,0.8,0.1,1.2c0,0.2,0.1,0.4,0.1,0.5c0.1-1.2,2-2,3.2-1.3c0.4,0.2,0.7,0.5,0.9,1.1
			c0,0.2,0,0.7-0.3,0.7c-0.1-0.5-0.2-1.1-0.9-1.4c-0.6-0.3-1.6,0-2,0.3c-0.5,0.4-0.9,0.9-0.7,1.8c0.1,0.3,0.3,0.6,0.4,0.7
			c0.5,0.5,0.8,0.6,1.6,0.9c0.6,0.2,1.2,0.1,1.7-0.1c0.6-0.3,1.1-0.9,1.5-1.7c0.3-0.6,0.6-1.3,0.5-2.2c0-0.2-0.2-0.6-0.3-0.8
			c-0.1-0.2-0.3-0.5-0.3-0.7c0.2,0,0.3,0.1,0.4,0.1c-0.3-0.3-0.4-0.3-0.6-0.5c-0.2-0.2-0.4-0.4-0.7-0.6c-0.3-0.3-0.8-0.5-1.2-0.7
			l-0.8-0.3c-0.5-0.2-1-0.4-1.4-0.7c-0.3-0.2-0.7-0.4-1-0.7c-0.2-0.2-0.4-0.5-0.4-0.5L76.6,9.3L76.6,9.3z"/>
		<path class="st7" d="M67.3,15.4L67,15.5c-0.4,0.4-0.1,0.6,0.2,0.9c0.3,0.4,4.2,2.1,5.4,0.8c0.1-0.1-0.1-0.3-0.2-0.4
			c-0.2-0.4-0.4-0.5-0.7-0.7c-0.2-0.2-0.5-0.4-0.8-0.5c-0.3-0.2-0.6-0.3-0.9-0.4L69.3,15L69,15C68.3,15,67.4,15.3,67.3,15.4
			L67.3,15.4z"/>
		<path class="st8" d="M66.6,16c-0.2,0.1-0.2,0.5-0.2,0.8c0,0.7,0.2,0.8,0.5,1.2c0.7,0.8,1.5,1.3,2.5,1.5c0.8,0.2,1.5,0.2,2.3,0.1
			c0.4-0.1,0.7-0.2,0.9-0.4c0.3-0.2,0.5-0.8,0.3-1.4c-0.2,0.1-0.4,0.3-0.9,0.4c-0.1,0-1,0-1.3,0c-0.2,0-1.3-0.3-1.6-0.3
			C68.9,17.8,66.9,17.2,66.6,16L66.6,16L66.6,16L66.6,16z"/>
		<path class="st5" d="M69.8,7c-0.4,0.3-1.2-0.1-1.9-0.2c-1.1-0.3-2.5-0.1-3.6,0.1C64,6.9,63.8,7,63.6,7c-0.2,0-0.7,0.2-0.7,0
			l0.2-0.2c0.2-0.1,0.5-0.3,0.8-0.5c0.2-0.1,0.4-0.1,0.6-0.2c0.8-0.3,1.8-0.5,2.9-0.4c0.8,0,1.4,0.2,1.9,0.5
			C69.6,6.4,69.9,6.5,69.8,7L69.8,7z"/>
		<path class="st9" d="M55.1,1.2c0.8,0.4,1.5,1.1,2.3,1.7c0.4,0.3,0.7,0.7,1.1,0.9c0.4,0.3,1,0.6,1.6,0.8l0.1,0.1
			c0.8,0.2,1.4-0.2,1.9-0.4c0.3-0.1,0.6-0.2,0.9-0.4c0.3-0.1,0.6-0.2,0.9-0.3c0.3-0.1,0.3,0,0.6-0.2c-0.8,0-1.6-0.1-3-0.3
			c-0.6-0.1-1.8-0.5-2.2-0.6C57.6,1.9,56.8,1.5,55.1,1.2L55.1,1.2L55.1,1.2z"/>
	</g>
</g>
</svg>
